<svg xmlns="http://www.w3.org/2000/svg" xmlns:xlink="http://www.w3.org/1999/xlink" viewBox="0 0 234.02 234.02"><defs><style>.cls-1{fill:none;}.cls-2{fill:#fc6;}.cls-3{fill:#cce5e9;}.cls-4{clip-path:url(#clip-path);}.cls-5{fill:#3f2514;}.cls-6{fill:#0b5389;}.cls-7{fill:#131212;}.cls-8{fill:#9e6b41;}.cls-9{fill:#2500df;}.cls-10{fill:#27bdc8;}.cls-11{fill:#f5a51c;}.cls-12{fill:#494949;}.cls-13{fill:#bc824d;}.cls-14{fill:#7a5332;}.cls-15{fill:#fff;}.cls-16{fill:#0f0500;}.cls-17{fill:#0f0a08;}.cls-18{fill:#a84139;}</style><clipPath id="clip-path"><circle class="cls-1" cx="117.01" cy="117.01" r="107.01"/></clipPath></defs><title>avatar-2</title><g id="Ebene_2" data-name="Ebene 2"><g id="Ebene_1-2" data-name="Ebene 1"><circle class="cls-2" cx="117.01" cy="117.01" r="112.01" transform="translate(-23.75 204.01) rotate(-76.72)"/><path class="cls-3" d="M117,10A107,107,0,1,1,10,117,107,107,0,0,1,117,10m0-10A117,117,0,0,0,34.27,199.75,117,117,0,0,0,199.75,34.27,116.25,116.25,0,0,0,117,0Z"/><g class="cls-4"><path class="cls-5" d="M116.56,21.38v-.09c1,0,.74,0,.5.05s-.44-.05,2.54-.05v.09C57.66,23.25,62.32,142.15,66.23,148.57c18.41-6.13,25.34-9.81,50.83-9.9,25.5.09,32.43,3.77,50.83,9.9C171.81,142.15,176.46,23.25,116.56,21.38Z"/><path class="cls-6" d="M123.45,224.74l-.13-1.75c-.19.58-.37,1.18-.57,1.75Z"/><rect class="cls-7" x="95.28" y="136.56" width="42.57" height="21.29"/><polygon class="cls-8" points="131.98 170.01 101.36 170.11 101.14 127.44 131.77 127.34 131.98 170.01"/><path class="cls-9" d="M113.52,104.88h0a.35.35,0,0,1,0-.07A.11.11,0,0,0,113.52,104.88Z"/><path class="cls-10" d="M134.59,155.65s0-.05,0-.07S134.6,155.62,134.59,155.65Z"/><path class="cls-8" d="M91.07,94.71c.79,6.57-1.35,12.18-4.8,12.53S79.39,102.56,78.61,96,80,83.81,83.4,83.46,90.29,88.14,91.07,94.71Z"/><path class="cls-8" d="M144.71,94.71c-.78,6.57,1.36,12.18,4.8,12.53s6.88-4.68,7.67-11.25-1.36-12.18-4.8-12.53S145.5,88.14,144.71,94.71Z"/><polygon class="cls-8" points="103 145.68 70.75 161.25 85.76 208.05 153.88 206.38 149.15 152.91 132.2 147.35 103 145.68"/><path class="cls-7" d="M193.53,206.09c-1.94-21.33-11.77-51.49-26.87-55.75-13.07-3.68-27.8,8.65-27.8,8.65l-22,41-22-41s-14.73-12.33-27.8-8.65C51.91,154.63,42,185.15,40.18,206.5h0c-.08.42-.13,10.88-.13,10.88a7.39,7.39,0,0,0,7.38,7.36H186.37a7.39,7.39,0,0,0,7.38-7.36S193.67,206.64,193.53,206.09Z"/><polygon class="cls-11" points="138.54 148.94 116.88 163.71 95.21 148.94 106.57 224.74 126.01 224.74 138.54 148.94"/><polygon class="cls-12" points="95.63 136.58 79.34 155.6 90.14 159.64 83.68 169.43 104.54 224.74 110.74 224.74 95.63 136.58"/><polygon class="cls-12" points="155.68 155.6 139.4 136.58 124.28 224.74 130.48 224.74 151.35 169.43 144.89 159.64 155.68 155.6"/><path class="cls-13" d="M151.81,94.9c-.68,23.32-25.17,47-34,47-8.45,0-30.63-24-34.14-47-4.78-31.39,8.8-50,34.07-50C145.24,44.86,153,53.65,151.81,94.9Z"/><path class="cls-14" d="M111.9,114c2.08,2.32,9.61,2.32,11.68,0h0a1.83,1.83,0,0,0,.78-1.3c0-.42-.86-.53-1.72-.2h0a10.89,10.89,0,0,1-9.79,0h0c-.85-.33-1.7-.22-1.72.2a1.85,1.85,0,0,0,.77,1.3Z"/><path class="cls-15" d="M109.81,95.54s-2.66-8.07-9.93-8.67c-7.78-.64-9.23,4.51-9.23,4.51s1.94,5.7,9.06,5.8A31,31,0,0,0,109.81,95.54Z"/><path class="cls-5" d="M95.27,89.77a4.88,4.88,0,1,0,6.18-3.07A4.89,4.89,0,0,0,95.27,89.77Z"/><path class="cls-16" d="M96.76,89.7a3.49,3.49,0,1,0,4.42-2.19A3.49,3.49,0,0,0,96.76,89.7Z"/><path class="cls-15" d="M100,89.64a1.25,1.25,0,1,0,1.59-.79A1.26,1.26,0,0,0,100,89.64Z"/><path class="cls-15" d="M98.22,89.49a.67.67,0,1,0,1.26.44.67.67,0,1,0-1.26-.44Z"/><path class="cls-17" d="M109.81,95.54s-4-11.7-19.24-4.47C92,87.62,103.76,79.73,109.81,95.54Z"/><path class="cls-15" d="M126.15,95.54s2.66-8.07,9.92-8.67c7.78-.64,9.23,4.51,9.23,4.51s-1.93,5.7-9.05,5.8A30.9,30.9,0,0,1,126.15,95.54Z"/><path class="cls-5" d="M140.69,89.77a4.89,4.89,0,1,1-6.19-3.07A4.9,4.9,0,0,1,140.69,89.77Z"/><path class="cls-16" d="M139.2,89.7a3.5,3.5,0,1,1-4.43-2.19A3.5,3.5,0,0,1,139.2,89.7Z"/><path class="cls-15" d="M136,89.64a1.25,1.25,0,1,1-1.59-.79A1.25,1.25,0,0,1,136,89.64Z"/><path class="cls-15" d="M137.74,89.49a.67.67,0,1,1-.85-.42A.68.68,0,0,1,137.74,89.49Z"/><path class="cls-17" d="M126.15,95.54s3.95-11.7,19.24-4.47C143.94,87.62,132.2,79.73,126.15,95.54Z"/><path class="cls-18" d="M112.77,119.86c2.62.73,3.58,1.55,5.12,1.57,1.36,0,1.62-.9,4.26-1.49,1.67-.38,6.07.87,8.69-1.46-5.86,10.54-7.92,10.81-13.2,10.88-5,.07-7.4-1.29-12.93-10.94C105.41,119.67,110.66,119.51,112.77,119.86Z"/><path class="cls-5" d="M120,66.74c.51,11.76,7.49,20.73,7.49,20.73a.32.32,0,0,1,0,.13,129,129,0,0,0,32.15-7.1L148.71,50c-2.56.92-6-11.72-8.64-11l-16.32.41L103.2,39,93.51,51l-1.14,1.85C89.24,52,86.14,51.14,83.09,50l-11,30.46c7.43,2.68,10.9,3.34,18.61,4.61C90.81,72.42,106.63,66,106.63,66c-5.29,7.28-6,17.38-5.93,21.19,3.56.42,7.13.7,10.7.82-2.31-11.36,3.4-21.31,3.4-21.31-2.94,9.65-.73,18.93,0,21.38,3,0,6.08-.06,9.11-.25C118,78,120,66.74,120,66.74Z"/></g></g></g></svg>