<svg xmlns="http://www.w3.org/2000/svg" xmlns:xlink="http://www.w3.org/1999/xlink" viewBox="0 0 230.02 230.02"><defs><style>.cls-1{fill:none;}.cls-2{fill:#027d92;}.cls-3{fill:#cce5e9;}.cls-4{clip-path:url(#clip-path);}.cls-5{fill:#994423;}.cls-6{fill:#0b5389;}.cls-7{fill:#2d2b29;}.cls-8{fill:#d1b399;}.cls-9{fill:#2500df;}.cls-10{fill:#27bdc8;}.cls-11{fill:#eb897c;}.cls-12{fill:#fff;}.cls-13{fill:#73362e;}.cls-14{fill:#f9dfc5;}.cls-15{fill:#f4d2b3;}.cls-16{fill:#dbb79a;}.cls-17{fill:#e66b5b;}.cls-18{fill:#211c18;}.cls-19{fill:#219b86;}.cls-20{fill:#0f0500;}.cls-21{fill:#0f0a08;}.cls-22{fill:#b65629;}</style><clipPath id="clip-path"><circle class="cls-1" cx="115.01" cy="115.01" r="107.01"/></clipPath></defs><title>avatar-3</title><g id="Ebene_2" data-name="Ebene 2"><g id="Ebene_1-2" data-name="Ebene 1"><circle class="cls-2" cx="115.01" cy="115.01" r="111.01" transform="translate(-23.35 200.52) rotate(-76.72)"/><path class="cls-3" d="M115,8A107,107,0,1,1,8,115,107,107,0,0,1,115,8m0-8A115,115,0,0,0,33.69,196.33,115,115,0,1,0,196.33,33.69,114.22,114.22,0,0,0,115,0Z"/><g class="cls-4"><path class="cls-5" d="M159.24,87.29c0,34.46-20.31,62.4-45.36,62.4s-45.36-27.94-45.36-62.4S88.82,24.9,113.88,24.9,159.24,52.83,159.24,87.29Z"/><path class="cls-6" d="M120.8,222.38l-.12-1.82c-.2.6-.4,1.23-.6,1.82Z"/><rect class="cls-7" x="93.82" y="130.78" width="44.22" height="22.11"/><polygon class="cls-8" points="131.94 165.53 100.13 165.63 99.9 121.31 131.72 121.2 131.94 165.53"/><path class="cls-9" d="M112.77,97.63h0v0Z"/><path class="cls-10" d="M132.38,150.37a.15.15,0,0,0,0-.07A.15.15,0,0,1,132.38,150.37Z"/><polygon class="cls-8" points="99.57 140.02 66.07 156.19 81.66 204.81 152.42 203.07 147.51 147.53 129.89 141.75 99.57 140.02"/><path class="cls-11" d="M193.59,203c-2-22.15-12.23-53.48-27.91-57.9-13.57-3.82-28.87,9-28.87,9L114,196.64,91.16,154.08s-15.31-12.79-28.88-9c-15.78,4.45-26,36.15-27.95,58.32h0c-.08.44-.13,11.3-.13,11.3a7.68,7.68,0,0,0,7.67,7.65H186.15a7.69,7.69,0,0,0,7.67-7.65S193.73,203.58,193.59,203Z"/><polygon class="cls-12" points="136.49 155.04 113.98 197 91.48 155.04 103.27 222.38 123.47 222.38 136.49 155.04"/><polygon class="cls-13" points="91.91 130.81 71.19 150.56 82.4 154.75 75.69 164.92 101.17 222.38 107.61 222.38 91.91 130.81"/><polygon class="cls-13" points="158.09 150.56 137.37 130.81 121.67 222.38 128.11 222.38 153.58 164.92 146.88 154.75 158.09 150.56"/><path class="cls-9" d="M112.77,89.93v0Z"/><path class="cls-10" d="M133.77,142.67s0,0,0-.06S133.78,142.65,133.77,142.67Z"/><path class="cls-14" d="M87.41,83.17c.82,6.83-1.41,12.66-5,13s-7.14-4.86-8-11.69,1.41-12.65,5-13S86.59,76.36,87.41,83.17Z"/><path class="cls-14" d="M157.55,84.43c-.73,6.83-4.23,12.1-7.82,11.76s-5.89-6.13-5.15-13,4.22-12.1,7.82-11.78S158.28,77.59,157.55,84.43Z"/><path class="cls-15" d="M151.17,83.37c0,24.24-22,53.09-35.29,53.09-15,0-35.46-28.85-35.46-53.09s9.14-52,35.38-52C144.36,31.39,151.17,59.12,151.17,83.37Z"/><path class="cls-16" d="M110.81,110.08c1.77,2,8.19,2,10,0h0a1.61,1.61,0,0,0,.67-1.1c0-.36-.75-.46-1.47-.18h0a9.24,9.24,0,0,1-8.35,0h0c-.73-.28-1.45-.18-1.47.18a1.59,1.59,0,0,0,.66,1.1Z"/><path class="cls-17" d="M111.44,116.3c2.29.63,3.12,1.35,4.45,1.36s1.41-.78,3.71-1.29c1.45-.34,5.28.76,7.56-1.27-5.1,9.16-6.89,9.39-11.49,9.46-4.35.06-6.43-1.12-11.24-9.52C105,116.13,109.61,116,111.44,116.3Z"/><path class="cls-18" d="M90,80.85a8,8,0,0,1,5.83-2.11c3.53.23,13.67,2.74,12.82,5.52-.2.55-2.23-.78-3.08-1.27S96,77.89,90,80.85Z"/><path class="cls-12" d="M108.54,91.5S106,83.67,98.9,83.09C91.36,82.46,90,87.45,90,87.45a9.13,9.13,0,0,0,8.78,5.64A30.29,30.29,0,0,0,108.54,91.5Z"/><path class="cls-19" d="M94.43,85.89a4.74,4.74,0,1,0,6-3A4.75,4.75,0,0,0,94.43,85.89Z"/><path class="cls-20" d="M95.88,85.83a3.39,3.39,0,1,0,4.29-2.13A3.37,3.37,0,0,0,95.88,85.83Z"/><path class="cls-12" d="M99,85.76a1.23,1.23,0,0,0,.76,1.55,1.22,1.22,0,0,0,1.54-.77,1.21,1.21,0,0,0-2.3-.78Z"/><path class="cls-12" d="M97.3,85.63a.64.64,0,0,0,.39.83.66.66,0,0,0,.43-1.24A.63.63,0,0,0,97.3,85.63Z"/><path class="cls-21" d="M108.54,91.5s-3.83-11.36-18.66-4.33C91.27,83.81,102.66,76.16,108.54,91.5Z"/><path class="cls-18" d="M142.66,80.85a8,8,0,0,0-5.84-2.11c-3.53.23-13.66,2.74-12.81,5.52.19.55,2.23-.78,3.08-1.27S136.6,77.89,142.66,80.85Z"/><path class="cls-12" d="M124.08,91.5s2.58-7.83,9.63-8.41c7.54-.63,8.95,4.36,8.95,4.36a9.14,9.14,0,0,1-8.78,5.64A30.22,30.22,0,0,1,124.08,91.5Z"/><path class="cls-19" d="M138.18,85.89a4.74,4.74,0,1,1-6-3A4.74,4.74,0,0,1,138.18,85.89Z"/><path class="cls-20" d="M136.74,85.83a3.39,3.39,0,1,1-4.29-2.13A3.39,3.39,0,0,1,136.74,85.83Z"/><path class="cls-12" d="M133.63,85.76a1.21,1.21,0,1,1-2.3.78,1.21,1.21,0,0,1,2.3-.78Z"/><path class="cls-12" d="M135.32,85.63a.65.65,0,1,1-.82-.41A.63.63,0,0,1,135.32,85.63Z"/><path class="cls-21" d="M124.08,91.5s3.83-11.36,18.66-4.33C141.34,83.81,130,76.16,124.08,91.5Z"/><path class="cls-1" d="M98.85,37.8c-13.33,14-18.34,26-16,45,.33,4,1.66,8,1.33,11.68-.33,4.33-2,8-2.33,12-.34,8.33,4.33,14.67,5,22.68.67,11.33-6.67,19.67-6,30.67.33,5.33,2,10.67,2.33,16,.34,3.66,1,8,.34,11.67-.67,3-2.34,5.33-2.34,8"/><path class="cls-1" d="M129.53,37.14c3.34,3,8,7.33,9.34,12,1.33,4,0,8,2.34,11.67,2.32,4.67,7.66,7.68,9,13,1,4.33-1.33,8-2.66,12-3,7-1.67,13-.67,20.35,1.67,10.33-4,15.33-5.66,25-2,11.34,8,19.34,4.33,31-3.67,11.34-6.34,28.69,1,39"/><path class="cls-1" d="M98.52,31.14c-8.67,5-17,11.34-20,21-2.67,8.34-.34,16.34-2,24.35s-8.67,12-5,21c2,5.66,4,6.67,2,13-1,3.67-3,7.33-3.66,11.34a14.9,14.9,0,0,0,3,10.67c-.67,4.33,1.66,7-1,12.67-2,4.33-4,8.67-4.34,13.67-.33,6.33,1.34,12.34,3,18.34,1.34,5.67.67,10.67,1,16.67"/><path class="cls-1" d="M135.21,35.81c7,5.33,15,13.33,17,22.34,1.33,7.67-.67,15.34.34,23,1.33,9.33,7,13.67,3.66,24-3.34,10-6.33,15.34-3.34,25.67,2.34,6.67,3.68,14.67,2,21.68-2.67,9.34-8.67,19.34-6.67,29.34"/><path class="cls-1" d="M99.52,46.14c-5.67,7.34-10,13-11,22-.67,7.33,1,12.67,1.33,19.67.34,7.67-7,14-4.33,21,1.66,4.67,4.67,7.34,5.66,12.67s0,10-1.33,15c-2,7.33-2,15-3.33,22.34"/><path class="cls-1" d="M133.7,46.37c15.09,16.57,17.54,34.08,6.89,54.6-5.06,9.57-6.41,16.07-3,26.12a77.49,77.49,0,0,1,3.54,34.83"/><path class="cls-22" d="M161.05,112.55c5.13-7.92.31-24.88-1.2-30-2.09-6.53,3.3-11.35-1.59-27.28C154.93,47,139.3,22.57,118,22.57c-26.28,0-43.4,17-46.64,28.62-3.22,12.93.22,22.74-3.68,28.45-2.07,3-6.61,12.35-3.34,19.81,2.6,7.66,3.43,6,1.87,10.25-.65,3.28-5,10.1-3.25,17.75.06,1.88,3,12.45,2.78,12.85.32,3.43-6,18.8-1.71,27.54,3.29,9.51,5.74,16.85,6.47,26.53a92.59,92.59,0,0,0,.57-26.82c-.22-8.88,2.65-12.19,7.33-21.49-5.28,18.54,8.15,33.84,2,49.94,8.85-14.67-.41-33,6.12-45.78a77.26,77.26,0,0,0-.52,9.05c1.57-12.06,4.69-21.16,5.56-34.22.46-9.72-6.13-11.34-4.94-19.72.82-5.13,3.92-13.81.87-21C78.06,62,106.18,62.63,112.24,58.73c-1.16,3.22-6.82,9.65-19.95,13.54a57.56,57.56,0,0,0,42.43-16.85c.73,2.85,3.33,8,5.45,12.49,8.31,15,7.4,21.32,4.14,28.72-4.09,9.45-14,17.07-9.9,28.93.79,2.09.88,19.41,6.19,26.52,4.49,6-6.16,37.15,5.29,49.89-4.17-8.17-3.89-23.32,1-33.62a40.39,40.39,0,0,0,.34,14.13c0-16,17.11-27,13.85-47.4C157.85,124.8,156,121.11,161.05,112.55Z"/></g></g></g></svg>