<svg xmlns="http://www.w3.org/2000/svg" xmlns:xlink="http://www.w3.org/1999/xlink" viewBox="0 0 234.02 234.02"><defs><style>.cls-1{fill:none;}.cls-2{fill:#f96;}.cls-3{fill:#cce5e9;}.cls-4{clip-path:url(#clip-path);}.cls-5{fill:#026168;}.cls-6{fill:#d1b399;}.cls-7{fill:#017d8d;}.cls-8{fill:#8bc4c6;}.cls-9{fill:#683d1f;}.cls-10{fill:#f9dfc5;}.cls-11{fill:#f4d2b3;}.cls-12,.cls-19{fill:#fff;}.cls-13{fill:#9b6743;}.cls-14{fill:#0f0500;}.cls-15{fill:#0f0a08;}.cls-16{fill:#e66b5b;}.cls-17{fill:#c1544c;}.cls-18{fill:#dbb79a;}.cls-19{opacity:0.6;}.cls-20{fill:#93302e;}</style><clipPath id="clip-path"><circle class="cls-1" cx="117.01" cy="117.01" r="107.01"/></clipPath></defs><title>avatar-5</title><g id="Ebene_2" data-name="Ebene 2"><g id="Ebene_1-2" data-name="Ebene 1"><circle class="cls-2" cx="117.01" cy="117.01" r="112.01" transform="translate(-23.75 204.01) rotate(-76.72)"/><path class="cls-3" d="M117,10A107,107,0,1,1,10,117,107,107,0,0,1,117,10m0-10A117,117,0,0,0,34.27,199.75,117,117,0,0,0,199.75,34.27,116.25,116.25,0,0,0,117,0Z"/><g class="cls-4"><path class="cls-5" d="M169.15,145.83c-36.24-10.22-41.35-18.49-41.35-18.49H106.16s-5.11,8.27-41.35,18.49c-15.93,4.49-26.27,36.48-28.21,58.85H197.36C195.42,182.31,185.07,150.32,169.15,145.83Z"/><polygon class="cls-6" points="132.99 172.46 100.53 172.56 100.3 127.34 132.76 127.23 132.99 172.46"/><path class="cls-7" d="M198.2,204.26c-2.06-22.6-12.48-54.57-28.48-59.08-13.84-3.9-23.18-7.52-29.45-10.52a25,25,0,0,1-46.58,0c-6.27,3-15.61,6.62-29.46,10.52-16.1,4.54-26.55,36.88-28.52,59.5h0c-.09.46-.14,11.53-.14,11.53A7.84,7.84,0,0,0,43.41,224h147.2a7.84,7.84,0,0,0,7.83-7.81S198.34,204.84,198.2,204.26Z"/><path class="cls-8" d="M117,162.07c10.18,0,27.07-7.56,32.07-22.79-3.58-1.37-6.61-2.67-9.11-3.87a24.66,24.66,0,0,1-45.92,0c-3,1.43-6.69,3-11.25,4.67a98.2,98.2,0,0,0,6.78,9A35.39,35.39,0,0,0,117,162.07Z"/><path class="cls-9" d="M163,62.45c0,25.88-21,58.5-46.86,58.5S69.31,88.33,69.31,62.45a46.86,46.86,0,1,1,93.72,0Z"/><path class="cls-10" d="M87.78,86.19c.83,7-1.44,12.91-5.09,13.29s-7.29-5-8.13-11.94S76,74.64,79.65,74.27,86.94,79.23,87.78,86.19Z"/><path class="cls-10" d="M159.34,87.47c-.75,7-4.31,12.35-8,12s-6-6.26-5.26-13.22,4.3-12.35,8-12S160.08,80.5,159.34,87.47Z"/><path class="cls-11" d="M153.11,86.39c0,24.73.18,58.05-36,58.05s-36.17-33.32-36.17-58,9.33-53,36.1-53C146.16,33.36,153.11,61.65,153.11,86.39Z"/><path class="cls-12" d="M110.84,86.89s-4.15-8.51-12.26-8.11c-8.69.45-9.52,6.34-9.52,6.34s3,6,10.86,5.08A34.89,34.89,0,0,0,110.84,86.89Z"/><path class="cls-13" d="M93.91,82.66a5.45,5.45,0,1,0,6.39-4.3A5.46,5.46,0,0,0,93.91,82.66Z"/><path class="cls-14" d="M95.55,82.37a3.9,3.9,0,1,0,4.57-3.09A3.89,3.89,0,0,0,95.55,82.37Z"/><path class="cls-12" d="M97.75,82.92a1.38,1.38,0,0,0,1.1,1.63,1.39,1.39,0,1,0-1.1-1.63Z"/><path class="cls-15" d="M110.84,86.89s-6.09-12.34-21.92-2.09C90,80.77,101.81,70.33,110.84,86.89Z"/><path class="cls-12" d="M123.2,86.89s4.15-8.51,12.26-8.11c8.69.45,9.53,6.34,9.53,6.34s-3,6-10.87,5.08A34.89,34.89,0,0,1,123.2,86.89Z"/><path class="cls-13" d="M140.13,82.66a5.45,5.45,0,1,1-6.39-4.3A5.46,5.46,0,0,1,140.13,82.66Z"/><path class="cls-14" d="M138.49,82.37a3.9,3.9,0,1,1-4.56-3.09A3.89,3.89,0,0,1,138.49,82.37Z"/><path class="cls-12" d="M136.29,82.92a1.38,1.38,0,0,1-1.1,1.63,1.39,1.39,0,1,1-.53-2.73A1.39,1.39,0,0,1,136.29,82.92Z"/><path class="cls-15" d="M123.2,86.89s6.09-12.34,21.92-2.09C144,80.77,132.23,70.33,123.2,86.89Z"/><path class="cls-9" d="M152.24,107.06c0,5.18-8.09,14.9-13.59,14.9-6.48,0-9.9-10.43-22.84-10.43S99.46,122,93,122c-5.51,0-11.8-9.72-11.8-14.9s.15,13.53.15,13.53c0,12.76,9.19,18.09,20.59,22.56,8,3,19.75,3,27.76,0,11.41-4.47,22.4-9.8,22.4-22.56C152.09,120.59,152.24,101.9,152.24,107.06Z"/><path class="cls-12" d="M126,120.88s-7.12,2.87-11.58,2.56a19.88,19.88,0,0,1-8.2-2.64,10.45,10.45,0,0,1,3.47-1.1C111.55,119.46,125.78,120.45,126,120.88Z"/><path class="cls-16" d="M106.12,120.81c4,6,5.88,5.1,9.87,5.27,4.2-.33,5.9,1.24,10-5.2a40.2,40.2,0,0,1-9.78,1.18A39.74,39.74,0,0,1,106.12,120.81Z"/><path class="cls-17" d="M119.74,118.46c-2.26,0-2.48.61-3.6.54s-2.06-.46-4.32-.44c-1.86,0-5.77,2.18-5.71,2.27.07-.26,6.68-.75,9.91-.37,3.13-.39,9.86.18,9.93.46C126,120.77,121.27,118.21,119.74,118.46Z"/><path class="cls-18" d="M109.05,109.14c2.83,3.16,13.09,3.16,15.91,0h0a2.56,2.56,0,0,0,1.06-1.78c0-.56-1.18-.72-2.34-.27h0a14.87,14.87,0,0,1-13.35,0h0c-1.15-.45-2.31-.29-2.33.27a2.51,2.51,0,0,0,1,1.78Z"/><path class="cls-19" d="M108.84,95.05a8.45,8.45,0,0,1-5.16,4.61,23.81,23.81,0,0,1-11.53.7,6.71,6.71,0,0,1-5.5-4.52C86,93,85,90,85.62,87.18A5.92,5.92,0,0,1,89.45,83c4.21-1.42,10.8-1.31,15-.59,2.07.42,5.73.84,6.58,3.45C112,88.62,110.26,92.56,108.84,95.05Z"/><path class="cls-1" d="M104.47,82.37c-4.22-.72-10.81-.83-15,.59a5.92,5.92,0,0,0-3.83,4.22C85,90,86,93,86.65,95.84a6.71,6.71,0,0,0,5.5,4.52,23.81,23.81,0,0,0,11.53-.7,8.45,8.45,0,0,0,5.16-4.61c1.42-2.49,3.12-6.43,2.21-9.23C110.2,83.21,106.54,82.79,104.47,82.37Z"/><path class="cls-20" d="M155.2,81.6a.28.28,0,0,1,0-.08.31.31,0,0,0-.18-.19l0,0c-3.1-1.18-16.11-1.78-23.13-1S120.58,83,118.24,83.08s-6.54-1.88-13.62-2.6-20,0-23.11,1.27h-.05a.28.28,0,0,0-.18.19V82c0,.41-.13,2.2-.09,3.21v.15a.91.91,0,0,0,.57.65l0,0c.63.22,1.71,1.22,2.83,6.06.52,2.42,1.16,7.53,6.14,9.06,2.27.67,13.23,2,18.79-2.49a17.2,17.2,0,0,0,3.5-5.17c.62-1.44,2.27-5.61,2.52-6.24A2.4,2.4,0,0,1,118,85.45h.56A2.42,2.42,0,0,1,121,87.24c.25.63,2,4.77,2.59,6.21a17.52,17.52,0,0,0,3.55,5.13c5.62,4.46,16.57,3,18.83,2.27,5-1.59,5.53-6.71,6-9.13,1.07-4.85,2.14-5.86,2.76-6.1h0a.85.85,0,0,0,.55-.66v-.14C155.34,83.79,155.22,82,155.2,81.6ZM108.84,95.05a8.45,8.45,0,0,1-5.16,4.61,23.81,23.81,0,0,1-11.53.7,6.71,6.71,0,0,1-5.5-4.52C86,93,85,90,85.62,87.18A5.92,5.92,0,0,1,89.45,83c4.21-1.42,10.8-1.31,15-.59,2.07.42,5.73.84,6.58,3.45C112,88.62,110.26,92.56,108.84,95.05Zm39,.43a6.73,6.73,0,0,1-5.46,4.59,23.78,23.78,0,0,1-11.53-.56,8.41,8.41,0,0,1-5.21-4.57c-1.45-2.47-3.19-6.38-2.32-9.2.82-2.62,4.48-3.08,6.54-3.53,4.22-.76,10.8-.95,15,.44a5.86,5.86,0,0,1,3.88,4.17C149.46,89.67,148.5,92.61,147.84,95.48Z"/><path class="cls-19" d="M144.89,82.65c-4.23-1.39-10.81-1.2-15-.44-2.06.45-5.72.91-6.54,3.53-.87,2.82.87,6.73,2.32,9.2a8.41,8.41,0,0,0,5.21,4.57,23.78,23.78,0,0,0,11.53.56,6.73,6.73,0,0,0,5.46-4.59c.66-2.87,1.62-5.81.93-8.66A5.86,5.86,0,0,0,144.89,82.65Z"/><path class="cls-9" d="M157.72,52.15c-.59-1.74-11.81-31.61-45.43-28.49C65.44,28,75.2,83.82,81,92.19c2.1,3,2.87-1.9,2.22-4.66,0-.15,0-.28.06-.45.75-7.71,8.78-12,14-16.69,4-3.52,6-8,7.29-13l.27-.21A22.67,22.67,0,0,1,97.46,71.9c-3.93,3.46,1.13,4.26,3.85,1.87A30.29,30.29,0,0,0,111.46,54c.87,1.79,1.75,3.57,2.57,5.39,1.55,3.43,4.54,9.33,2,13-2.9,4.17,3.47,2.94,5.12.57,3.76-5.43,3.7-12.12,2.19-18.5h.05c3.16,9.67,8.66,18.24,17,23.54,2.51,2,8.68,7.25,7.83,9.58-1.07,2.9-4,6-3.21,6.27,0,0,.06,0,.08,0,.26,1.3,3.29,1.24,5.21-.45C162.41,82.76,162.61,66.52,157.72,52.15Z"/><polygon class="cls-12" points="100.86 204.69 86.2 204.69 93.53 194.96 100.86 204.69"/><polygon class="cls-12" points="115.47 204.69 100.81 204.69 108.14 194.96 115.47 204.69"/><polygon class="cls-12" points="130.08 204.69 115.43 204.69 122.76 194.96 130.08 204.69"/><polygon class="cls-12" points="144.7 204.69 130.04 204.69 137.36 194.96 144.7 204.69"/><polygon class="cls-12" points="124.29 188.57 135.51 188.57 129.9 196.01 124.29 188.57"/><polyline class="cls-12" points="110.2 188.57 121.07 188.57 115.46 196.01"/><polygon class="cls-12" points="95.41 188.57 106.63 188.57 101.02 196.01 95.41 188.57"/><path class="cls-8" d="M78.21,182.13h74.48c.61,4.05,1.1,3.56,1.1,3s-.49-1.1-1.1.27H78.21c-.61-1.37-1.1-.87-1.1-.27a1.1,1.1,0,0,0,1.1,1.1Z"/><path class="cls-8" d="M78.21,207.91h74.48c.61,4.11,1.1,3.62,1.1,3s-.49-1.09-1.1.21H78.21c-.61-1.3-1.1-.81-1.1-.21a1.1,1.1,0,0,0,1.1,1.1Z"/></g></g></g></svg>