<svg xmlns="http://www.w3.org/2000/svg" xmlns:xlink="http://www.w3.org/1999/xlink" viewBox="0 0 234.02 234.02"><defs><style>.cls-1{fill:none;}.cls-2{fill:#027d92;}.cls-3{fill:#cce5e9;}.cls-4{clip-path:url(#clip-path);}.cls-5{fill:#93302e;}.cls-6{fill:#f9dfc5;}.cls-7{fill:#d1b399;}.cls-8{fill:#f4d2b3;}.cls-9{fill:#dbb79a;}.cls-10{fill:#fff;}.cls-11{fill:#e66b5b;}.cls-12{fill:#c1544c;}.cls-13{fill:#ed625b;}.cls-14{fill:#9b6743;}.cls-15{fill:#0f0500;}.cls-16{fill:#0f0a08;}</style><clipPath id="clip-path"><circle class="cls-1" cx="117.01" cy="117.01" r="107.01"/></clipPath></defs><title>avatar-1</title><g id="Ebene_2" data-name="Ebene 2"><g id="Ebene_1-2" data-name="Ebene 1"><circle class="cls-2" cx="117.01" cy="117.01" r="112.01" transform="translate(-23.75 204.01) rotate(-76.72)"/><path class="cls-3" d="M117,10A107,107,0,1,1,10,117,107,107,0,0,1,117,10m0-10A117,117,0,0,0,34.27,199.75,117,117,0,0,0,199.75,34.27,116.25,116.25,0,0,0,117,0Z"/><g class="cls-4"><path class="cls-5" d="M169.49,145.59C133,135.31,127.87,127,127.87,127H106.08s-5.14,8.33-41.62,18.61c-16,4.52-26.44,36.73-28.4,59.25H197.89C195.93,182.32,185.52,150.11,169.49,145.59Z"/><path class="cls-6" d="M87.59,89.7c.83,7-1.46,13-5.13,13.38s-7.34-5-8.18-12,1.45-13,5.12-13.37S86.75,82.7,87.59,89.7Z"/><path class="cls-6" d="M159.61,91c-.75,7-4.34,12.43-8,12.09s-6.05-6.3-5.29-13.31,4.34-12.43,8-12.09S160.37,84,159.61,91Z"/><polygon class="cls-7" points="132.18 165.91 99.51 166.01 99.28 120.5 131.95 120.38 132.18 165.91"/><path class="cls-8" d="M153.37,92.88c0,26.28-22.62,49.31-36.25,49.31-15.37,0-36.42-23-36.42-49.31S90.09,36.52,117,36.52C146.37,36.52,153.37,66.59,153.37,92.88Z"/><path d="M145.89,31.31C139.42,24.2,95.94-1.28,76.26,51.05c-6,20.35,5.93,28.54,6.68,33,2.6-11.22-1.38-15,7.8-21.41,12.57-8.71,31.55,5.57,46.07-4.76C144,52.74,153,39.17,145.89,31.31Z"/><path d="M139,52.07s-.75-26.9,18.65-12.19c12.95,9.81-5.82,32.49-4.68,48.65-6.46-21.55-6.8-22.4-6.8-27.15S140.52,50,139,52.07Z"/><path d="M104.46,139.64a20.43,20.43,0,0,0,26.22,0c17.89-5.16,22-20.6,22.11-38.95l-.14.07c-15.41,21.94-16,7.9-35,7.9-16.34,0-19,14.41-35.34-8C82.44,119,86.54,134.47,104.46,139.64Z"/><path class="cls-9" d="M112.74,107.16c1.81,2,8.41,2,10.22,0h0a1.61,1.61,0,0,0,.69-1.14c0-.36-.77-.46-1.51-.18h0a9.53,9.53,0,0,1-8.58,0h0c-.74-.28-1.49-.18-1.5.18a1.59,1.59,0,0,0,.68,1.14Z"/><path class="cls-10" d="M129.66,116.4c0-.33-8.4,6-14,5.17-5.52-1.06-9.82-5.49-9.84-5.25a17.79,17.79,0,0,1,4.15-1C112.24,115.45,129.57,116.61,129.66,116.4Z"/><path class="cls-11" d="M105.75,116.32c4.56,8.76,6.89,9.61,11.89,9.62,5.27-.23,7.34-.12,12-9.54-3.55,1.57-7.54,3-11.8,3S109.36,118,105.75,116.32Z"/><path class="cls-12" d="M122.17,113.49c-2.72,0-3,1-4.34.88-1.54,0-2.49-.74-5.22-.74-2.26.21-7,2.82-6.88,2.72a98.39,98.39,0,0,1,12,.41,92,92,0,0,1,12-.31C129.8,116.57,124,113.35,122.17,113.49Z"/><path class="cls-13" d="M198.75,204.4c-2-22-11.88-52.7-27.08-58.85-.53-.21-1-.47-1.59-.63-13.94-3.93-23.34-7.57-29.66-10.58a25.18,25.18,0,0,1-46.89,0c-6.32,3-15.72,6.65-29.66,10.58-10.8,3.05-19,18.53-24,35.26A131.5,131.5,0,0,0,35.85,199c-.29,2-.53,4-.7,5.86h0c-.08.45-.14,11.6-.14,11.6a7.9,7.9,0,0,0,7.88,7.86h148.2a7.9,7.9,0,0,0,7.88-7.86S198.89,205,198.75,204.4Z"/><path class="cls-10" d="M111.46,88.72s-4.17-8.57-12.34-8.16C90.37,81,89.54,87,89.54,87s3,6,10.93,5.11A35.13,35.13,0,0,0,111.46,88.72Z"/><path class="cls-14" d="M94.43,84.47a5.48,5.48,0,1,0,6.42-4.33A5.48,5.48,0,0,0,94.43,84.47Z"/><path class="cls-15" d="M96.07,84.17a3.92,3.92,0,1,0,4.6-3.1A3.92,3.92,0,0,0,96.07,84.17Z"/><path class="cls-10" d="M98.29,84.73a1.39,1.39,0,0,0,1.1,1.64A1.41,1.41,0,0,0,101,85.26a1.4,1.4,0,1,0-2.75-.53Z"/><path class="cls-16" d="M111.46,88.72s-6.13-12.42-22.06-2.1C90.48,82.57,102.37,72.05,111.46,88.72Z"/><path class="cls-10" d="M123.9,88.72s4.18-8.57,12.34-8.16C145,81,145.83,87,145.83,87s-3,6-10.94,5.11A35.13,35.13,0,0,1,123.9,88.72Z"/><path class="cls-14" d="M140.94,84.47a5.48,5.48,0,1,1-6.43-4.33A5.48,5.48,0,0,1,140.94,84.47Z"/><path class="cls-15" d="M139.3,84.17a3.92,3.92,0,1,1-4.6-3.1A3.92,3.92,0,0,1,139.3,84.17Z"/><path class="cls-10" d="M137.08,84.73A1.39,1.39,0,0,1,136,86.37a1.4,1.4,0,1,1,1.11-1.64Z"/><path class="cls-16" d="M123.9,88.72S130,76.3,146,86.62C144.89,82.57,133,72.05,123.9,88.72Z"/></g></g></g></svg>