<svg xmlns="http://www.w3.org/2000/svg" xmlns:xlink="http://www.w3.org/1999/xlink" viewBox="0 0 234.02 234.87"><defs><style>.cls-1{fill:none;}.cls-2{fill:#fc6;}.cls-3{fill:#cce5e9;}.cls-4{clip-path:url(#clip-path);}.cls-5{fill:#d8cbb1;}.cls-6{fill:#8bc4c6;}.cls-7{fill:#683d1f;}.cls-8{fill:#cc8b06;}.cls-9{fill:#f9dfc5;}.cls-10{fill:#f4d2b3;}.cls-11{fill:#fff;}.cls-12{fill:#9b6743;}.cls-13{fill:#0f0500;}.cls-14{fill:#0f0a08;}.cls-15{fill:#e66b5b;}.cls-16{fill:#c1544c;}.cls-17{fill:#dbb79a;}.cls-18{opacity:0.6;}.cls-19{fill:#db9312;}</style><clipPath id="clip-path"><circle class="cls-1" cx="117.01" cy="117.01" r="107.01"/></clipPath></defs><title>avatar-4</title><g id="Ebene_2" data-name="Ebene 2"><g id="Ebene_1-2" data-name="Ebene 1"><circle class="cls-2" cx="117.01" cy="117.01" r="112.01" transform="translate(-23.75 204.01) rotate(-76.72)"/><path class="cls-3" d="M117,10A107,107,0,1,1,10,117,107,107,0,0,1,117,10m0-10A117,117,0,0,0,34.27,199.75,117,117,0,0,0,199.75,34.27,116.25,116.25,0,0,0,117,0Z"/><g class="cls-4"><path class="cls-5" d="M182.09,173.15l-5.39-3-19.37,10.77v0L138,170.15,118.6,180.92h0L99.29,170.15,79.93,180.92v0l-19.37-10.8-5.49,3A89.46,89.46,0,0,0,45.68,196l14.88-8.27,19.37,10.8v0l19.36-10.77,19.31,10.77h0L138,187.71l19.37,10.8v0l19.37-10.77L191.49,196A89.54,89.54,0,0,0,182.09,173.15Z"/><path class="cls-6" d="M175.91,222.37v0l-20.12,10.84-20.13-10.81v.81l-18.58,10.36v0L98.5,223.19v-.85L78.38,233.18,58.25,222.37v0L40.33,232a7.73,7.73,0,0,0,6,2.88H187.82a7.79,7.79,0,0,0,6-2.88Z"/><path class="cls-7" d="M194.76,216.69c0-.34-.08-.7-.12-1.05l-18.73-10.45L156.3,216.14l-19.61-10.95-19.61,10.95v0L97.52,205.18,77.89,216.13,58.25,205.18l-18.82,10.5c0,.47-.11.95-.15,1.41s-.13,10.53-.14,11.06a7.42,7.42,0,0,0,1.63,4.59L58.25,223v-.2L78.38,234,98.5,222.74v.45l18.58,10.33v0l18.58-10.36v-.4L155.79,234l20.12-11.23V223l17.46,9.71a7.38,7.38,0,0,0,1.62-4.58C195,227.6,194.89,217.27,194.76,216.69Z"/><path class="cls-8" d="M192.83,195.78l-15.37-8.58-20.13,11.2v.35l-20.14-11.23-20.14,11.2h0L97,187.52l-20.14,11.2v-.3L56.67,187.18l-15.48,8.61a126.44,126.44,0,0,0-3.85,20.45l19.33-10.78L76.83,216.7,97,205.46l20.09,11.21h0l20.13-11.23,20.12,11.23,20.13-11.23,19.22,10.72A128,128,0,0,0,192.83,195.78Z"/><path class="cls-6" d="M176.7,166.06a19.2,19.2,0,0,0-8.28-5.29c-1.5-.42-2.92-.83-4.31-1.25-2.43-.72-4.67-1.43-6.78-2.13-3.11-1-5.84-2-8.33-3-1.5-.59-2.92-1.16-4.22-1.71l-.27-.11c-1.33-.56-2.53-1.11-3.64-1.63l-.28-.13a24.8,24.8,0,0,1-1.2,2.49,21.57,21.57,0,0,1-1.3,2.1,30.78,30.78,0,0,1-8.11,7.44l-.5.28c-.42.22-.87.41-1.31.61-.6.27-1.21.53-1.83.74-.36.13-.72.24-1.08.35a22.39,22.39,0,0,1-2.51.59c-.22,0-.44.1-.66.13a23.8,23.8,0,0,1-3.49.27,23,23,0,0,1-3.45-.27c-.28,0-.54-.1-.8-.15a20.77,20.77,0,0,1-2.36-.56c-.4-.11-.79-.24-1.18-.37-.58-.21-1.15-.45-1.71-.7s-.95-.4-1.4-.64l-.5-.29a28.37,28.37,0,0,1-6.17-5l0,0a24.09,24.09,0,0,1-1.72-2.17,25.22,25.22,0,0,1-1.49-2.39h0a24.8,24.8,0,0,1-1.2-2.49c-.85.41-1.81.83-2.79,1.27l-1.3.56-1.91.79-1.62.65c-2.66,1-5.65,2.13-9,3.26-2.13.71-4.39,1.42-6.84,2.15-1.39.42-2.82.83-4.32,1.25A19.11,19.11,0,0,0,60.56,166a39.9,39.9,0,0,0-5.49,7.17l5.49-3.05,19.37,10.8v0L99.11,170.2a33.79,33.79,0,0,0,7.49,4l12,6.69h0L138,170.1l19.37,10.8v0L176.7,170.1l5.39,3A40,40,0,0,0,176.7,166.06Z"/><path class="cls-9" d="M89.35,101.29c.8,6.69-1.39,12.4-4.89,12.76s-7-4.77-7.81-11.46S78,90.19,81.54,89.83,88.55,94.6,89.35,101.29Z"/><path class="cls-9" d="M158.1,102.52c-.71,6.69-4.14,11.86-7.66,11.53s-5.77-6-5.05-12.7,4.14-11.86,7.66-11.54S158.82,95.82,158.1,102.52Z"/><path class="cls-10" d="M152.12,101.48c0,23.76.17,55.77-34.6,55.77s-34.76-32-34.76-55.77,9-50.95,34.69-50.95C145.44,50.53,152.12,77.72,152.12,101.48Z"/><path class="cls-11" d="M111.5,102s-4-8.18-11.77-7.79c-8.35.43-9.15,6.1-9.15,6.1s2.85,5.78,10.44,4.87A33.37,33.37,0,0,0,111.5,102Z"/><path class="cls-12" d="M95.24,97.9a5.23,5.23,0,1,0,6.14-4.13A5.25,5.25,0,0,0,95.24,97.9Z"/><path class="cls-13" d="M96.81,97.62a3.74,3.74,0,1,0,4.39-3A3.74,3.74,0,0,0,96.81,97.62Z"/><path class="cls-11" d="M98.93,98.15a1.31,1.31,0,0,0,1,1.56,1.33,1.33,0,1,0-1-1.56Z"/><path class="cls-14" d="M111.5,102s-5.85-11.85-21-2C91.48,96.08,102.83,86.05,111.5,102Z"/><path class="cls-11" d="M123.38,102s4-8.18,11.78-7.79c8.35.43,9.15,6.1,9.15,6.1s-2.86,5.78-10.44,4.87A33.49,33.49,0,0,1,123.38,102Z"/><path class="cls-12" d="M139.64,97.9a5.23,5.23,0,1,1-6.13-4.13A5.23,5.23,0,0,1,139.64,97.9Z"/><path class="cls-13" d="M138.07,97.62a3.74,3.74,0,1,1-4.38-3A3.72,3.72,0,0,1,138.07,97.62Z"/><path class="cls-11" d="M136,98.15a1.34,1.34,0,1,1-1.57-1.06A1.33,1.33,0,0,1,136,98.15Z"/><path class="cls-14" d="M123.38,102s5.86-11.85,21.06-2C143.4,96.08,132.06,86.05,123.38,102Z"/><path class="cls-7" d="M151.28,121.34c0,5-7.77,14.32-13.06,14.32-6.22,0-9.51-6.3-21.94-6.3s-15.71,6.3-21.93,6.3c-5.29,0-11.33-9.35-11.33-14.32s.14,13,.14,13c0,12.27-5,64.84,32.53,64.84s35.45-52.57,35.45-64.84C151.14,134.33,151.28,116.38,151.28,121.34Z"/><path class="cls-11" d="M126,137.41s-6.84,2.76-11.13,2.47a19.25,19.25,0,0,1-7.87-2.54,10,10,0,0,1,3.33-1.06C112.19,136.05,125.86,137,126,137.41Z"/><path class="cls-15" d="M107,137.35c3.81,5.77,5.65,4.9,9.48,5.06,4-.31,5.67,1.19,9.57-5a38.61,38.61,0,0,1-9.4,1.14A38,38,0,0,1,107,137.35Z"/><path class="cls-16" d="M120.06,135.09c-2.17,0-2.38.59-3.47.52s-2-.44-4.15-.43c-1.78,0-5.54,2.1-5.48,2.19.07-.25,6.42-.72,9.52-.35,3-.38,9.47.16,9.54.43C126.1,137.31,121.53,134.85,120.06,135.09Z"/><path class="cls-17" d="M109.79,127.07c2.71,3,12.57,3,15.28,0h0a2.44,2.44,0,0,0,1-1.71c0-.54-1.14-.69-2.25-.27h0a14.19,14.19,0,0,1-12.82,0h0c-1.11-.42-2.23-.27-2.25.27a2.41,2.41,0,0,0,1,1.71Z"/><path class="cls-7" d="M138.55,43.37c-8-3.19-19.29-13.75-21.47-33.42V9.66c.3.05.29.1.28.15s0-.1,2.82-.15V10c-4.71,19.67-16,30.23-24,33.42-8.75,3.49-21.89,13.14-19.69,31.15a195,195,0,0,0,5.92,30.14s1-31.35,11.29-36.29c12-5.75,35.31-5.75,47.32,0,10.31,4.94,11.29,36.29,11.29,36.29a193.54,193.54,0,0,0,5.92-30.14C160.43,56.51,147.3,46.86,138.55,43.37Z"/><path class="cls-18" d="M108.24,108a9.45,9.45,0,0,1-5.77,5.17,26.71,26.71,0,0,1-12.93.79,7.56,7.56,0,0,1-6.17-5.07c-.78-3.22-1.91-6.5-1.16-9.71a6.65,6.65,0,0,1,4.29-4.73c4.73-1.6,12.11-1.47,16.84-.66,2.33.46,6.44.93,7.39,3.86C111.75,100.8,109.84,105.22,108.24,108Z"/><path class="cls-1" d="M103.34,93.8c-4.73-.81-12.11-.94-16.84.66a6.65,6.65,0,0,0-4.29,4.73c-.75,3.21.38,6.49,1.16,9.71A7.56,7.56,0,0,0,89.54,114a26.71,26.71,0,0,0,12.93-.79,9.45,9.45,0,0,0,5.77-5.17c1.6-2.79,3.51-7.21,2.49-10.35C109.78,94.73,105.67,94.26,103.34,93.8Z"/><path class="cls-19" d="M157.2,94.31a.17.17,0,0,0,0-.08A.36.36,0,0,0,157,94h-.05c-3.51-1.33-18.19-2-26.12-1.11s-12.71,3-15.35,3.09-7.39-2.11-15.38-2.92-22.62,0-26.1,1.42h0a.35.35,0,0,0-.21.22v-1s2.86,2.47,3.1,3.6v.16a.58.58,0,0,0,.43.73l0,0c.69.25,1.88,1.37,3.12,6.79.57,2.72,1.27,8.45,6.78,10.16,2.51.75,14.61,2.28,20.75-2.79,1.3-1.06,2.7-3.41,3.87-5.8.68-1.61,2.5-6.28,2.78-7,.41-1.26,2.67-1,2.67-1H115.8a2.7,2.7,0,0,1,2.75,2c.29.69,2.21,5.34,2.93,7,1.23,2.36,2.69,4.69,4,5.74,6.34,5,18.71,3.35,21.26,2.55,5.6-1.78,6.25-7.52,6.8-10.23,1.21-5.45,2.41-6.58,3.11-6.85h.05a1,1,0,0,0,.62-.73v-.17C157.37,96.77,157.23,94.77,157.2,94.31Zm-49,13.7a9.45,9.45,0,0,1-5.77,5.17,26.71,26.71,0,0,1-12.93.79,7.56,7.56,0,0,1-6.17-5.07c-.78-3.22-1.91-6.5-1.16-9.71a6.65,6.65,0,0,1,4.29-4.73c4.73-1.6,12.11-1.47,16.84-.66,2.33.46,6.44.93,7.39,3.86C111.75,100.8,109.84,105.22,108.24,108Zm43.73.48a7.52,7.52,0,0,1-6.12,5.15,26.76,26.76,0,0,1-12.92-.63,9.43,9.43,0,0,1-5.84-5.12c-1.63-2.77-3.59-7.16-2.61-10.32.92-2.93,5-3.45,7.34-3.95,4.73-.86,12.11-1.07,16.85.48A6.59,6.59,0,0,1,153,98.78C153.79,102,152.72,105.27,152,108.49Z"/><path class="cls-18" d="M148.67,94.1c-4.74-1.55-12.12-1.34-16.85-.48-2.32.5-6.42,1-7.34,3.95-1,3.16,1,7.55,2.61,10.32a9.43,9.43,0,0,0,5.84,5.12,26.76,26.76,0,0,0,12.92.63,7.52,7.52,0,0,0,6.12-5.15c.75-3.22,1.82-6.51,1.05-9.71A6.59,6.59,0,0,0,148.67,94.1Z"/></g></g></g></svg>