<svg xmlns="http://www.w3.org/2000/svg" viewBox="0 0 34 23.88"><defs><style>.cls-1{fill:#027d92;}</style></defs><title>burger-menu</title><g id="Ebene_2" data-name="Ebene 2"><g id="Ebene_1-2" data-name="Ebene 1"><path class="cls-1" d="M29.64,23.88H4.36c-1,0-1.86-.6-1.86-1.34v-.32c0-.74.83-1.34,1.86-1.34H29.64c1,0,1.86.6,1.86,1.34v.32C31.5,23.28,30.67,23.88,29.64,23.88Zm2.18-10.44H2.18C1,13.44,0,12.84,0,12.1v-.32c0-.74,1-1.34,2.18-1.34H31.82c1.2,0,2.18.6,2.18,1.34v.32C34,12.84,33,13.44,31.82,13.44ZM28.33,3H5.67A1.53,1.53,0,0,1,4,1.66V1.34A1.53,1.53,0,0,1,5.67,0H28.33A1.53,1.53,0,0,1,30,1.34v.32A1.53,1.53,0,0,1,28.33,3Z"/></g></g></svg>