<svg xmlns="http://www.w3.org/2000/svg" viewBox="0 0 154 155"><defs><style>.cls-1{fill:none;}.cls-2{fill:#fef45b;}.cls-3{fill:#f0c30f;}.cls-4{fill:#e57e22;}.cls-5{fill:#f29b12;}.cls-6{fill:#fef35a;}</style></defs><title>erklaerfilm-thumb</title><g id="Ebene_2" data-name="Ebene 2"><g id="Ebene_3" data-name="Ebene 3"><path class="cls-1" d="M131.49,0c1.24,1.7,2.44,3.44,3.57,5.26h0a81,81,0,0,1,14.14,34.6h0a78.37,78.37,0,0,1,0,36.67h0a81.05,81.05,0,0,1-14.12,34.6A81.93,81.93,0,0,1,108.21,138h0a80.18,80.18,0,0,1-29.89,13.2,87.89,87.89,0,0,1-46.09,0h0A80.55,80.55,0,0,1,2.34,138h0c-.8-.49-1.56-1-2.34-1.54V155H154V0Z"/><path class="cls-2" d="M8.18,25.5h0a46.92,46.92,0,0,1,14.4-14.41h0c.5-2.4-1.32-3.85-2.4-5.52L16.54,0H0V21.35c.89.57,1.77,1.16,2.66,1.74C4.33,24.17,5.79,26,8.18,25.5Z"/><path class="cls-2" d="M88,11.09h0a46.81,46.81,0,0,1,14.4,14.41h0c2.4.49,3.85-1.33,5.52-2.41C117,17.21,126,11.22,135.06,5.26h0c-1.13-1.82-2.33-3.56-3.57-5.26H94c-1.22,1.86-2.44,3.71-3.65,5.57C89.31,7.24,87.49,8.69,88,11.09Z"/><path class="cls-3" d="M112,69.63h0c-2.29,7.48-4.49,15-9.61,21.22h0c2.39-.44,3.85,1.36,5.53,2.44,9.1,5.89,18.13,11.88,27.18,17.84h0a81.05,81.05,0,0,0,14.12-34.6h0L115.72,70.2C114.48,70,113.22,69.82,112,69.63Z"/><path class="cls-3" d="M103,26.28c4.67,6.07,6.8,13.28,9,20.47h0q16.28-3.15,32.53-6.28c1.55-.3,3.13-.41,4.69-.61h0a81,81,0,0,0-14.14-34.6h0c-9.28,8.4-20.08,14.57-30.7,21A1.8,1.8,0,0,1,103,26.28Z"/><path class="cls-3" d="M102.37,25.5h0q.31.39.6.78a1.8,1.8,0,0,0,1.39,0c10.62-6.42,21.42-12.59,30.7-21-9,6-18.07,12-27.17,17.83C106.22,24.17,104.77,26,102.37,25.5Z"/><path class="cls-3" d="M3.7,25.16Q1.84,23.95,0,22.71V42.18c1.8-5.64,3.91-11.13,7.59-15.92A5.06,5.06,0,0,1,3.7,25.16Z"/><path class="cls-3" d="M7.59,26.26l.59-.76h0c-2.39.48-3.85-1.33-5.52-2.41C1.77,22.51.89,21.92,0,21.35v1.36q1.85,1.23,3.7,2.45A5.06,5.06,0,0,0,7.59,26.26Z"/><path class="cls-3" d="M66.72,1.5h0c7.19,2.19,14.41,4.33,20.48,9a5.08,5.08,0,0,1,1.11-3.88Q90.49,3.3,92.68,0H66.93l-.21,1.5Z"/><path class="cls-3" d="M87.2,10.49c.26.2.52.39.77.6h0c-.48-2.4,1.34-3.85,2.41-5.52C91.59,3.71,92.81,1.86,94,0H92.68q-2.19,3.3-4.37,6.61A5.08,5.08,0,0,0,87.2,10.49Z"/><path class="cls-3" d="M23.37,10.48c6.07-4.65,13.29-6.79,20.47-9h0c-.09-.5-.19-1-.29-1.49H17.83c1.86,3,3.67,6.07,5.51,9.11A1.75,1.75,0,0,1,23.37,10.48Z"/><path class="cls-3" d="M22.58,11.09h0l.79-.61a1.75,1.75,0,0,0,0-1.37C21.5,6.07,19.69,3,17.83,0H16.54l3.64,5.57C21.26,7.24,23.08,8.69,22.58,11.09Z"/><path class="cls-2" d="M131.09,110.1q-14.41-9.54-28.76-19.19c-3.61,6.19-9.28,10.66-13.59,16.27,3.41,7.72,9,14.06,13.35,21.21,2,3.24,4.08,6.39,6.12,9.58h0a81.93,81.93,0,0,0,26.86-26.84h0C133.49,111.78,132.27,110.88,131.09,110.1Z"/><path class="cls-2" d="M107.89,93.29c-1.68-1.08-3.14-2.88-5.53-2.44h0l0,.06q14.33,9.68,28.76,19.19c1.18.78,2.4,1.68,4,1h0C126,105.17,117,99.18,107.89,93.29Z"/><path class="cls-2" d="M148.48,40.48c-11.85,3.08-23.74,6-36,7a3.82,3.82,0,0,1-.46-.21c.89,7.29,1.3,14.58,0,21.87l.36-.17c2.44-.7,4.76.15,7.09.6,8,1.58,16,3.2,24,4.8,2,.41,4.17.51,5.72,2.18h0a78.37,78.37,0,0,0,0-36.67h0C149,40.09,148.76,40.41,148.48,40.48Z"/><path class="cls-2" d="M119.5,69.55c-2.33-.45-4.65-1.3-7.09-.6l-.36.17c0,.17,0,.34-.08.51h0c1.25.19,2.51.33,3.75.57l33.47,6.33c-1.55-1.67-3.71-1.77-5.72-2.18C135.48,72.75,127.5,71.13,119.5,69.55Z"/><path class="cls-2" d="M112,46.75h0l.06.5a3.82,3.82,0,0,0,.46.21c12.25-1,24.14-3.9,36-7,.28-.07.49-.39.71-.62-1.56.2-3.14.31-4.69.61Q128.24,43.58,112,46.75Z"/><path class="cls-2" d="M44.35,1.42a73,73,0,0,1,21.88,0c-.07-.12-.13-.24-.19-.37A7.94,7.94,0,0,1,65.83,0H44.45c0,.33.07.65.1,1A4.48,4.48,0,0,1,44.35,1.42Z"/><path class="cls-2" d="M66.23,1.43l.49.07h0L66.93,0h-1.1A7.94,7.94,0,0,0,66,1.06C66.1,1.19,66.16,1.31,66.23,1.43Z"/><path class="cls-2" d="M43.84,1.49l.51-.07a4.48,4.48,0,0,0,.2-.44c0-.33-.07-.65-.1-1h-.9c.1.5.2,1,.29,1.49Z"/><path class="cls-2" d="M2.34,138q8.58-13.11,17.15-26.23c.94-1.45,1.65-3,2.46-4.58h0c-4.33-6-10.79-10.08-14.67-16.46h0C4.79,92.06,2.38,93.52,0,95v41.41c.78.52,1.54,1.05,2.34,1.54Z"/><path class="cls-3" d="M0,74.71V93.86c2.29-1.27,4.62-2.49,7-3.61A77.44,77.44,0,0,1,0,74.71Z"/><path class="cls-3" d="M7,90.25c-2.39,1.12-4.72,2.34-7,3.61V95c2.38-1.51,4.79-3,7.28-4.32Z"/><path class="cls-4" d="M78.28,136.92l-7.69-.06h0l-3.7,0H43.67l-3.71,0-7.69.06h0q0,7.11,0,14.24a87.89,87.89,0,0,0,46.09,0l0-14.25Z"/><path class="cls-3" d="M31.8,137a4.58,4.58,0,0,1,.43-.34c-1.28-9.07-3.46-17.87-7.85-26a10,10,0,0,0-1.88-3.07A7.4,7.4,0,0,1,21,111.62Q13,123.8,4.84,135.89A4.22,4.22,0,0,1,2.34,138h0a80.55,80.55,0,0,0,29.89,13.19h0C29.86,146.51,30.39,141.76,31.8,137Z"/><path class="cls-3" d="M4.84,135.89Q13,123.79,21,111.62a7.4,7.4,0,0,0,1.48-4.06,3.85,3.85,0,0,0-.55-.39c-.81,1.53-1.52,3.13-2.46,4.58Q11,124.89,2.34,138A4.22,4.22,0,0,0,4.84,135.89Z"/><path class="cls-3" d="M32.27,136.92h0c0-.09,0-.19,0-.28a4.58,4.58,0,0,0-.43.34c-1.41,4.78-1.94,9.53.43,14.19h0q0-7.12,0-14.24Z"/><path class="cls-3" d="M106.62,137c-6.1-8.7-12-17.55-17.71-26.49a5.1,5.1,0,0,1-.82-2.4c-5.86,8.58-8.31,18.36-9.76,28.48l.37.28c1.52,4.8,2,9.58-.38,14.29A80.18,80.18,0,0,0,108.21,138h0A2.62,2.62,0,0,1,106.62,137Z"/><path class="cls-3" d="M88.74,107.18l-.65.94a5.1,5.1,0,0,0,.82,2.4c5.74,8.94,11.61,17.79,17.71,26.49a2.62,2.62,0,0,0,1.59,1c-2-3.19-4.16-6.34-6.12-9.58C97.76,121.24,92.15,114.9,88.74,107.18Z"/><path class="cls-3" d="M78.7,136.88l-.37-.28a3.06,3.06,0,0,1,0,.32h0l0,14.25C80.7,146.46,80.22,141.68,78.7,136.88Z"/><path class="cls-5" d="M7.36,90.22c4.61,2.86,6.55,8.38,11.19,11.25a8,8,0,0,1,3.94,5.69h0a3.28,3.28,0,0,1,2.42,2A65.19,65.19,0,0,1,33,134.74a2.71,2.71,0,0,1-.38,1.62c2.1-1.25,4.53-.8,6.86-.83h.27c-1.56-11.15-4.23-21.92-10.51-31.56-2.65-4.08-6.21-7.26-9.57-10.66C.63,74,.38,42.6,19.63,23.46c14.31-14.24,31.69-19,51-12.59C89.21,17,100.56,30.25,104.29,49.66c3,15.86-1,30.34-12,41.57a74.85,74.85,0,0,0-21.56,44.3h.18c2.36,0,4.8-.41,7,.81a4.31,4.31,0,0,1-.31-2.55,62.43,62.43,0,0,1,7.55-23.29c.71-1.29,1.29-2.94,3-3.25A75.42,75.42,0,0,1,102.31,90.9l-.25-.17c3-6.69,6.51-13.18,8.6-20.28a2.11,2.11,0,0,1,1-1.12,3.34,3.34,0,0,1-.71-2.7,64.7,64.7,0,0,0-.11-16.45,3.67,3.67,0,0,1,.83-3.14,4.65,4.65,0,0,1-1.81-2.77,61,61,0,0,0-7.46-17,1.65,1.65,0,0,1-.17-1.45c-4.79-5-9.62-9.9-14.67-14.61a2.68,2.68,0,0,1-2.24-.62,54.38,54.38,0,0,0-15.6-6.86,5.55,5.55,0,0,1-3.29-2,3.34,3.34,0,0,1-2.72.73,73.39,73.39,0,0,0-16.89,0,3.33,3.33,0,0,1-2.7-.73,4.65,4.65,0,0,1-2.77,1.81,61.29,61.29,0,0,0-17,7.47,1.63,1.63,0,0,1-1.44.17C18,16,13.05,20.85,8.34,25.9a2.7,2.7,0,0,1-.63,2.25A54.88,54.88,0,0,0,.85,43.74,8.19,8.19,0,0,1,0,45.83V71.39C2.15,74.75,2.32,79,4.22,82.49,5.52,84.89,7.77,87.11,7.36,90.22Z"/><path class="cls-5" d="M22.58,11.09A46.92,46.92,0,0,0,8.18,25.5h0a2.56,2.56,0,0,1,.16.4C13.05,20.85,18,16,23,11.23a3.44,3.44,0,0,1-.37-.14Z"/><path class="cls-5" d="M102.37,25.5A46.81,46.81,0,0,0,88,11.09h0a1.45,1.45,0,0,1-.4.16c5.05,4.71,9.88,9.64,14.67,14.61a1.74,1.74,0,0,1,.13-.36Z"/><path class="cls-5" d="M102.36,90.85c5.12-6.21,7.32-13.74,9.61-21.22h0q-.16-.15-.3-.3a2.11,2.11,0,0,0-1,1.12c-2.09,7.1-5.58,13.59-8.6,20.28l.25.17,0-.05Z"/><path class="cls-5" d="M112,46.75c-2.2-7.19-4.33-14.4-9-20.47l-.47-.14a3.45,3.45,0,0,1-.26-.28,1.65,1.65,0,0,0,.17,1.45,61,61,0,0,1,7.46,17A4.65,4.65,0,0,0,111.68,47a2.65,2.65,0,0,1,.29-.29Z"/><path class="cls-5" d="M103,26.28q-.28-.39-.6-.78a1.74,1.74,0,0,0-.13.36,3.45,3.45,0,0,0,.26.28Z"/><path class="cls-5" d="M7.71,28.15a2.7,2.7,0,0,0,.63-2.25l-.18.19a3.08,3.08,0,0,1-.57.17C3.91,31.05,1.8,36.54,0,42.18v3.65a8.19,8.19,0,0,0,.85-2.09A54.88,54.88,0,0,1,7.71,28.15Z"/><path class="cls-5" d="M7.59,26.26a3.08,3.08,0,0,0,.57-.17l.18-.19a2.56,2.56,0,0,0-.16-.4Z"/><path class="cls-5" d="M87.2,10.49c-6.07-4.66-13.29-6.8-20.48-9h0l-.28.28a5.55,5.55,0,0,0,3.29,2,54.38,54.38,0,0,1,15.6,6.86,2.68,2.68,0,0,0,2.24.62l-.2-.18A4.23,4.23,0,0,1,87.2,10.49Z"/><path class="cls-5" d="M87.2,10.49a4.23,4.23,0,0,0,.17.58l.2.18a1.45,1.45,0,0,0,.4-.16C87.72,10.88,87.46,10.69,87.2,10.49Z"/><path class="cls-5" d="M43.84,1.49c-7.18,2.2-14.4,4.34-20.47,9-.05.17-.1.33-.14.49a3.45,3.45,0,0,0-.28.26,1.63,1.63,0,0,0,1.44-.17,61.29,61.29,0,0,1,17-7.47,4.65,4.65,0,0,0,2.77-1.81,2.65,2.65,0,0,1-.29-.29Z"/><path class="cls-5" d="M23.37,10.48l-.79.61a3.44,3.44,0,0,0,.37.14,3.45,3.45,0,0,1,.28-.26C23.27,10.81,23.32,10.65,23.37,10.48Z"/><path class="cls-5" d="M102.33,90.91h0a75.42,75.42,0,0,0-14.15,16.35,2.63,2.63,0,0,1,.58-.07C93.05,101.57,98.72,97.1,102.33,90.91Z"/><path class="cls-5" d="M102.36,90.85l0,.05h0Z"/><path class="cls-5" d="M112,47.25a4.05,4.05,0,0,1-.35-.21,3.67,3.67,0,0,0-.83,3.14A64.7,64.7,0,0,1,111,66.63a3.34,3.34,0,0,0,.71,2.7,3.59,3.59,0,0,1,.38-.21C113.33,61.83,112.92,54.54,112,47.25Z"/><path class="cls-5" d="M112.05,69.12a3.59,3.59,0,0,0-.38.21q.14.15.3.3C112,69.46,112,69.29,112.05,69.12Z"/><path class="cls-5" d="M112,46.75a2.65,2.65,0,0,0-.29.29,4.05,4.05,0,0,0,.35.21Z"/><path class="cls-5" d="M44.35,1.42a3.13,3.13,0,0,1-.22.36,3.33,3.33,0,0,0,2.7.73,73.39,73.39,0,0,1,16.89,0,3.34,3.34,0,0,0,2.72-.73,2.5,2.5,0,0,1-.21-.35A73,73,0,0,0,44.35,1.42Z"/><path class="cls-5" d="M66.23,1.43a2.5,2.5,0,0,0,.21.35l.28-.28Z"/><path class="cls-5" d="M43.84,1.49a2.65,2.65,0,0,0,.29.29,3.13,3.13,0,0,0,.22-.36Z"/><path class="cls-5" d="M22.49,107.17h0a8,8,0,0,0-3.94-5.69C13.91,98.6,12,93.08,7.36,90.22c0,.16-.05.32-.08.49h0c3.88,6.38,10.34,10.48,14.67,16.46h0A2.44,2.44,0,0,1,22.49,107.17Z"/><path class="cls-5" d="M7.24,90.14l.12.08c.41-3.11-1.84-5.33-3.14-7.73C2.32,79,2.15,74.75,0,71.39v3.32A77.44,77.44,0,0,0,7,90.25Z"/><path class="cls-5" d="M7.36,90.22l-.12-.08L7,90.25l.27.46h0C7.31,90.54,7.34,90.38,7.36,90.22Z"/><path class="cls-5" d="M40,136.86l-.18-1.33h-.27c-2.33,0-4.76-.42-6.86.83a3.07,3.07,0,0,1-.38.56Z"/><path class="cls-5" d="M78.28,136.92a2.89,2.89,0,0,1-.38-.58c-2.16-1.22-4.6-.79-7-.81h-.18c-.05.45-.12.88-.17,1.33Z"/><path class="cls-5" d="M24.38,110.63c4.39,8.14,6.57,16.94,7.85,26l.42-.28a2.71,2.71,0,0,0,.38-1.62,65.19,65.19,0,0,0-8.12-25.59,3.28,3.28,0,0,0-2.42-2c0,.13,0,.26,0,.39A10,10,0,0,1,24.38,110.63Z"/><path class="cls-5" d="M22.49,107.17a2.44,2.44,0,0,0-.54,0h0a3.85,3.85,0,0,1,.55.39C22.5,107.43,22.5,107.3,22.49,107.17Z"/><path class="cls-5" d="M32.27,136.92h0a3.07,3.07,0,0,0,.38-.56l-.42.28C32.24,136.73,32.26,136.83,32.27,136.92Z"/><path class="cls-5" d="M88.09,108.12a5,5,0,0,1,0-.77.36.36,0,0,1,.07-.1c-1.73.31-2.31,2-3,3.25a62.43,62.43,0,0,0-7.55,23.29,4.31,4.31,0,0,0,.31,2.55l.43.26C79.78,126.48,82.23,116.7,88.09,108.12Z"/><path class="cls-5" d="M88.09,108.12l.65-.94a2.63,2.63,0,0,0-.58.07.36.36,0,0,0-.07.1A5,5,0,0,0,88.09,108.12Z"/><path class="cls-5" d="M78.28,136.92a3.06,3.06,0,0,0,0-.32l-.43-.26a2.89,2.89,0,0,0,.38.58Z"/><path class="cls-2" d="M43.67,135.53q.12-26.2.22-52.41h0c-.06-1.9-.13-3.8-.2-5.7-3.46-.22-7,.45-10.3-1.33-5.28-2.82-8.17-9-6.54-14.49,1.77-6,7.61-9.92,13.49-9.09A12.6,12.6,0,0,1,51.5,64.35c.15,2-1.62,5.12,2.58,5.38,3.27.2,5.27-.1,5.15-4.43-.22-7.75,5.38-13,12.9-12.86A12.39,12.39,0,0,1,84.06,64.91c0,7.13-5.37,12.33-12.89,12.47-1.44,0-2.87,0-4.31,0h0c-.06,1.9-.13,3.8-.2,5.7h0q.11,26.21.22,52.42c1.07,0,2.14,0,3.22,0-.78-2.87.22-5.74.84-8.46,3-13,8.59-24.61,18.3-34.16,14.4-14.16,18.62-35.35,11.05-53.09A49.17,49.17,0,0,0,53.74,9.54c-31.42.61-54.45,32.83-45,62.9a46.41,46.41,0,0,0,13,20.94c11.55,10.58,17,24.12,18.78,39.36a9,9,0,0,1,.14,2.77C41.63,135.49,42.65,135.48,43.67,135.53Z"/><path class="cls-2" d="M70.1,135.52c-1.08,0-2.15,0-3.22,0v1.3h0l3.7,0h0A8,8,0,0,1,70.1,135.52Z"/><path class="cls-2" d="M40.61,135.51a2.82,2.82,0,0,1-.65,1.35l3.71,0h0v-1.31C42.65,135.48,41.63,135.49,40.61,135.51Z"/><path class="cls-2" d="M40.47,132.74C38.64,117.5,33.24,104,21.69,93.38a46.41,46.41,0,0,1-13-20.94c-9.43-30.07,13.6-62.29,45-62.9a49.17,49.17,0,0,1,46.55,30.27c7.57,17.74,3.35,38.93-11.05,53.09-9.71,9.55-15.31,21.15-18.3,34.16-.62,2.72-1.62,5.59-.84,8.46h.66a74.85,74.85,0,0,1,21.56-44.3c11-11.23,15-25.71,12-41.57C100.56,30.25,89.21,17,70.62,10.87c-19.3-6.39-36.68-1.65-51,12.59C.38,42.6.63,74,19.7,93.31c3.36,3.4,6.92,6.58,9.57,10.66,6.28,9.64,9,20.41,10.51,31.56l.83,0A9,9,0,0,0,40.47,132.74Z"/><path class="cls-2" d="M40.61,135.51l-.83,0,.18,1.33A2.82,2.82,0,0,0,40.61,135.51Z"/><path class="cls-2" d="M70.59,136.86h0c0-.45.12-.88.17-1.33H70.1A8,8,0,0,0,70.59,136.86Z"/><path class="cls-2" d="M59.25,83.12c-.07-1.9-.13-3.8-.2-5.7H51.51l-.21,5.7h0q.12,26.21.22,52.41c2.5-.07,5-.08,7.5,0h0l.22-52.41Z"/><path class="cls-2" d="M59,135.53c-2.5-.08-5-.07-7.5,0v1.31H59v-1.31Z"/><path class="cls-5" d="M50,83.6v-.48H45.16c0,.22,0,.43,0,.64.31,15.92.1,31.83.11,47.74a9,9,0,0,1-.68,4q3-.08,6,0a9.16,9.16,0,0,1-.67-4C50,115.52,49.71,99.56,50,83.6Z"/><path class="cls-5" d="M44.59,135.53a5.12,5.12,0,0,1-.92,1.31h7.86a5,5,0,0,1-.93-1.32Q47.6,135.46,44.59,135.53Z"/><path class="cls-5" d="M45.16,83.76c0-.21,0-.42,0-.64H43.89q-.11,26.21-.22,52.41h.92a9,9,0,0,0,.68-4C45.26,115.59,45.47,99.68,45.16,83.76Z"/><path class="cls-5" d="M43.82,135.54h-.15v1.31a5.12,5.12,0,0,0,.92-1.31Z"/><path class="cls-5" d="M50,83.12v.48c-.32,16-.08,31.92-.1,47.88a9.16,9.16,0,0,0,.67,4h.92q-.1-26.2-.22-52.41Z"/><path class="cls-5" d="M51.43,135.53H50.6a5,5,0,0,0,.93,1.32v-1.31Z"/><path class="cls-5" d="M65.38,83.88c0-.25,0-.5,0-.76H60.52v.36c.31,16,.1,32,.11,48a9,9,0,0,1-.68,4c2,0,4-.05,6,0a8.91,8.91,0,0,1-.68-4C65.3,115.63,65.08,99.76,65.38,83.88Z"/><path class="cls-5" d="M60,135.52a4.92,4.92,0,0,1-.92,1.32h7.86a4.88,4.88,0,0,1-.92-1.31C64,135.47,62,135.48,60,135.52Z"/><path class="cls-5" d="M65.39,83.12c0,.26,0,.51,0,.76-.3,15.88-.08,31.75-.09,47.63a8.91,8.91,0,0,0,.68,4h.91q-.1-26.2-.22-52.42Z"/><path class="cls-5" d="M66.63,135.54H66a4.88,4.88,0,0,0,.92,1.31v-1.3Z"/><path class="cls-5" d="M60.52,83.48v-.36H59.25L59,135.53H60a9,9,0,0,0,.68-4C60.62,115.51,60.83,99.49,60.52,83.48Z"/><path class="cls-5" d="M59,135.53v1.31a4.92,4.92,0,0,0,.92-1.32Z"/><path class="cls-5" d="M51.17,77.21a7.51,7.51,0,0,1,8.1-.11c.08.11.14.21.21.32h7c1.37-1.5,3.38-1.15,5.19-1.34,6.73-.71,11.21-5.35,11-11.49A11.13,11.13,0,0,0,72.5,53.83c-6.53-.32-11.27,4-12.07,11-.27,2.3.19,4.93-2.92,5.88-4.15,1.26-7-.4-7.26-4.75s-1.47-7.84-5.19-10.21a11,11,0,0,0-17,11.54A11.33,11.33,0,0,0,37.76,76c2.13.34,4.56-.34,6.31,1.44h7C51.09,77.35,51.12,77.28,51.17,77.21ZM66.77,66c.09-3.33,1.36-5.75,4.93-5.74a4.29,4.29,0,0,1,4.56,5c-.3,3.57-2.93,4.61-6.41,4.47C67,70.21,66.7,68.39,66.77,66ZM40.08,69.74c-3.31-.1-5.76-1.31-5.79-4.89a4.28,4.28,0,0,1,4.94-4.61c3.57.27,4.65,2.87,4.52,6.38C44.25,69.36,42.56,69.82,40.08,69.74Z"/><path class="cls-5" d="M37.76,76a11.33,11.33,0,0,1-9.67-8.72,11,11,0,0,1,17-11.54c3.72,2.37,4.89,6,5.19,10.21s3.11,6,7.26,4.75c3.11-1,2.65-3.58,2.92-5.88.8-7,5.54-11.29,12.07-11A11.13,11.13,0,0,1,82.72,64.59c.16,6.14-4.32,10.78-11,11.49-1.81.19-3.82-.16-5.19,1.34h.38c1.44,0,2.87,0,4.31,0,7.52-.14,12.89-5.34,12.89-12.47A12.39,12.39,0,0,0,72.13,52.44C64.61,52.32,59,57.55,59.23,65.3c.12,4.33-1.88,4.63-5.15,4.43-4.2-.26-2.43-3.41-2.58-5.38A12.6,12.6,0,0,0,40.34,52.51c-5.88-.83-11.72,3.11-13.49,9.09-1.63,5.51,1.26,11.67,6.54,14.49,3.32,1.78,6.84,1.11,10.3,1.33h.38C42.32,75.64,39.89,76.32,37.76,76Z"/><path class="cls-5" d="M59.27,77.1a7.51,7.51,0,0,0-8.1.11c-.05.07-.08.14-.13.21h8.44C59.41,77.31,59.35,77.21,59.27,77.1Z"/><path class="cls-4" d="M59.77,77.86a8.86,8.86,0,0,1,.76,4.53,5.4,5.4,0,0,1,4.86,0,10.75,10.75,0,0,1,.67-4.45l.06-.07A6.12,6.12,0,0,1,59.77,77.86Z"/><path class="cls-4" d="M66.06,77.94a10.75,10.75,0,0,0-.67,4.45,8.26,8.26,0,0,1,1.27.73h0c.07-1.9.14-3.8.2-5.7-.25.17-.5.31-.74.45Z"/><path class="cls-4" d="M60.53,82.39a8.86,8.86,0,0,0-.76-4.53c-.24-.14-.48-.28-.72-.44.07,1.9.13,3.8.2,5.7h0A8.34,8.34,0,0,1,60.53,82.39Z"/><path class="cls-4" d="M60.53,82.39c0,.24,0,.49,0,.73h4.87v-.73A5.4,5.4,0,0,0,60.53,82.39Z"/><path class="cls-4" d="M65.39,82.39v.73h1.27A8.26,8.26,0,0,0,65.39,82.39Z"/><path class="cls-4" d="M59.25,83.12h1.27c0-.24,0-.49,0-.73A8.34,8.34,0,0,0,59.25,83.12Z"/><path class="cls-4" d="M59.77,77.86a6.12,6.12,0,0,0,6.35,0,2.73,2.73,0,0,1,.36-.45h-7A4.17,4.17,0,0,1,59.77,77.86Z"/><path class="cls-4" d="M66.48,77.42a2.73,2.73,0,0,0-.36.45c.24-.14.49-.28.74-.45h-.38Z"/><path class="cls-4" d="M59.48,77.42h-.43c.24.16.48.3.72.44A4.17,4.17,0,0,0,59.48,77.42Z"/><path class="cls-4" d="M50,82.38a9,9,0,0,1,.75-4.52,6.08,6.08,0,0,1-6.33,0,10.19,10.19,0,0,1,.72,4.52A5.43,5.43,0,0,1,50,82.38Z"/><path class="cls-4" d="M45.16,82.39a10.19,10.19,0,0,0-.72-4.52c-.25-.14-.5-.28-.75-.45.07,1.9.14,3.8.2,5.7h0A8.76,8.76,0,0,1,45.16,82.39Z"/><path class="cls-4" d="M50,82.38a8,8,0,0,1,1.28.74h0l.21-5.7a8.44,8.44,0,0,1-.74.44A9,9,0,0,0,50,82.38Z"/><path class="cls-4" d="M45.16,82.39v.73H50c0-.24,0-.49,0-.74A5.43,5.43,0,0,0,45.16,82.39Z"/><path class="cls-4" d="M45.16,82.39a8.76,8.76,0,0,0-1.27.73h1.27Z"/><path class="cls-4" d="M50,82.38c0,.25,0,.5,0,.74H51.3A8,8,0,0,0,50,82.38Z"/><path class="cls-4" d="M50.77,77.86a4,4,0,0,1,.27-.44h-7a4.4,4.4,0,0,1,.35.39s0,0,0,.06A6.08,6.08,0,0,0,50.77,77.86Z"/><path class="cls-4" d="M44.42,77.81a4.4,4.4,0,0,0-.35-.39h-.38c.25.17.5.31.75.45C44.43,77.85,44.43,77.83,44.42,77.81Z"/><path class="cls-4" d="M51,77.42a4,4,0,0,0-.27.44,8.44,8.44,0,0,0,.74-.44H51Z"/><path class="cls-6" d="M69.85,69.7c3.48.14,6.11-.9,6.41-4.47a4.29,4.29,0,0,0-4.56-5c-3.57,0-4.84,2.41-4.93,5.74C66.7,68.39,67,70.21,69.85,69.7Z"/><path class="cls-6" d="M39.23,60.24a4.28,4.28,0,0,0-4.94,4.61c0,3.58,2.48,4.79,5.79,4.89,2.48.08,4.17-.38,3.67-3.12C43.88,63.11,42.8,60.51,39.23,60.24Z"/></g></g></svg>