<svg xmlns="http://www.w3.org/2000/svg" viewBox="0 0 153 160"><defs><style>.cls-1{fill:none;}.cls-2{fill:#3497da;}.cls-3{fill:#fefefe;}.cls-4{fill:#d8d8d8;}.cls-5{fill:#f0c30f;}.cls-6{fill:#d8d8d9;}.cls-7{fill:#2c81ba;}.cls-8{fill:#e57e22;}.cls-9{fill:#f29c12;}.cls-10{fill:#5fcbfe;}.cls-11{fill:#51aed9;}.cls-12{fill:#e64c3c;}.cls-13{fill:#c54234;}.cls-14{fill:#d9d9d9;}</style></defs><title>imagefilm-thumb</title><g id="Ebene_2" data-name="Ebene 2"><g id="Ebene_3" data-name="Ebene 3"><path class="cls-1" d="M125.66,0a91,91,0,0,1,10.07,113.47l12.91,11.28-1.15,2H127.68c1.17,1.33,2.33,2.69,3.53,4s2.62,2.8,1,4.63-3.19.77-4.63-.53c-.76-.69-1.62-1.24-2.44-1.85h0v17c-4.77-4.51-8.91-8.43-13-12.33-1.33.92-2.68,1.82-4.06,2.68l-1,.72c-6.55,6.44-15,9.51-23.4,12.16A90.12,90.12,0,0,1,0,137.91V160H153V0Z"/><path class="cls-2" d="M108,140.33c1.38-.86,2.73-1.76,4.06-2.68l-.17-.17Z"/><path class="cls-2" d="M132.23,66.34c-.41,13.27-4.66,25.41-11.63,36.64,3.94-.59,6.34,1.76,8.73,4.37,1.92,2.09,4.09,4,6.16,5.9l.24.22A91,91,0,0,0,125.66,0H95.34C118.11,12.59,133.13,37.25,132.23,66.34Z"/><path class="cls-2" d="M6.66,112.91c0-.25-.09-.5-.12-.76A89.93,89.93,0,0,1,0,103.86v15C2.13,116.81,4.44,114.9,6.66,112.91Z"/><path class="cls-2" d="M23.64,0H0V22.06A64.79,64.79,0,0,1,23.64,0Z"/><path class="cls-3" d="M19.14,99.56h0C5.91,83.21,1.46,64.91,8.81,45c7.92-21.51,24-33.95,46.8-35.73,23-1.8,41,8.09,52,28.43,10.86,20.17,8.67,40.09-4.66,58.73-.79,1.1-1.68,2.13-2.53,3.19a11.6,11.6,0,0,0,3.75,3.69l15.74-.28a72,72,0,0,0-25-103H25.14A72.39,72.39,0,0,0,0,23.21v79.58a72.34,72.34,0,0,0,7,8.95A111.6,111.6,0,0,0,19.14,99.56Z"/><path class="cls-3" d="M7,111.74a72.34,72.34,0,0,1-7-8.95v1.07a89.93,89.93,0,0,0,6.54,8.29Z"/><path class="cls-3" d="M132,63a71.66,71.66,0,0,1-12.13,40l.73,0c7-11.23,11.22-23.37,11.63-36.64.9-29.09-14.12-53.75-36.89-66.34h-.48A72,72,0,0,1,132,63Z"/><path class="cls-3" d="M25.14,0h-1.5A64.79,64.79,0,0,0,0,22.06v1.15A72.39,72.39,0,0,1,25.14,0Z"/><path class="cls-4" d="M83.6,153.21c8.43-2.65,16.85-5.72,23.4-12.16h0l-1.28.64A91,91,0,0,1,0,131.41v6.5A90.12,90.12,0,0,0,83.6,153.21Z"/><path class="cls-4" d="M105.72,141.69c-9.66,4.86-19.52,9.18-30.34,10.82C46.73,156.84,21.51,150,0,131v.39a91,91,0,0,0,105.72,10.28Z"/><path class="cls-5" d="M127.68,126.78h19.81l1.15-2-12.91-11.28a92.09,92.09,0,0,1-9.51,11.94Z"/><path class="cls-5" d="M105.55,104.76c2.33,2.47,4.7,4.92,7.08,7.35a73,73,0,0,0,6-7.28,16.2,16.2,0,0,1-2.54.39C112.52,105.69,109.05,104.86,105.55,104.76Z"/><path class="cls-5" d="M129.33,107.35c-2.39-2.61-4.79-5-8.73-4.37a3,3,0,0,1-2,1.85,73,73,0,0,1-6,7.28c4.44,4.52,9,9,13.59,13.3a92.09,92.09,0,0,0,9.51-11.94l-.24-.22C133.42,111.3,131.25,109.44,129.33,107.35Z"/><path class="cls-5" d="M116.05,105.22a16.2,16.2,0,0,0,2.54-.39c.43-.61.86-1.21,1.28-1.83l-15.74.28c.47.49,1,1,1.42,1.48C109.05,104.86,112.52,105.69,116.05,105.22Z"/><path class="cls-5" d="M120.6,103l-.73,0c-.42.62-.85,1.22-1.28,1.83A3,3,0,0,0,120.6,103Z"/><path class="cls-6" d="M23.55,104h0c0-.25-.07-.49-.11-.73h0A10.05,10.05,0,0,1,20,99.86c-1.83,5.89-6.9,9-11.35,12.6a1.07,1.07,0,0,1-.74.2c1.12,1.18,2.27,2.33,3.47,3.42A111.42,111.42,0,0,1,23.55,104Z"/><path class="cls-6" d="M10.21,116.43c.24,0,.49.09.74.12h0l.42-.47C10.17,115,9,113.84,7.9,112.66a3.11,3.11,0,0,1-1.36-.51c0,.26.07.51.12.76l3.55,3.52Z"/><path class="cls-6" d="M8.64,112.46c4.45-3.61,9.52-6.71,11.35-12.6,0-.06-.09-.12-.13-.19h0l-.72-.11h0A111.6,111.6,0,0,1,7,111.74c.29.31.59.61.89.92A1.07,1.07,0,0,0,8.64,112.46Z"/><path class="cls-6" d="M7,111.74l-.47.41a3.11,3.11,0,0,0,1.36.51C7.6,112.35,7.3,112.05,7,111.74Z"/><path class="cls-7" d="M9.28,117.47c-1.85-.88-3.26-2-2.62-4.56-2.22,2-4.53,3.9-6.66,6v8C3.54,124.19,6.37,120.79,9.28,117.47Z"/><path class="cls-7" d="M6.66,112.91c-.64,2.51.77,3.68,2.62,4.56l.93-1Z"/><path class="cls-2" d="M107,141h0l1-.72-1.06.65Z"/><path class="cls-2" d="M104.22,129.51a7.71,7.71,0,0,1-2.87-6.57C87.84,131.61,73.19,136.46,57,135.68c-17.24-.83-32.46-6.73-45.24-18.4l-.59.39a2.33,2.33,0,0,1-.58.09,3.7,3.7,0,0,1-1.1,2.78,96.12,96.12,0,0,1-7.63,7.61,4.32,4.32,0,0,1-1.4.87c18,15.13,38.58,23.24,62.35,22.58a89.26,89.26,0,0,0,38.53-10.25c1.82-.94,3.61-2.39,5.59-.37l1.06-.65,3.89-2.85C109.34,134.81,107,132,104.22,129.51Z"/><path class="cls-2" d="M106.93,141c-.4.24-.8.48-1.21.71l1.28-.64h0Z"/><path class="cls-2" d="M75.38,152.51c10.82-1.64,20.68-6,30.34-10.82.41-.23.81-.47,1.21-.71-2-2-3.77-.57-5.59.37A89.26,89.26,0,0,1,62.81,151.6C39,152.26,18.41,144.15.46,129a3.47,3.47,0,0,1-.46.13V131C21.51,150,46.73,156.84,75.38,152.51Z"/><path class="cls-2" d="M11.76,117.28l-.81-.73h0c-.25,0-.5-.07-.74-.12h0a3.68,3.68,0,0,1,.38,1.33,2.33,2.33,0,0,0,.58-.09Z"/><path class="cls-2" d="M1.86,128.15a96.12,96.12,0,0,0,7.63-7.61,3.7,3.7,0,0,0,1.1-2.78,3.59,3.59,0,0,1-.8-.05l-.51-.24c-2.91,3.32-5.74,6.72-9.28,9.37v1.78l.46.4A4.32,4.32,0,0,0,1.86,128.15Z"/><path class="cls-2" d="M0,128.62v.53A3.47,3.47,0,0,0,.46,129Z"/><path class="cls-2" d="M10.21,116.43l-.93,1,.51.24a3.59,3.59,0,0,0,.8.05,3.68,3.68,0,0,0-.38-1.33Z"/><path class="cls-8" d="M87.59,86.82h0A124,124,0,0,1,74.48,73.5h0a94.44,94.44,0,0,1-11.06-11h0c-1.51-.68-3.11-1.54-4.49.06-1.73,2,0,3.56,1,5.18A78.41,78.41,0,0,1,70.06,77.9c5,3.86,9.11,8.51,13.35,13.1h0a145.41,145.41,0,0,1,12.76,12.8,22.09,22.09,0,0,1,5.48,5.64q3.5,3.32,7,6.67,1.33-1.23,2.61-2.52-2.79-2.79-5.55-5.6c-1-1-2-2-2-3.37-2.29-.44-3.61-2.07-4.41-4.33a7.76,7.76,0,0,1,.22-1.48A145.14,145.14,0,0,1,87.59,86.82Z"/><path class="cls-8" d="M124.83,126.85c-.94,1-1.89,1.88-2.87,2.79,1.05,1.13,2.11,2.23,3.14,3.38h0c.82.61,1.68,1.16,2.44,1.85,1.44,1.3,3,2.35,4.63.53s.3-3.26-1-4.63-2.36-2.66-3.53-4h0A2.67,2.67,0,0,1,124.83,126.85Z"/><path class="cls-8" d="M111.22,113.59q-1.27,1.29-2.61,2.52c4.55,4.41,9,8.9,13.35,13.53,1-.91,1.93-1.84,2.87-2.79a9.87,9.87,0,0,1-1.87-1.58C119,121.42,115.1,117.52,111.22,113.59Z"/><path class="cls-8" d="M99.3,100.29c.8,2.26,2.12,3.89,4.41,4.33a3,3,0,0,1,.42-1.34,11.6,11.6,0,0,1-3.75-3.69l-.86-.78A7.76,7.76,0,0,0,99.3,100.29Z"/><path class="cls-8" d="M104.79,104.74a6.15,6.15,0,0,1-1.08-.12c-.09,1.38,1,2.39,2,3.37q2.76,2.81,5.55,5.6c.48-.48.94-1,1.41-1.48-2.38-2.43-4.75-4.88-7.08-7.35Z"/><path class="cls-8" d="M126.22,125.41c-.45.48-.92,1-1.39,1.44a2.67,2.67,0,0,0,2.85-.07h0Z"/><path class="cls-8" d="M123,125.27a9.87,9.87,0,0,0,1.87,1.58c.47-.48.94-1,1.39-1.44-4.63-4.33-9.15-8.78-13.59-13.3-.47.5-.93,1-1.41,1.48C115.1,117.52,119,121.42,123,125.27Z"/><path class="cls-8" d="M104.79,104.74l.76,0c-.47-.5-1-1-1.42-1.48a3,3,0,0,0-.42,1.34A6.15,6.15,0,0,0,104.79,104.74Z"/><path class="cls-9" d="M101.6,111.66c-.07,3.41-.15,6.83-.22,10.25q2.91-2.05,5.6-4.38c-1.41-1.53-2.76-3.12-4-4.78A4,4,0,0,0,101.6,111.66Z"/><path class="cls-9" d="M120.75,131.26l-.27-.28a92.12,92.12,0,0,1-8.43,6.67c4.14,3.9,8.28,7.82,13,12.33V133h0C123.21,133.52,121.92,132.48,120.75,131.26Z"/><path class="cls-9" d="M107,117.53q-2.69,2.32-5.6,4.38v.1l.09,0a83,83,0,0,0,10.1,12.49,2.44,2.44,0,0,1,.32,2.95l.17.17a92.12,92.12,0,0,0,8.43-6.67C116.08,126.4,111.28,122.21,107,117.53Z"/><path class="cls-9" d="M101.35,122.94a7.71,7.71,0,0,0,2.87,6.57c2.73,2.46,5.12,5.3,7.66,8a2.44,2.44,0,0,0-.32-2.95A83,83,0,0,1,101.46,122l-.09,0,0,.93Z"/><path class="cls-9" d="M101.65,109.44c0,.74,0,1.48-.05,2.22a4,4,0,0,1,1.35,1.09c1.27,1.66,2.62,3.25,4,4.78.55-.47,1.1-.94,1.63-1.42Q105.15,112.75,101.65,109.44Z"/><path class="cls-9" d="M120.48,131l.27.28c1.17,1.22,2.46,2.26,4.35,1.76-1-1.15-2.09-2.25-3.14-3.38C121.47,130.1,121,130.54,120.48,131Z"/><path class="cls-9" d="M108.61,116.11c-.53.48-1.08,1-1.63,1.42,4.3,4.68,9.1,8.87,13.5,13.45.5-.44,1-.88,1.48-1.34C117.62,125,113.16,120.52,108.61,116.11Z"/><path class="cls-10" d="M20.45,99l11.41-12.3h0c-6.46-9.08-9.81-18.92-7.58-30.2A36.2,36.2,0,1,1,89.9,83.47c-.43.64-.88,1.28-1.32,1.91l.39.43c3.64,2.68,6.5,6.18,9.73,9.28a4.8,4.8,0,0,1,1.3,2.25,30.25,30.25,0,0,1,2.83-4.72c21.89-33.64,1.83-76.88-38.1-81.23C40.45,8.74,16.55,24.33,9.64,49.55,5.47,64.74,8.14,78.77,16.41,92c1.43,2.27,3.13,4.4,3.79,7.08l.12,0Z"/><path class="cls-10" d="M16.41,92C8.14,78.77,5.47,64.74,9.64,49.55,16.55,24.33,40.45,8.74,64.73,11.39c39.93,4.35,60,47.59,38.1,81.23A30.25,30.25,0,0,0,100,97.34a14.88,14.88,0,0,1,.38,2.25c.85-1.06,1.74-2.09,2.53-3.19,13.33-18.64,15.52-38.56,4.66-58.73-10.94-20.34-29-30.23-52-28.43C32.81,11,16.73,23.46,8.81,45,1.46,64.91,5.91,83.21,19.14,99.56h0A1.69,1.69,0,0,1,20.2,99C19.54,96.35,17.84,94.22,16.41,92Z"/><path class="cls-10" d="M20.32,99l-.12,0a.14.14,0,0,1,0,.06c0,.1-.06.19-.08.29.1-.11.2-.23.31-.34Z"/><path class="cls-10" d="M19.86,99.67h0l.28-.29c0-.1.06-.19.08-.29a.14.14,0,0,0,0-.06,1.69,1.69,0,0,0-1.06.53l.72.11Z"/><path class="cls-10" d="M89,85.81l-.39-.43-1,1.44h0a145.14,145.14,0,0,0,11.93,12,9,9,0,0,1,.48-1.47,4.8,4.8,0,0,0-1.3-2.25C95.47,92,92.61,88.49,89,85.81Z"/><path class="cls-10" d="M99.52,98.81l.86.78a14.88,14.88,0,0,0-.38-2.25A9,9,0,0,0,99.52,98.81Z"/><path class="cls-3" d="M94.92,105a.52.52,0,0,1-.11-.1c-19.53,16-48,17.89-70.43-.3A42.73,42.73,0,0,1,13,116.43a9.19,9.19,0,0,1,3.22,1.92,70.41,70.41,0,0,0,79,5.61c1.71-1,3.3-2.48,5.45-2.12a11.55,11.55,0,0,1-.21-10.76l-.14-.06C98.43,109.13,96.7,107.06,94.92,105Z"/><path class="cls-3" d="M13,116.43a42.73,42.73,0,0,0,11.38-11.79c-.28-.23-.56-.44-.83-.67h0a111.42,111.42,0,0,0-12.18,12.11c.1.1.2.2.31.29A3.4,3.4,0,0,1,13,116.43Z"/><path class="cls-3" d="M11.37,116.08l-.42.47a4.56,4.56,0,0,1,.73-.18C11.57,116.28,11.47,116.18,11.37,116.08Z"/><path class="cls-3" d="M95.25,124a70.41,70.41,0,0,1-79-5.61A9.19,9.19,0,0,0,13,116.43l-.7.48a71.92,71.92,0,0,0,88.61,5.32l-.21-.39C98.55,121.48,97,123,95.25,124Z"/><path class="cls-3" d="M100.91,122.23a71.92,71.92,0,0,1-88.61-5.32l-.54.37c12.78,11.67,28,17.57,45.24,18.4,16.19.78,30.84-4.07,44.35-12.74h0C101.2,122.71,101.05,122.47,100.91,122.23Z"/><path class="cls-3" d="M11.68,116.37c.2.19.41.36.62.54l.7-.48A3.4,3.4,0,0,0,11.68,116.37Z"/><path class="cls-3" d="M11.68,116.37a4.56,4.56,0,0,0-.73.18h0l.81.73.54-.37C12.09,116.73,11.88,116.56,11.68,116.37Z"/><path class="cls-3" d="M96.17,103.8c-.45.39-.91.77-1.36,1.14a.52.52,0,0,0,.11.1c1.78,2,3.51,4.09,5.43,6l.14.06a8.24,8.24,0,0,1,1.16-1.64A22.09,22.09,0,0,0,96.17,103.8Z"/><path class="cls-3" d="M100.49,111.08a11.55,11.55,0,0,0,.21,10.76,4,4,0,0,1,.57.14l.11-.07c.07-3.42.15-6.84.22-10.25C101.24,111.46,100.86,111.27,100.49,111.08Z"/><path class="cls-3" d="M101.37,122v-.1l-.11.07Z"/><path class="cls-3" d="M101.27,122a4,4,0,0,0-.57-.14l.21.39Z"/><path class="cls-3" d="M100.91,122.23c.14.24.29.48.44.71h0l0-.93-.1,0Z"/><path class="cls-3" d="M101.6,111.66c0-.74,0-1.48.05-2.22a8.24,8.24,0,0,0-1.16,1.64C100.86,111.27,101.24,111.46,101.6,111.66Z"/><path class="cls-10" d="M82.36,92.3,82,92c-15.15,10.5-30.37,10-45.64-.75l-12,11.15.26.57a2.81,2.81,0,0,1,.07.65c1.8-.27,3.22,1,4.64,1.9q30.51,20,61,0a12,12,0,0,1,3.22-1.69A93.47,93.47,0,0,1,82.36,92.3Z"/><path class="cls-10" d="M24.62,103l-.26-.57-.92.85h0c0,.24.08.48.11.73a3.5,3.5,0,0,1,1.14-.36A2.81,2.81,0,0,0,24.62,103Z"/><path class="cls-10" d="M82,92l.35.31a93.47,93.47,0,0,0,11.17,11.51,4.55,4.55,0,0,1,2.64,0A145.41,145.41,0,0,0,83.41,91h0C82.94,91.34,82.48,91.67,82,92Z"/><path class="cls-10" d="M94.81,104.94l-1.28-1.13a12,12,0,0,0-3.22,1.69q-30.49,20-61,0c-1.42-.93-2.84-2.17-4.64-1.9a2.86,2.86,0,0,1-.09.7c-.07.11-.15.21-.22.33C46.82,122.83,75.28,121,94.81,104.94Z"/><path class="cls-10" d="M24.69,103.61a3.5,3.5,0,0,0-1.14.36h0c.27.23.55.44.83.67.07-.12.15-.22.22-.33A2.86,2.86,0,0,0,24.69,103.61Z"/><path class="cls-10" d="M93.53,103.81l1.28,1.13c.45-.37.91-.75,1.36-1.14A4.55,4.55,0,0,0,93.53,103.81Z"/><path class="cls-11" d="M36.13,90.34A9.18,9.18,0,0,1,32.76,87,21.42,21.42,0,0,1,21.05,99.17a5.07,5.07,0,0,1,3,2.63A21.34,21.34,0,0,1,36.13,90.34Z"/><path class="cls-11" d="M23.44,103.24c.18-.5.4-1,.61-1.44a5.07,5.07,0,0,0-3-2.63c-.33.14-.64.29-1,.41a2.29,2.29,0,0,1-.08.28A10.05,10.05,0,0,0,23.44,103.24Z"/><path class="cls-11" d="M19.86,99.67c0,.07.09.13.13.19a2.29,2.29,0,0,0,.08-.28A1.33,1.33,0,0,1,19.86,99.67Z"/><path class="cls-11" d="M32.76,87a.75.75,0,0,1-.09-.15l-.81-.1h0L20.45,99l.6.13A21.42,21.42,0,0,0,32.76,87Z"/><path class="cls-11" d="M21.05,99.17l-.6-.13c-.11.11-.21.23-.31.34s-.05.13-.07.2C20.41,99.46,20.72,99.31,21.05,99.17Z"/><path class="cls-11" d="M20.14,99.38l-.28.29h0a1.33,1.33,0,0,0,.21-.09C20.09,99.51,20.12,99.45,20.14,99.38Z"/><path class="cls-11" d="M36.37,91.24h0c0-.27-.06-.54-.1-.81a1.1,1.1,0,0,1-.14-.09A21.34,21.34,0,0,0,24.05,101.8l.31.59Z"/><path class="cls-11" d="M24.36,102.39l-.31-.59c-.21.47-.43.94-.61,1.44h0Z"/><path class="cls-3" d="M33.16,86.33c2.9-3,5.79-6.06,8.7-9.08,1.14-1.17,2.34-2.28,2.69-4h0C36.46,59.11,47,45.14,59.66,45.19c7.23,0,12.83,3.28,16.14,9.68,3,5.87,3.13,11.77-.42,17.32A125.86,125.86,0,0,1,87.44,84.13c.33-1.75,1.41-3.29,2.24-4.89,5.66-10.87,5.52-21.67-.28-32.46C83.24,35.33,69,27.78,56.52,29.41c-15,1.95-26.57,12.19-29.73,26a33.17,33.17,0,0,0,2.93,23.26c1.26,2.46,2.88,4.78,3.2,7.64h.24Z"/><path class="cls-3" d="M87.44,84.13A125.86,125.86,0,0,0,75.38,72.19c-.28.44-.58.88-.9,1.31h0A124,124,0,0,0,87.59,86.82,5.42,5.42,0,0,1,87.44,84.13Z"/><path class="cls-3" d="M29.72,78.69a33.17,33.17,0,0,1-2.93-23.26C30,41.6,41.54,31.36,56.52,29.41,69,27.78,83.24,35.33,89.4,46.78c5.8,10.79,5.94,21.59.28,32.46-.83,1.6-1.91,3.14-2.24,4.89l1.14,1.25c.44-.63.89-1.27,1.32-1.91A36.2,36.2,0,1,0,24.28,56.54c-2.23,11.28,1.12,21.12,7.58,30.2h0a1.75,1.75,0,0,1,1.06-.41C32.6,83.47,31,81.15,29.72,78.69Z"/><path class="cls-3" d="M87.59,86.82h0l1-1.44-1.14-1.25A5.42,5.42,0,0,0,87.59,86.82Z"/><path class="cls-3" d="M33.13,86.32h-.21l0,.22.21-.22Z"/><path class="cls-3" d="M32.67,86.84l.28-.29,0-.22a1.75,1.75,0,0,0-1.06.41l.81.1Z"/><path class="cls-3" d="M49.83,78.55h0c-4.29,1.76-6.57,5.82-9.92,8.66C38.84,88.1,37.82,89,36.78,90a1.62,1.62,0,0,1,0,.22A15.75,15.75,0,0,1,42,92.1C53.77,99,65.62,99,77.44,92.23a10.33,10.33,0,0,1,3.38-1.29A116.06,116.06,0,0,1,68.76,78.81C62.58,82.77,56.24,81.88,49.83,78.55Z"/><path class="cls-3" d="M80.82,90.94a6.68,6.68,0,0,1,2.59.06c-4.24-4.59-8.4-9.24-13.35-13.1-.43.33-.87.63-1.3.91A116.06,116.06,0,0,0,80.82,90.94Z"/><path class="cls-3" d="M82,92c-.4-.34-.79-.7-1.19-1a10.33,10.33,0,0,0-3.38,1.29C65.62,99,53.77,99,42,92.1a15.75,15.75,0,0,0-5.23-1.9,1.75,1.75,0,0,1-.4,1h0C51.64,102,66.86,102.49,82,92Z"/><path class="cls-3" d="M80.82,90.94c.4.35.79.71,1.19,1,.47-.32.93-.65,1.4-1h0A6.68,6.68,0,0,0,80.82,90.94Z"/><path class="cls-3" d="M36.57,90.16l.2,0a1.62,1.62,0,0,0,0-.22Z"/><path class="cls-3" d="M36.77,90.2l-.2,0-.3.27h0c0,.27.07.54.1.81h0A1.75,1.75,0,0,0,36.77,90.2Z"/><path class="cls-12" d="M68.72,50.2a15.83,15.83,0,0,0-17.87.08,15.53,15.53,0,0,0-6.41,16.21c.45,2.17,1,4.33,1.27,6.53,4-3.86,7.9-7.76,11.94-11.55.2-.19.41-.37.62-.54l0,0c1.39-1.13,2.76-1.63,3.86-.65.38.07.78.16,1.17.25C67.7,63.31,71,67.28,74.37,71.1a40.94,40.94,0,0,1,.88-4.73A15.55,15.55,0,0,0,68.72,50.2Z"/><path class="cls-12" d="M58.29,60.91l0,0Z"/><path class="cls-12" d="M74.37,71.1C71,67.28,67.7,63.31,63.32,60.51c-.39-.09-.79-.18-1.17-.25a5.09,5.09,0,0,1,1.27,2.21h0a94.44,94.44,0,0,0,11.06,11A9.27,9.27,0,0,1,74.37,71.1Z"/><path class="cls-12" d="M75.8,54.87c-3.31-6.4-8.91-9.65-16.14-9.68-12.62,0-23.2,13.92-15.11,28.08q.38.06.75.15l.41-.4c-.3-2.2-.82-4.36-1.27-6.53a15.53,15.53,0,0,1,6.41-16.21,15.83,15.83,0,0,1,17.87-.08,15.55,15.55,0,0,1,6.53,16.17,40.94,40.94,0,0,0-.88,4.73l.9,1,.11.09C78.93,66.64,78.84,60.74,75.8,54.87Z"/><path class="cls-12" d="M75.38,72.19l-.11-.09-.9-1a9.27,9.27,0,0,0,.11,2.4h0C74.8,73.07,75.1,72.63,75.38,72.19Z"/><path class="cls-12" d="M50.05,77.39h0c5.91,2,11.9,1.34,17.89.72a72.7,72.7,0,0,1-9.3-9.35A80.64,80.64,0,0,0,50.05,77.39Z"/><path class="cls-12" d="M68,78.11l2.1-.21A78.41,78.41,0,0,0,59.88,67.71c-.42.34-.81.7-1.22,1.05A72.7,72.7,0,0,0,68,78.11Z"/><path class="cls-12" d="M50.07,77.39h0l-.37.42h0a4.62,4.62,0,0,1,.15.74c6.41,3.33,12.75,4.22,18.93.26l-.1-.1c-.24-.19-.46-.4-.7-.6C62,78.73,56,79.44,50.07,77.39Z"/><path class="cls-12" d="M68.66,78.71l.1.1c.43-.28.87-.58,1.3-.91l-2.1.21C68.2,78.31,68.42,78.52,68.66,78.71Z"/><path class="cls-13" d="M48.9,73a3.28,3.28,0,0,1-3.26,1L45.52,74h0a6.91,6.91,0,0,0,3.66,3.65h0c0-.08-.07-.14-.1-.22A14,14,0,0,1,58,68s0,0,0,0a3.85,3.85,0,0,1-1.47-3.2C54.54,68.05,51.54,70.33,48.9,73Z"/><path class="cls-13" d="M57.06,63.58c-.19.4-.39.76-.6,1.13a3.85,3.85,0,0,0,1.47,3.2s0,0,0,0a6.71,6.71,0,0,1,1.9-.25c-.91-1.62-2.68-3.16-1-5.18,1.38-1.6,3-.74,4.49-.06C60.47,59.82,58.73,60,57.06,63.58Z"/><polygon class="cls-13" points="45.52 73.95 45.52 73.95 45.52 73.95 45.52 73.95"/><path class="cls-13" d="M49.19,77.6h0Z"/><path class="cls-13" d="M45.71,73s0,.09,0,.13a6.24,6.24,0,0,1-.2.8l.12.07a3.28,3.28,0,0,0,3.26-1c2.64-2.66,5.64-4.94,7.56-8.28A5.84,5.84,0,0,1,57.4,62a4,4,0,0,1,.87-1c-.21.17-.42.35-.62.54C53.61,65.26,49.68,69.16,45.71,73Z"/><path class="cls-13" d="M58.29,60.91a4.63,4.63,0,0,1,3.86-.65C61.05,59.28,59.68,59.78,58.29,60.91Z"/><path class="cls-13" d="M62.15,60.26a4.63,4.63,0,0,0-3.86.65l0,0a4,4,0,0,0-.87,1,5.84,5.84,0,0,0-.94,2.76c.21-.37.41-.73.6-1.13,1.67-3.62,3.41-3.76,6.36-1.11h0A5.09,5.09,0,0,0,62.15,60.26Z"/><path class="cls-13" d="M45.52,74a6.24,6.24,0,0,0,.2-.8s0-.09,0-.13l-.41.4c.06.18.14.35.22.53Z"/><path class="cls-13" d="M49.09,77.38c0,.08.07.14.1.22a7.16,7.16,0,0,1,.86-.21,80.64,80.64,0,0,1,8.61-8.63c-.23-.27-.46-.53-.68-.8A14,14,0,0,0,49.09,77.38Z"/><path class="cls-13" d="M58.66,68.76c.41-.35.8-.71,1.22-1.05A6.71,6.71,0,0,0,58,68C58.2,68.23,58.43,68.49,58.66,68.76Z"/><path class="cls-13" d="M49.68,77.81h0l.37-.42a7.16,7.16,0,0,0-.86.21h0C49.36,77.67,49.51,77.75,49.68,77.81Z"/><path class="cls-14" d="M48.34,77.88c-2.66.1-3.21-.42-3.12-3C43.43,79.46,38.1,85,33.82,86.51A4.18,4.18,0,0,1,36.6,89.3C38.15,85,43.7,79.63,48.34,77.88Z"/><path class="cls-14" d="M36.6,89.3a4.18,4.18,0,0,0-2.78-2.79c-.33.12-.66.21-1,.29l-.09.19a9.18,9.18,0,0,0,3.37,3.35l.19-.08A7,7,0,0,1,36.6,89.3Z"/><path class="cls-14" d="M32.67,86.84h0a.75.75,0,0,0,.09.15l.09-.19Z"/><path class="cls-14" d="M36.32,90.26l-.19.08a1.1,1.1,0,0,0,.14.09h0A1.54,1.54,0,0,1,36.32,90.26Z"/><path class="cls-14" d="M45.22,74.83c0-.31,0-.66.05-1a4,4,0,0,1-.72-.53h0c-.35,1.7-1.55,2.81-2.69,4-2.91,3-5.8,6-8.7,9.08a6.36,6.36,0,0,1,.66.18C38.1,85,43.43,79.46,45.22,74.83Z"/><path class="cls-14" d="M32.85,86.8c.31-.08.64-.17,1-.29a6.36,6.36,0,0,0-.66-.18l-.21.22v0C32.92,86.64,32.88,86.72,32.85,86.8Z"/><path class="cls-14" d="M32.85,86.8c0-.08.07-.16.1-.23v0l-.28.29h0Z"/><path class="cls-14" d="M36.78,90c1-.94,2.06-1.88,3.13-2.77,3.35-2.84,5.63-6.9,9.92-8.66h0a3.39,3.39,0,0,1-.52-.72c-.35,0-.67,0-1,0C43.7,79.63,38.15,85,36.6,89.3a5.92,5.92,0,0,1,.18.67Z"/><path class="cls-14" d="M36.78,90a5.92,5.92,0,0,0-.18-.67,7,7,0,0,0-.28,1l.23-.1h0l.21-.18Z"/><path class="cls-14" d="M36.57,90.16h0l-.23.1a1.54,1.54,0,0,0,0,.17h0Z"/><path class="cls-14" d="M45.27,73.8c0-.12,0-.24,0-.38q-.37-.09-.75-.15h0A4,4,0,0,0,45.27,73.8Z"/><path class="cls-14" d="M49.83,78.55h0a4.62,4.62,0,0,0-.15-.74h0l-.37,0A3.39,3.39,0,0,0,49.83,78.55Z"/><path class="cls-14" d="M48.34,77.88l.84-.28A6.91,6.91,0,0,1,45.52,74c-.08.29-.19.58-.3.88C45.13,77.46,45.68,78,48.34,77.88Z"/><path class="cls-14" d="M45.27,73.8c0,.37,0,.72-.05,1,.11-.3.22-.59.3-.88h0Z"/><path class="cls-14" d="M49.31,77.83c0-.07-.07-.15-.11-.22h0l-.84.28C48.64,77.87,49,77.86,49.31,77.83Z"/><path class="cls-14" d="M45.52,74c-.08-.18-.16-.35-.22-.53,0,.14,0,.26,0,.38Z"/><path class="cls-14" d="M49.31,77.83l.37,0c-.17-.06-.32-.14-.48-.2C49.24,77.68,49.27,77.76,49.31,77.83Z"/></g></g></svg>