<svg xmlns="http://www.w3.org/2000/svg" xmlns:xlink="http://www.w3.org/1999/xlink" viewBox="0 0 809.57 75.27"><defs><style>.cls-1{fill:#e9c47d;}.cls-2,.cls-6{opacity:0.3;}.cls-3{fill:#f96;}.cls-4{fill:#027d92;}.cls-5,.cls-6{fill:#fc6;}.cls-7{fill:none;}.cls-8{mask:url(#mask);}.cls-9{mask:url(#mask-2);}</style><mask id="mask" x="464.87" y="2.82" width="68.17" height="249.13" maskUnits="userSpaceOnUse"><path class="cls-1" d="M488,224.91c0,1.38,0,6.33-.27,9.28a9,9,0,0,1-1.16,3.42,7.21,7.21,0,0,1-2.17,2.29,9.09,9.09,0,0,1-3,1.29,14.82,14.82,0,0,1-3.42.39,12.81,12.81,0,0,1-5.25-1,10.43,10.43,0,0,1-3.79-2.84,12.34,12.34,0,0,1-2.29-4.34,18,18,0,0,1-.51-2.28c1.22,9.33,6.35,17.78,11.87,20.83a28,28,0,0,0,6.93-1,24.4,24.4,0,0,0,6.51-2.84,20.52,20.52,0,0,0,5.16-4.64,22.48,22.48,0,0,0,3.48-6.39,24,24,0,0,0,1.22-5.55q.3-3,.3-6.66Z"/></mask><mask id="mask-2" x="464.87" y="2.82" width="68.16" height="72.45" maskUnits="userSpaceOnUse"><path class="cls-1" d="M511.84,32.12c0,2.06,0,9.44-.4,13.84a13.64,13.64,0,0,1-1.73,5.1,10.87,10.87,0,0,1-3.23,3.41,13.5,13.5,0,0,1-4.41,1.92A22,22,0,0,1,497,57a19.12,19.12,0,0,1-7.83-1.5,15.43,15.43,0,0,1-5.64-4.23,18.17,18.17,0,0,1-3.42-6.46,24.26,24.26,0,0,1-.76-3.39c1.82,13.91,9.47,26.49,17.71,31A41.08,41.08,0,0,0,507.36,71a35.78,35.78,0,0,0,9.69-4.24,30.5,30.5,0,0,0,7.69-6.92,33,33,0,0,0,5.18-9.51A35.51,35.51,0,0,0,531.74,42a96.67,96.67,0,0,0,.44-9.92Z"/></mask></defs><title>neueimagefilm-logo</title><g id="Ebene_2" data-name="Ebene 2"><g id="Ebene_1-2" data-name="Ebene 1"><polygon class="cls-2" points="335.93 38.37 334.74 35.18 328.16 59 335.93 38.37"/><polygon class="cls-3" points="559.02 55.28 541.18 55.28 559.02 70.39 580.23 70.39 580.23 55.28 559.02 55.28"/><polyline class="cls-2" points="559.02 55.28 559.02 52.48 541.18 55.28"/><polygon class="cls-4" points="696.16 55.28 678.33 55.28 696.16 70.39 717.37 70.39 717.37 55.28 696.16 55.28"/><polygon class="cls-4" points="99.27 55.26 81.43 55.26 99.27 70.37 120.48 70.37 120.48 55.26 99.27 55.26"/><polygon class="cls-4" points="225.33 55.51 207.49 55.51 225.33 70.61 246.54 70.61 246.54 55.51 225.33 55.51"/><polygon class="cls-5" points="450.9 58.46 432.32 58.46 436.42 70.39 455.44 70.39 450.9 58.46"/><polygon class="cls-3" points="445.74 44.9 445.74 44.9 427.59 44.9 411.57 44.9 406.84 58.46 432.32 58.46 450.9 58.46 445.74 44.9"/><polygon class="cls-6" points="450.9 58.46 432.32 58.46 433.21 61.06 450.9 58.46"/><polygon class="cls-2" points="406.84 58.46 414 44.9 411.57 44.9 406.84 58.46"/><path class="cls-7" d="M479,38.05a27.58,27.58,0,0,0,.33,3.34C479.17,40.28,479.06,39.17,479,38.05Z"/><path class="cls-7" d="M479,38.05a27.58,27.58,0,0,0,.33,3.34C479.17,40.28,479.06,39.17,479,38.05Z"/><path class="cls-7" d="M479,38.05a27.58,27.58,0,0,0,.33,3.34C479.17,40.28,479.06,39.17,479,38.05Z"/><path class="cls-7" d="M479,38.05a27.58,27.58,0,0,0,.33,3.34C479.17,40.28,479.06,39.17,479,38.05Z"/><polygon class="cls-4" points="50.79 1.76 50.79 43.72 50.79 70.39 68.54 70.39 68.54 1.76 50.79 1.76"/><path class="cls-4" d="M176.55,1.76V39.08q0,3-.22,6.14a16.91,16.91,0,0,1-.73,3.87c-2.32,9.62-10.18,20-21.24,22.21a47.25,47.25,0,0,0,10.09,1q15.2,0,22.53-7.37t7.32-23.4V1.76Z"/><polygon class="cls-3" points="292.97 70.39 310.72 70.39 316.63 30.89 304.62 1.76 292.97 70.39"/><polygon class="cls-3" points="367.33 1.76 355.32 30.89 361.24 70.39 378.98 70.39 367.33 1.76"/><polygon class="cls-5" points="335.93 38.35 336.24 37.52 349.68 1.76 367.33 1.76 355.32 30.89 352.67 37.67 339.94 70.39 332.84 70.39 328.16 58.98 335.93 38.35"/><polygon class="cls-5" points="316.63 30.91 304.62 1.78 322.28 1.78 335.93 38.37 328.16 59 328 58.61 316.63 30.91"/><polygon class="cls-2" points="316.63 30.89 315.99 35.18 304.62 1.76 316.63 30.89"/><polygon class="cls-2" points="355.32 30.89 355.96 35.18 367.33 1.76 355.32 30.89"/><polygon class="cls-3" points="580.23 16.87 580.23 1.76 559.02 1.76 541.18 16.87 559.02 16.87 580.23 16.87"/><polygon class="cls-5" points="559.02 27.74 559.02 27.18 559.02 16.87 541.18 16.87 541.18 55.28 559.02 55.28 559.02 44.57 559.02 43.95 559.02 43.45 559.02 28.34 559.02 27.74"/><rect class="cls-3" x="559.02" y="28.34" width="20.02" height="15.11"/><polygon class="cls-2" points="541.18 16.87 559.02 16.87 559.02 19.66 541.18 16.87"/><polygon class="cls-2" points="559.02 43.45 559.02 43.45 559.02 28.34 560.71 28.34 559.02 43.45"/><polygon class="cls-4" points="678.33 1.94 678.33 55.28 696.16 52.48 696.16 40.4 696.16 39.54 696.16 38.85 696.16 17.86 696.16 17.03 696.16 16.25 696.16 1.94 678.33 1.94"/><polygon class="cls-4" points="635.23 16.68 635.23 1.58 614.02 1.58 596.18 16.68 614.02 16.68 635.23 16.68"/><polygon class="cls-4" points="596.18 70.57 614.02 70.57 614.02 55.54 614.02 54.67 614.02 53.97 614.02 32.77 614.02 31.93 614.02 31.15 614.02 19.48 596.18 16.68 596.18 70.57"/><polygon class="cls-4" points="615.7 28.15 614.02 43.26 634.04 43.26 634.04 28.15 615.7 28.15"/><polygon class="cls-4" points="120.48 16.85 120.48 1.74 99.27 1.74 81.43 16.85 99.27 16.85 120.48 16.85"/><polygon class="cls-4" points="246.54 17.09 246.54 1.99 225.33 1.99 207.49 17.09 225.33 17.09 246.54 17.09"/><polygon class="cls-4" points="207.49 55.51 225.33 52.71 225.33 44.79 225.33 44.17 225.33 43.67 225.33 28.56 225.33 27.96 225.33 27.4 225.33 19.89 207.49 17.09 207.49 55.51"/><polygon class="cls-4" points="227.01 28.56 225.33 43.67 245.35 43.67 245.35 28.56 227.01 28.56"/><rect class="cls-5" x="263.84" y="1.95" width="17.84" height="14.92"/><rect class="cls-3" x="263.84" y="16.87" width="17.84" height="53.66"/><polygon class="cls-2" points="263.84 16.87 281.68 16.87 281.68 19.66 263.84 16.87"/><rect class="cls-4" x="646.01" y="1.42" width="17.84" height="14.92"/><polygon class="cls-4" points="646.01 16.34 646.01 70.57 663.85 70.57 663.85 19.13 646.01 16.34 646.01 16.34"/><polygon class="cls-7" points="427.59 44.9 419.58 22.06 419.57 22.09 419.76 22.64 419.57 22.09 411.57 44.9 427.59 44.9"/><polygon class="cls-3" points="419.57 22.09 412.42 1.76 409.84 1.76 383.71 70.39 402.74 70.39 406.84 58.46 411.57 44.9 419.57 22.09"/><polygon class="cls-5" points="445.74 44.9 429.32 1.76 412.42 1.76 419.57 22.09 419.58 22.06 427.59 44.9 445.74 44.9 445.74 44.9"/><polygon class="cls-2" points="412.42 1.76 419.57 22.09 418.14 26.16 412.42 1.76"/><polygon class="cls-4" points="0 70.39 17.84 70.39 17.84 32.7 0 6.09 0 70.39"/><path class="cls-4" d="M169.94,55.76a14.68,14.68,0,0,1-5.49.88,12.72,12.72,0,0,1-6.92-1.59,9.37,9.37,0,0,1-3.59-4.14,16.8,16.8,0,0,1-1.37-5.69q-.23-3.13-.23-6.14V1.76H134.5V41.53q0,16,7.38,23.4a24.63,24.63,0,0,0,12.39,6.35C161.41,68.56,166.9,62.4,169.94,55.76Z"/><polygon class="cls-4" points="81.43 55.26 99.27 52.47 99.27 44.55 99.27 43.93 99.27 43.43 99.27 28.32 99.27 27.72 99.27 27.16 99.27 19.65 81.43 16.85 81.43 55.26"/><polygon class="cls-4" points="100.95 28.32 99.27 43.43 119.3 43.43 119.3 28.32 100.95 28.32"/><polygon class="cls-7" points="427.59 44.9 419.58 22.06 419.57 22.09 419.76 22.64 419.57 22.09 411.57 44.9 427.59 44.9"/><polygon class="cls-4" points="17.84 1.76 0 1.76 0 6.09 17.84 28.43 50.79 70.39 50.79 70.32 48.39 40.66 17.84 1.76"/><path class="cls-3" d="M511.84,32.13H496.78V46h14.65C511.83,41.57,511.85,34.19,511.84,32.13Z"/><polygon class="cls-2" points="511.84 32.13 508.68 45.97 511.43 45.97 511.84 32.13"/><path class="cls-5" d="M511.84,32.13c0,2.06,0,9.44-.41,13.84a13.53,13.53,0,0,1-1.72,5.09,10.91,10.91,0,0,1-3.23,3.42,13.63,13.63,0,0,1-4.42,1.91A22,22,0,0,1,497,57a19.12,19.12,0,0,1-7.83-1.5,15.35,15.35,0,0,1-5.64-4.24,18.23,18.23,0,0,1-3.41-6.46,24.26,24.26,0,0,1-.76-3.39c1.81,13.91,9.46,26.49,17.69,31A41.54,41.54,0,0,0,507.34,71,35.78,35.78,0,0,0,517,66.76a30.12,30.12,0,0,0,7.69-6.91,32.73,32.73,0,0,0,5.19-9.52,34.81,34.81,0,0,0,1.82-8.28,96.31,96.31,0,0,0,.46-9.92Z"/><g class="cls-8"><path class="cls-2" d="M483.9,44.21a29.8,29.8,0,0,1-.33-3.33c0-.12,0-.24,0-.36,0,.12,0,.24,0,.36,0-.46,0-.91,0-1.38a27.27,27.27,0,0,1,1.32-8.74,20.68,20.68,0,0,1,3.64-6.69,15.74,15.74,0,0,1,5.6-4.27,17.27,17.27,0,0,1,7.28-1.5,15.42,15.42,0,0,1,8.6,2.45q3.78,2.46,6.14,8.1l16.93-7q-4.72-9.73-12.83-14.38a37.27,37.27,0,0,0-18.84-4.64,40.86,40.86,0,0,0-15,2.64,33.51,33.51,0,0,0-11.51,7.37,32.3,32.3,0,0,0-7.38,11.43A40.32,40.32,0,0,0,464.87,39a40,40,0,0,0,2.64,14.79,33.57,33.57,0,0,0,7.37,11.47,32.83,32.83,0,0,0,11.33,7.41,39,39,0,0,0,14.61,2.64l-.72,0C491.87,70.7,485.72,58.12,483.9,44.21Z"/></g><g class="cls-9"><path class="cls-2" d="M483.91,44.22a25.71,25.71,0,0,1-.33-3.34c0-.11,0-.23,0-.35,0,.12,0,.24,0,.35,0-.45-.05-.9-.05-1.37a27.28,27.28,0,0,1,1.31-8.74,20.47,20.47,0,0,1,3.64-6.69,15.82,15.82,0,0,1,5.59-4.28,17.47,17.47,0,0,1,7.29-1.51,15.42,15.42,0,0,1,8.6,2.46q3.78,2.45,6.15,8.09l16.92-7q-4.74-9.73-12.84-14.37a37.29,37.29,0,0,0-18.84-4.63,40.82,40.82,0,0,0-15,2.65,33.39,33.39,0,0,0-11.51,7.38,32.32,32.32,0,0,0-7.37,11.43A40.53,40.53,0,0,0,464.87,39a39.76,39.76,0,0,0,2.65,14.79,33.46,33.46,0,0,0,7.38,11.46,32.83,32.83,0,0,0,11.33,7.41,38.81,38.81,0,0,0,14.61,2.63l-.72,0C491.89,70.71,485.73,58.12,483.91,44.22Z"/></g><path class="cls-3" d="M479.32,41.39a27.58,27.58,0,0,1-.33-3.34c0-.11,0-.23,0-.35,0,.12,0,.24,0,.35,0-.45-.05-.9-.05-1.37a27.27,27.27,0,0,1,1.32-8.74,20.68,20.68,0,0,1,3.64-6.69A15.82,15.82,0,0,1,489.5,17a17.12,17.12,0,0,1,7.28-1.51,15.4,15.4,0,0,1,8.6,2.46q3.78,2.46,6.15,8.1l16.93-7q-4.74-9.73-12.84-14.38A37.27,37.27,0,0,0,496.78,0a40.86,40.86,0,0,0-15,2.64A33.51,33.51,0,0,0,470.25,10a32.14,32.14,0,0,0-7.37,11.43,40.32,40.32,0,0,0-2.6,14.7,40,40,0,0,0,2.64,14.79,33.58,33.58,0,0,0,7.37,11.46,33,33,0,0,0,11.34,7.42,39,39,0,0,0,14.61,2.64l.77,0C488.78,67.88,481.13,55.3,479.32,41.39Z"/><polygon class="cls-4" points="766.52 38.35 766.83 37.52 780.26 1.76 797.92 1.76 785.91 30.89 783.26 37.67 770.53 70.39 763.43 70.39 758.75 58.98 766.52 38.35"/><polygon class="cls-4" points="797.92 1.76 785.91 30.89 797.92 1.76 797.92 1.76"/><polygon class="cls-4" points="797.92 1.76 786.55 35.18 791.83 70.39 809.57 70.39 797.92 1.76"/><polygon class="cls-4" points="747.22 30.94 747.23 30.89 747.22 30.94 747.22 30.94"/><polygon class="cls-4" points="746.58 35.16 746.58 35.18 735.21 1.76 723.56 70.39 741.31 70.39 746.58 35.16 746.58 35.16"/><polygon class="cls-4" points="758.75 58.81 765.3 35.1 752.87 1.78 735.21 1.78 747.22 30.91 758.59 58.61 758.75 59 758.94 58.28 758.75 58.81"/><polygon class="cls-2" points="335.73 38.27 334.54 35.07 327.93 58.98 335.73 38.27"/></g></g></svg>