<svg xmlns="http://www.w3.org/2000/svg" xmlns:xlink="http://www.w3.org/1999/xlink" viewBox="0 0 1337 1576"><defs><style>.cls-1{isolation:isolate;}.cls-2{opacity:0.36;}.cls-3{fill:none;}.cls-4{opacity:0.3;}.cls-5{fill:#da997b;}.cls-10,.cls-11,.cls-6,.cls-7,.cls-9{mix-blend-mode:soft-light;}.cls-6{fill:url(#Weiß_Schwarz_2);}.cls-7{fill:url(#Weiß_Schwarz_2-2);}.cls-8{fill:#e9c47c;}.cls-9{fill:url(#Weiß_Schwarz_2-3);}.cls-10{fill:url(#Weiß_Schwarz_2-4);}.cls-11{fill:url(#Weiß_Schwarz_2-5);}</style><linearGradient id="Weiß_Schwarz_2" x1="-1037.38" y1="152.92" x2="-1037.38" y2="1895.61" gradientTransform="matrix(0.91, -0.42, 0.42, 0.91, 546.55, -265.05)" gradientUnits="userSpaceOnUse"><stop offset="0" stop-color="#fff"/><stop offset="1" stop-color="#1d1d1b"/></linearGradient><linearGradient id="Weiß_Schwarz_2-2" x1="-869.01" y1="152.92" x2="-869.01" y2="1895.61" xlink:href="#Weiß_Schwarz_2"/><linearGradient id="Weiß_Schwarz_2-3" x1="-1124.26" y1="37.07" x2="146.86" y2="1576.6" xlink:href="#Weiß_Schwarz_2"/><linearGradient id="Weiß_Schwarz_2-4" x1="-1064.62" y1="-12.17" x2="206.5" y2="1527.35" xlink:href="#Weiß_Schwarz_2"/><linearGradient id="Weiß_Schwarz_2-5" x1="372.15" y1="67.42" x2="372.15" y2="1777.58" xlink:href="#Weiß_Schwarz_2"/></defs><title>nif-logo-bg</title><g class="cls-1"><g id="Ebene_2" data-name="Ebene 2"><g id="Ebene_1-2" data-name="Ebene 1"><g class="cls-2"><polygon class="cls-3" points="1079.17 726.9 1178.59 777.8 820.04 0 0 0 0 174.39 1079.17 726.9 1079.17 726.9"/><polygon class="cls-3" points="136.7 775.11 188.06 886.54 188.06 886.54 505.89 1576 1337 1576 1337 1389.64 136.7 775.11"/><polygon class="cls-4" points="188.06 886.54 136.7 775.11 188.06 886.54 188.06 886.54"/><polygon class="cls-4" points="1079.17 726.9 1079.17 726.9 1178.59 777.8 1079.17 726.9"/><polygon class="cls-5" points="0 771.67 0 1576 505.89 1576 188.06 886.54 0 771.67"/><polygon class="cls-6" points="0 771.67 0 1576 505.89 1576 188.06 886.54 0 771.67"/><polygon class="cls-5" points="136.7 775.11 0 706.55 0 771.67 188.06 886.54 136.7 775.11"/><polygon class="cls-4" points="136.7 775.11 0 706.55 0 771.67 188.06 886.54 136.7 775.11"/><polygon class="cls-7" points="136.7 775.11 0 706.55 0 771.67 188.06 886.54 136.7 775.11"/><polygon class="cls-8" points="1337 1389.64 1337 1184.98 1079.17 726.9 0 174.39 0 706.55 136.7 775.11 1337 1389.64"/><polygon class="cls-9" points="1337 1389.64 1337 1184.98 1079.17 726.9 0 174.39 0 706.55 136.7 775.11 1337 1389.64"/><polygon class="cls-8" points="1079.17 726.9 1337 1184.98 1337 1121.44 1178.59 777.8 1079.17 726.9"/><polygon class="cls-4" points="1079.17 726.9 1337 1184.98 1337 1121.44 1178.59 777.8 1079.17 726.9"/><polygon class="cls-10" points="1079.17 726.9 1337 1184.98 1337 1121.44 1178.59 777.8 1079.17 726.9"/><polygon class="cls-5" points="1337 1121.44 1337 0 820.04 0 1178.59 777.8 1337 1121.44"/><polygon class="cls-11" points="1337 1121.44 1337 0 820.04 0 1178.59 777.8 1337 1121.44"/></g></g></g></g></svg>