<svg xmlns="http://www.w3.org/2000/svg" viewBox="0 0 162 172"><defs><style>.cls-1{fill:none;}.cls-2{fill:#f1f1f1;}.cls-3{fill:#19bb9b;}.cls-4{fill:#17dcb1;}.cls-5{fill:#bbc2c5;}.cls-6{fill:#eaeced;}.cls-7{fill:#f0c310;}.cls-8{fill:#fef45b;}.cls-9{fill:#f8e297;}.cls-10{fill:#fef9b2;}</style></defs><title>produktfilm-thumb</title><g id="Ebene_2" data-name="Ebene 2"><g id="Ebene_3" data-name="Ebene 3"><path class="cls-1" d="M0,0V.74L.8,0Z"/><path class="cls-1" d="M121,0q25.15,22.16,29.56,55.84c3.4,25.8-3.48,48.66-19.69,68.88a81,81,0,0,1-35.45,26h0a5.52,5.52,0,0,1-3.6,1.71h0a6.08,6.08,0,0,1-3.63,1h0a82.12,82.12,0,0,1-50.82,1.1h0A77.27,77.27,0,0,1,4.8,138.06c-1.67-1.29-3.26-2.63-4.8-4V172H162V0Z"/><path class="cls-1" d="M91.6,125.27h0Z"/><path class="cls-2" d="M5.07,91C4,73.87,8.44,57.94,15.31,42.54,19.84,32.4,24.67,22.39,29,12.18A92.24,92.24,0,0,0,33.31,0H.8L0,.74V134.07c1.54,1.36,3.13,2.7,4.8,4Z"/><path class="cls-3" d="M8.73,65.6A90.34,90.34,0,0,0,6.19,89.54a7.78,7.78,0,0,1,6.1-2.19c6.16.15,12.33,0,18.5.07,4.63.07,6.65,2,6.66,6.62,0,20.16,0,40.32-.07,60.49h0a82.12,82.12,0,0,0,50.82-1.1h0c.2-10-2.64-19.13-9.45-26.5-15.57-16.84-17.72-37-15.33-58.5a211.79,211.79,0,0,1,3.76-23.06c.62-2.72,1.84-3.17,4.28-3.28,3.18-.15,6.52,1.11,9.56-.81h0C74.68,27.72,67.54,14.5,63.47,0H34.54c-2.4,8.91-6.19,17.34-10.1,25.73C18.39,38.7,12,51.53,8.73,65.6Z"/><path class="cls-3" d="M15.31,42.54C8.44,57.94,4,73.87,5.07,91a8.17,8.17,0,0,1,1.12-1.42A90.34,90.34,0,0,1,8.73,65.6C12,51.53,18.39,38.7,24.44,25.73,28.35,17.34,32.14,8.91,34.54,0H33.31A92.24,92.24,0,0,1,29,12.18C24.67,22.39,19.84,32.4,15.31,42.54Z"/><path class="cls-2" d="M80,36.86c.62,1.51,1.61,2.92,1.29,4.69l0,0,.48.53c9.8,0,19.59.15,29.38,0,3.13,0,4.44.94,5.16,4.09A162.67,162.67,0,0,1,120.58,90c-.62,13.73-6.34,25.44-15.19,35.84-6.06,7.12-10.49,15.07-10,24.91h0a81,81,0,0,0,35.45-26C147.09,104.5,154,81.64,150.57,55.84Q146.13,22.18,121,0H64.75C65.93,4.13,67.41,8.19,69,12.24,72.2,20.65,76.59,28.54,80,36.86Z"/><path class="cls-2" d="M81,41.28l.27.3,0,0c.32-1.77-.67-3.18-1.29-4.69C76.59,28.54,72.2,20.65,69,12.24c-1.55-4.05-3-8.11-4.21-12.24H63.47C67.54,14.5,74.68,27.72,81,41.28Z"/><path class="cls-4" d="M36.1,147.56c0-14.91,0-29.82,0-44.73,0-14,0-14-13.8-14h-.45c-5.28-.08-10.59-.35-15.59,1.66,0,.54,0,1.07.08,1.61.1,13.08.06,26.14,0,39.21,0,2.34.47,4.87-1.54,6.79a77.27,77.27,0,0,0,32.58,16.47C35.82,152.41,36.1,149.94,36.1,147.56Z"/><path class="cls-4" d="M6.34,131.27c0-13.07.08-26.13,0-39.21,0-.54-.06-1.07-.08-1.61-.39.16-.78.32-1.17.51l-.27,47.1C6.81,136.14,6.33,133.61,6.34,131.27Z"/><path class="cls-4" d="M22,88.79Z"/><path class="cls-4" d="M37.45,94c0-4.61-2-6.55-6.66-6.62-6.17-.09-12.34.08-18.5-.07a7.78,7.78,0,0,0-6.1,2.19c0,.31,0,.61,0,.91,5-2,10.31-1.74,15.59-1.66h.45c13.8,0,13.8,0,13.8,14,0,14.91,0,29.82,0,44.73,0,2.38-.28,4.85,1.28,7h0C37.41,134.36,37.48,114.2,37.45,94Z"/><path class="cls-4" d="M6.19,89.54A8.17,8.17,0,0,0,5.07,91c.39-.19.78-.35,1.17-.51C6.22,90.15,6.2,89.85,6.19,89.54Z"/><path class="cls-5" d="M94.56,144.34A38.15,38.15,0,0,1,104,125.59c13.85-15.56,17.15-33.8,14.9-53.83C118,64,117,56.26,115.53,48.57c-.73-3.77-2.58-5.18-6.46-5.19-8.85,0-17.72.65-26.57-.41a3,3,0,0,1-.53-.28c2,5.72,4,11.44,5.9,17.19.61,1.83,1.43,3.64,1.16,5.66h0l.9.26,21.2-.11c1.68,0,3.22-.19,3.45,2.3,1.74,18.29,1.55,36.07-11,51.36-3.2,3.91-6.78,6.25-11.86,6.12h0q0,13.49.07,27h0a5.52,5.52,0,0,0,3.6-1.71h0C93.56,148.81,94.17,146.53,94.56,144.34Z"/><path class="cls-5" d="M91.63,125.27h0l.15.19v-.2Z"/><path class="cls-5" d="M105.39,125.82c8.85-10.4,14.57-22.11,15.19-35.84a162.67,162.67,0,0,0-4.27-43.78c-.72-3.15-2-4.14-5.16-4.09-9.79.15-19.58,0-29.38,0,.07.19.13.38.2.58a3,3,0,0,0,.53.28c8.85,1.06,17.72.39,26.57.41,3.88,0,5.73,1.42,6.46,5.19C117,56.26,118,64,118.85,71.76c2.25,20-1,38.27-14.9,53.83a38.15,38.15,0,0,0-9.39,18.75c-.39,2.19-1,4.47.87,6.39C94.9,140.89,99.33,132.94,105.39,125.82Z"/><path class="cls-6" d="M90.6,150.13c-.24-8-1-16,.44-24a4.55,4.55,0,0,1,.57-.81h0a13.09,13.09,0,0,1-10.82-5.11C67.67,104.69,66.9,86.55,69.06,67.69c.26-2.32,1.82-2,3.27-2,5.47-.07,10.93-.11,16.4-.16-2.83-6.68-4.58-13.75-7.29-20.48a2.76,2.76,0,0,1,.16-2.71,2.37,2.37,0,0,1-.42-.64c-2.08,2.66-5.11,1.62-7.75,1.67-3,.06-4.8,1.1-5.47,4.14C64.5,63.19,63,79,64.65,95c1,9.56,5,17.91,10.76,25.46,3,3.94,6.07,7.86,8.74,12.05,3.17,4.95,4.46,10.48,5.12,16.2a5.86,5.86,0,0,1-1.07,4.71,6.08,6.08,0,0,0,3.63-1h0A3.17,3.17,0,0,1,90.6,150.13Z"/><path class="cls-6" d="M89.27,148.72c-.66-5.72-2-11.25-5.12-16.2-2.67-4.19-5.72-8.11-8.74-12.05-5.78-7.55-9.76-15.9-10.76-25.46C63,79,64.5,63.19,68,47.52c.67-3,2.46-4.08,5.47-4.14,2.64-.05,5.67,1,7.75-1.67a2.41,2.41,0,0,1-.16-.43h0c-3,1.92-6.38.66-9.56.81-2.44.11-3.66.56-4.28,3.28a211.79,211.79,0,0,0-3.76,23.06c-2.39,21.5-.24,41.66,15.33,58.5,6.81,7.37,9.65,16.47,9.45,26.5h0A5.86,5.86,0,0,0,89.27,148.72Z"/><path class="cls-6" d="M81.6,42.35a1.77,1.77,0,0,1,.17-.24l-.48-.53a.69.69,0,0,1-.11.13A2.37,2.37,0,0,0,81.6,42.35Z"/><path class="cls-6" d="M81.29,41.58l-.27-.3a2.41,2.41,0,0,0,.16.43A.69.69,0,0,0,81.29,41.58Z"/><path class="cls-6" d="M91.76,125.47h0l-.15-.19a4.55,4.55,0,0,0-.57.81c-1.4,8-.68,16-.44,24a3.17,3.17,0,0,0,1.23,2.31q0-13.49-.07-27Z"/><path class="cls-6" d="M81.44,45.06c2.71,6.73,4.46,13.8,7.29,20.48H89c.27-2-.55-3.83-1.16-5.66C86,54.13,84,48.41,82,42.69a2.41,2.41,0,0,1-.37-.34A2.76,2.76,0,0,0,81.44,45.06Z"/><path class="cls-6" d="M82,42.69c-.07-.2-.13-.39-.2-.58a1.77,1.77,0,0,0-.17.24A2.41,2.41,0,0,0,82,42.69Z"/><path class="cls-7" d="M91.75,125.14a1.9,1.9,0,0,1,.91-.5c8.89-2,12.72-9.18,16.32-16.25,6-11.87,5.39-24.75,4.71-37.55-.16-3-2.17-3.87-5-3.9-6.15-.07-12.32.38-18.46-.27l-.21-.08C93.05,86,91.26,105.62,91.75,125.14Zm8-34.09c1.73.08,2.76,1,2.72,2.77A2.39,2.39,0,0,1,100,96.37a2.43,2.43,0,0,1-2.76-2.74A2.48,2.48,0,0,1,99.8,91.05Zm-1.89,21.74a2.44,2.44,0,0,1,2.8,2.71,2.47,2.47,0,0,1-2.51,2.61c-1.73-.06-2.78-.92-2.77-2.73A2.39,2.39,0,0,1,97.91,112.79Z"/><path class="cls-7" d="M90.26,66.67c6.14.65,12.31.2,18.46.27,2.8,0,4.81.85,5,3.9.68,12.8,1.32,25.68-4.71,37.55-3.6,7.07-7.43,14.29-16.32,16.25a1.9,1.9,0,0,0-.91.5v.13h0v.2h0c5.08.13,8.66-2.21,11.86-6.12,12.51-15.29,12.7-33.07,11-51.36-.23-2.49-1.77-2.31-3.45-2.3l-21.2.11c0,.27.08.53.12.79Z"/><polygon class="cls-7" points="91.76 125.47 91.76 125.47 91.76 125.47 91.76 125.47"/><path class="cls-8" d="M91.69,125.19c-1.64-1.84-1.35-4.13-1.36-6.32,0-9.13-.07-18.26,0-27.38,0-6.75,0-13.47-1.18-20.14-.3-1.68-.64-3.44.35-5a3.89,3.89,0,0,1-.58-.35c0-.1-.08-.21-.13-.31-3.29,2.37-7.08,1.06-10.62,1.16-7.91.23-8.38.46-8.64,8.37-.31,9.34-.17,18.63,2.92,27.64A56.3,56.3,0,0,0,82,119.62c2.44,3.06,6.12,3.64,9.28,5.27l.3.38h0ZM78.11,81.93A2.48,2.48,0,0,1,75.55,79a2.36,2.36,0,0,1,2.65-2.4,2.43,2.43,0,0,1,2.61,2.89C80.71,81.08,79.72,81.86,78.11,81.93Z"/><path class="cls-8" d="M91.69,125.19l-.06.08h.12Z"/><path class="cls-8" d="M88.92,66a3.89,3.89,0,0,0,.58.35,5.32,5.32,0,0,1,.43-.57l-.9-.26h0l-.24.17C88.84,65.81,88.88,65.92,88.92,66Z"/><path class="cls-8" d="M82,119.62a56.3,56.3,0,0,1-9.57-16.74c-3.09-9-3.23-18.3-2.92-27.64.26-7.91.73-8.14,8.64-8.37,3.54-.1,7.33,1.21,10.62-1.16l-.06-.17c-5.47,0-10.93.09-16.4.16-1.45,0-3-.33-3.27,2-2.16,18.86-1.39,37,11.72,52.47a13.09,13.09,0,0,0,10.82,5.11l-.3-.38C88.14,123.26,84.46,122.68,82,119.62Z"/><path class="cls-8" d="M88.79,65.71l.24-.17h-.3Z"/><path class="cls-8" d="M89.15,71.35c1.18,6.67,1.22,13.39,1.18,20.14-.07,9.12,0,18.25,0,27.38,0,2.19-.28,4.48,1.36,6.32l.06,0c-.49-19.52,1.3-39.11-1.7-58.55a3.71,3.71,0,0,1-.55-.22C88.51,67.91,88.85,69.67,89.15,71.35Z"/><path class="cls-8" d="M90.05,66.59c0-.26-.07-.52-.12-.79a5.32,5.32,0,0,0-.43.57A3.71,3.71,0,0,0,90.05,66.59Z"/><path class="cls-8" d="M91.69,125.19l.06.08h0v-.13Z"/><path class="cls-9" d="M100,96.37a2.39,2.39,0,0,0,2.52-2.55c0-1.79-1-2.69-2.72-2.77a2.48,2.48,0,0,0-2.56,2.58A2.43,2.43,0,0,0,100,96.37Z"/><path class="cls-9" d="M98.2,118.11a2.47,2.47,0,0,0,2.51-2.61,2.44,2.44,0,0,0-2.8-2.71,2.39,2.39,0,0,0-2.48,2.59C95.42,117.19,96.47,118.05,98.2,118.11Z"/><path class="cls-10" d="M78.2,76.62A2.36,2.36,0,0,0,75.55,79a2.48,2.48,0,0,0,2.56,2.91c1.61-.07,2.6-.85,2.7-2.42A2.43,2.43,0,0,0,78.2,76.62Z"/></g></g></svg>