<svg xmlns="http://www.w3.org/2000/svg" viewBox="0 0 150 159"><defs><style>.cls-1{fill:none;}.cls-2{fill:#fc6;}.cls-3{fill:#de9174;}.cls-4{fill:#d25400;}.cls-5{fill:#b87154;}.cls-6{fill:#fefefe;}.cls-7{fill:#3699db;}</style></defs><title>recruiting-thumb</title><g id="Ebene_2" data-name="Ebene 2"><g id="Ebene_3" data-name="Ebene 3"><path class="cls-1" d="M101.86,0A86.75,86.75,0,0,1,130,64.56c0,46.84-35.82,84.8-80,84.8a76.9,76.9,0,0,1-50-18.6V159H150V0Z"/><path class="cls-2" d="M143,67A87.8,87.8,0,0,0,112.05,0H0V135.69A88,88,0,0,0,143,67ZM31.36,110.9h0c-3.4,0-6.8.14-10.2,0-4.79-.13-7.86-3-7.88-7.82-.09-16.88-.4-33.77.06-50.64C14,28.77,35,9.08,58.44,9.61c20,.44,38.71,17.25,41.85,37.63a60.44,60.44,0,0,1,.71,9.4c0,15,0,30,0,45,0,6.67-2.72,9.34-9.44,9.36-2.9,0-5.79,0-8.69-.07-5.81,3.73-11.63,7.27-18.66,8.48a39,39,0,0,1-29-6.09C33.93,112.47,32.64,111.69,31.36,110.9Z"/><path class="cls-3" d="M64.2,119.38c7-1.21,12.85-4.75,18.66-8.48,3.8-4.21,7.61-8.37,10-13.66a38.77,38.77,0,0,0,3.61-15.72c0-8.07,0-16.14,0-24.21,0-1.66,0-3.16-1.88-4.12-7.89-4-14-10.27-19.87-16.71-1.88-2.06-3.17-2.32-5.59-.8C55.44,44.24,40.9,50.76,25,53.81c-7.19,1.37-7.18,1.41-7.18,8.8,0,6.3-.08,12.61,0,18.91a38.66,38.66,0,0,0,10.54,26c1,1.12,2,2.23,3,3.35h0c1.28.79,2.57,1.57,3.83,2.39A39,39,0,0,0,64.2,119.38ZM71.92,58a9.06,9.06,0,1,1-8.73,9.11A9.17,9.17,0,0,1,71.92,58Zm-39,9A9.06,9.06,0,1,1,42,76.15,9.18,9.18,0,0,1,32.92,67ZM42,93c-.11-2.14.46-3.32,2.89-3.26,4.14.11,8.29,0,12.44,0,3.9,0,7.8.1,11.69,0,2.46-.09,3.38.83,3.23,3.3-.47,7.88-7.73,15-15.34,14.88C49.45,107.83,42.38,100.72,42,93Z"/><path class="cls-4" d="M22.88,103.2A40.32,40.32,0,0,1,16.2,81.47c0-7.56-.09-15.12.05-22.68.07-3.81,1.41-5.46,4.93-6C37.48,50.2,52.36,44,66.41,35.51c5.29-3.18,6.41-3.09,10.76,1.34,5.3,5.4,10.66,10.7,17.26,14.57,2.07,1.21,3.54,3,3.5,5.48-.16,10.56,1,21.17-.72,31.68-1.15,7.14-4.49,13.3-9,18.87-1.43,1.75-3.41,2.52-5.33,3.45,2.9,0,5.79.08,8.69.07,6.72,0,9.44-2.69,9.44-9.36,0-15,0-30,0-45a60.44,60.44,0,0,0-.71-9.4C97.15,26.86,78.49,10.05,58.44,9.61,35,9.08,14,28.77,13.34,52.48c-.46,16.87-.15,33.76-.06,50.64,0,4.77,3.09,7.69,7.88,7.82,3.4.1,6.8,0,10.2,0h0C27.31,109.69,25,106.52,22.88,103.2Z"/><path class="cls-4" d="M17.8,81.52c-.11-6.3,0-12.61,0-18.91,0-7.39,0-7.43,7.18-8.8,16-3.05,30.49-9.57,44.16-18.13,2.42-1.52,3.71-1.26,5.59.8,5.86,6.44,12,12.67,19.87,16.71,1.87,1,1.88,2.46,1.88,4.12,0,8.07,0,16.14,0,24.21a38.77,38.77,0,0,1-3.61,15.72c-2.36,5.29-6.17,9.45-10,13.66,1.92-.93,3.9-1.7,5.33-3.45,4.53-5.57,7.87-11.73,9-18.87,1.71-10.51.56-21.12.72-31.68,0-2.48-1.43-4.27-3.5-5.48-6.6-3.87-12-9.17-17.26-14.57-4.35-4.43-5.47-4.52-10.76-1.34C52.36,44,37.48,50.2,21.18,52.77c-3.52.56-4.86,2.21-4.93,6-.14,7.56,0,15.12-.05,22.68a40.32,40.32,0,0,0,6.68,21.73c2.09,3.32,4.43,6.49,8.48,7.7-1-1.12-2-2.23-3-3.35A38.66,38.66,0,0,1,17.8,81.52Z"/><path class="cls-5" d="M72.24,93.06c.15-2.47-.77-3.39-3.23-3.3-3.89.13-7.79,0-11.69,0-4.15,0-8.3.08-12.44,0-2.43-.06-3,1.12-2.89,3.26.39,7.7,7.46,14.81,14.91,14.92C64.51,108.06,71.77,100.94,72.24,93.06ZM45.53,95.22c-.47-1.84-.19-2.5,1.79-2.43,3.27.11,6.54,0,9.81,0s6.54.08,9.81,0c2-.07,2.2.68,1.74,2.46-1.41,5.5-6.29,9.66-11.58,9.65S46.94,100.72,45.53,95.22Z"/><path class="cls-6" d="M51,67A9.06,9.06,0,1,0,42,76.15,9.15,9.15,0,0,0,51,67ZM41.9,71.52a4.44,4.44,0,0,1,0-8.87c2.8,0,4.26,1.71,4.64,4.42C46.15,69.8,44.7,71.59,41.9,71.52Z"/><path class="cls-6" d="M72.39,76.15a9.06,9.06,0,1,0-9.2-9A9.16,9.16,0,0,0,72.39,76.15Zm-.18-13.5c2.8,0,4.23,1.77,4.58,4.47-.42,2.74-1.89,4.51-4.69,4.4a4.44,4.44,0,0,1,.11-8.87Z"/><path class="cls-6" d="M68.68,95.25c.46-1.78.3-2.53-1.74-2.46-3.27.11-6.54,0-9.81,0s-6.54.08-9.81,0c-2-.07-2.26.59-1.79,2.43,1.41,5.5,6.28,9.68,11.57,9.68S67.27,100.75,68.68,95.25Z"/><path class="cls-7" d="M41.88,62.65a4.44,4.44,0,0,0,0,8.87c2.8.07,4.25-1.72,4.62-4.45C46.14,64.36,44.68,62.6,41.88,62.65Z"/><path class="cls-7" d="M72.1,71.52c2.8.11,4.27-1.66,4.69-4.4-.35-2.7-1.78-4.47-4.58-4.47a4.44,4.44,0,0,0-.11,8.87Z"/></g></g></svg>