<svg xmlns="http://www.w3.org/2000/svg" xmlns:xlink="http://www.w3.org/1999/xlink" viewBox="0 0 1663.37 833.73"><defs><style>.cls-1{isolation:isolate;}.cls-2{fill:#6e2e2e;}.cls-3{fill:#943d4c;}.cls-4{fill:#872c3c;}.cls-5{fill:#66212d;}.cls-6{fill:#7d2824;}.cls-7{fill:#b44c46;}.cls-8{fill:#ababab;}.cls-9{fill:#f0f0f0;}.cls-10{fill:url(#linear-gradient);}.cls-11{fill:#947e7e;}.cls-12{fill:url(#linear-gradient-2);}.cls-13{fill:url(#linear-gradient-3);}.cls-14{fill:#e0b3be;}.cls-15{fill:#b4453f;}.cls-16{fill:#db6e6e;}.cls-17{fill:#d17f92;}.cls-18{fill:#925966;}.cls-19{fill:#882735;}.cls-20{fill:#924556;}.cls-21{fill:#d5c4c1;}.cls-22{fill:#966c63;}.cls-23{fill:#c1a19a;}.cls-24{fill:#d4d4d4;}.cls-25{fill:#ffebe7;}.cls-26,.cls-49{fill:#ffe0bd;mix-blend-mode:overlay;}.cls-26{opacity:0.63;}.cls-27{fill:#83413e;}.cls-28{fill:url(#linear-gradient-4);}.cls-29{fill:url(#linear-gradient-5);}.cls-30{fill:#780d6b;opacity:0.41;}.cls-30,.cls-47{mix-blend-mode:multiply;}.cls-31{fill:#a15b64;}.cls-32{fill:#bd7384;}.cls-33{fill:#ccb993;}.cls-34{fill:#dacbac;}.cls-35{fill:#ffedc9;}.cls-36{fill:#cf9c7e;}.cls-37{fill:#ed8eab;}.cls-38{fill:#c4c4c4;}.cls-39{fill:#a88184;}.cls-40{fill:#a84148;}.cls-41{fill:#b4403a;}.cls-42{fill:url(#linear-gradient-6);}.cls-43{fill:url(#linear-gradient-7);}.cls-44{fill:#b47b79;}.cls-45{fill:#cfa5ae;}.cls-46{fill:#cf8092;}.cls-47{fill:#923f52;opacity:0.23;}.cls-48{fill:#c9a5ac;}.cls-49{opacity:0.42;}</style><linearGradient id="linear-gradient" x1="1367.76" y1="832.86" x2="1367.76" y2="593.77" gradientUnits="userSpaceOnUse"><stop offset="0" stop-color="#5c1c20"/><stop offset="1" stop-color="#852c26"/></linearGradient><linearGradient id="linear-gradient-2" x1="1540" y1="832.86" x2="1540" y2="593.77" gradientUnits="userSpaceOnUse"><stop offset="0" stop-color="#862636"/><stop offset="1" stop-color="#b8433b"/></linearGradient><linearGradient id="linear-gradient-3" x1="1500.21" y1="593.77" x2="1500.21" y2="532.53" gradientUnits="userSpaceOnUse"><stop offset="0" stop-color="#af3e3a"/><stop offset="1" stop-color="#b8433b"/></linearGradient><linearGradient id="linear-gradient-4" x1="371.35" y1="832.86" x2="371.35" y2="248.79" gradientUnits="userSpaceOnUse"><stop offset="0.12" stop-color="#9e3749"/><stop offset="1" stop-color="#d76e41"/></linearGradient><linearGradient id="linear-gradient-5" x1="485.87" y1="832.86" x2="485.87" y2="248.79" gradientUnits="userSpaceOnUse"><stop offset="0.12" stop-color="#bf4e57"/><stop offset="1" stop-color="#ff906e"/></linearGradient><linearGradient id="linear-gradient-6" x1="240.69" y1="832.86" x2="240.69" y2="550.77" xlink:href="#linear-gradient-4"/><linearGradient id="linear-gradient-7" x1="126.45" y1="832.86" x2="126.45" y2="598.86" xlink:href="#linear-gradient-2"/></defs><title>skyline_layer_3</title><g class="cls-1"><g id="layer03"><polygon class="cls-2" points="1543.38 832.86 1663.38 832.86 1663.38 429.04 1543.38 466.61 1543.38 832.86"/><polygon class="cls-3" points="1591.04 484.76 1580.54 487.25 1580.54 508.42 1591.04 506.39 1591.04 484.76"/><polygon class="cls-4" points="1612.54 479.66 1601.04 482.39 1601.04 504.46 1612.54 502.24 1612.54 479.66"/><polygon class="cls-5" points="1637.54 473.73 1623.54 477.05 1623.54 500.12 1637.54 497.41 1637.54 473.73"/><polygon class="cls-3" points="1562.54 491.52 1562.54 511.9 1571.04 510.26 1571.04 489.51 1562.54 491.52"/><polygon class="cls-3" points="1591.04 522.1 1580.54 523.79 1580.54 543.51 1591.04 542.25 1591.04 522.1"/><polygon class="cls-4" points="1612.54 518.64 1601.04 520.49 1601.04 541.05 1612.54 539.67 1612.54 518.64"/><polygon class="cls-3" points="1637.54 514.61 1623.54 516.86 1623.54 538.35 1637.54 536.67 1637.54 514.61"/><polygon class="cls-5" points="1562.54 526.69 1562.54 545.67 1571.04 544.65 1571.04 525.32 1562.54 526.69"/><polygon class="cls-4" points="1562.54 562.98 1562.54 581.4 1571.04 581.04 1571.04 562.28 1562.54 562.98"/><polygon class="cls-4" points="1637.54 556.78 1623.54 557.94 1623.54 578.79 1637.54 578.2 1637.54 556.78"/><polygon class="cls-3" points="1591.04 560.62 1580.54 561.49 1580.54 580.63 1591.04 580.18 1591.04 560.62"/><polygon class="cls-5" points="1612.54 558.85 1601.04 559.8 1601.04 579.76 1612.54 579.26 1612.54 558.85"/><polygon class="cls-4" points="1562.54 598.71 1562.54 616.01 1571.04 616.29 1571.04 598.66 1562.54 598.71"/><polygon class="cls-4" points="1591.04 598.55 1580.54 598.61 1580.54 616.59 1591.04 616.93 1591.04 598.55"/><polygon class="cls-4" points="1612.54 598.44 1601.04 598.5 1601.04 617.25 1612.54 617.62 1612.54 598.44"/><polygon class="cls-3" points="1637.54 598.31 1623.54 598.38 1623.54 617.97 1637.54 618.42 1637.54 598.31"/><polygon class="cls-4" points="1591.04 635.89 1580.54 635.15 1580.54 653.62 1591.04 654.77 1591.04 635.89"/><polygon class="cls-5" points="1612.54 637.42 1601.04 636.6 1601.04 655.86 1612.54 657.12 1612.54 637.42"/><polygon class="cls-4" points="1637.54 639.19 1623.54 638.2 1623.54 658.32 1637.54 659.85 1637.54 639.19"/><polygon class="cls-4" points="1562.54 633.88 1562.54 651.65 1571.04 652.58 1571.04 634.48 1562.54 633.88"/><polygon class="cls-6" points="1402.75 595.61 1402.7 570.63 1421 550.81 1500.38 532.53 1470.38 557.2 1470.38 593.77 1402.75 595.61"/><rect class="cls-7" x="1617.02" y="661.36" width="2.58" height="25.88"/><rect class="cls-7" x="1642.73" y="661.36" width="2.58" height="25.88"/><rect class="cls-7" x="1613.13" y="671.8" width="36.28" height="2.72" transform="translate(1.95 1351.03) rotate(-45.01)"/><rect class="cls-7" x="1629.77" y="655.02" width="2.73" height="36.28" transform="translate(1.75 1350.55) rotate(-45)"/><polygon class="cls-8" points="1631.16 616.63 1615.02 629.49 1615.02 661.36 1647.32 661.36 1647.32 629.49 1631.16 616.63"/><rect class="cls-8" x="1351.21" y="592.66" width="18.33" height="24.5"/><rect class="cls-9" x="1363.87" y="592.66" width="5.67" height="23.45"/><polygon class="cls-10" points="1416.63 832.86 1318.89 832.86 1318.89 607.67 1416.63 593.77 1416.63 832.86"/><rect class="cls-11" x="1566.04" y="584.77" width="18.33" height="24.5"/><rect class="cls-9" x="1578.71" y="584.77" width="5.67" height="23.45"/><rect class="cls-11" x="1544.04" y="584.77" width="18.33" height="24.5"/><rect class="cls-9" x="1556.71" y="584.77" width="5.67" height="23.45"/><polygon class="cls-12" points="1599.38 685.27 1599.38 593.77 1416.63 593.77 1416.63 832.86 1588.43 832.86 1599.38 832.86 1663.38 832.86 1663.38 685.27 1599.38 685.27"/><polygon class="cls-13" points="1530.04 593.77 1530.04 558.87 1500.38 532.53 1470.38 557.2 1470.38 593.77 1530.04 593.77"/><rect class="cls-14" x="1461.5" y="620.86" width="9.75" height="21.8"/><rect class="cls-14" x="1430.12" y="620.86" width="9.75" height="21.8"/><rect class="cls-15" x="1578.37" y="620.86" width="9.75" height="21.8"/><rect class="cls-14" x="1474.12" y="620.86" width="9.75" height="21.8"/><rect class="cls-14" x="1486.74" y="620.86" width="9.75" height="21.8"/><rect class="cls-14" x="1524" y="620.86" width="9.75" height="21.8"/><rect class="cls-14" x="1536.62" y="620.86" width="9.75" height="21.8"/><rect class="cls-14" x="1549.24" y="620.86" width="9.75" height="21.8"/><rect class="cls-15" x="1461.5" y="663.36" width="9.75" height="21.8"/><rect class="cls-16" x="1430.12" y="663.36" width="9.75" height="21.8"/><rect class="cls-14" x="1578.37" y="663.36" width="9.75" height="21.8"/><rect class="cls-15" x="1474.12" y="663.36" width="9.75" height="21.8"/><rect class="cls-15" x="1486.74" y="663.36" width="9.75" height="21.8"/><rect class="cls-17" x="1524" y="663.36" width="9.75" height="21.8"/><rect class="cls-17" x="1536.62" y="663.36" width="9.75" height="21.8"/><rect class="cls-17" x="1549.24" y="663.36" width="9.75" height="21.8"/><rect class="cls-17" x="1461.5" y="705.86" width="9.75" height="21.8"/><rect class="cls-14" x="1430.12" y="705.86" width="9.75" height="21.8"/><rect class="cls-17" x="1578.37" y="705.86" width="9.75" height="21.8"/><rect class="cls-17" x="1474.12" y="705.86" width="9.75" height="21.8"/><rect class="cls-17" x="1486.74" y="705.86" width="9.75" height="21.8"/><rect class="cls-14" x="1524" y="705.86" width="9.75" height="21.8"/><rect class="cls-14" x="1536.62" y="705.86" width="9.75" height="21.8"/><rect class="cls-14" x="1549.24" y="705.86" width="9.75" height="21.8"/><rect class="cls-18" x="1609" y="705.86" width="9.75" height="21.8"/><rect class="cls-18" x="1621.62" y="705.86" width="9.75" height="21.8"/><rect class="cls-18" x="1634.24" y="705.86" width="9.75" height="21.8"/><rect class="cls-16" x="1461.5" y="748.36" width="9.75" height="21.8"/><rect class="cls-17" x="1430.12" y="748.36" width="9.75" height="21.8"/><rect class="cls-4" x="1578.37" y="748.36" width="9.75" height="21.8"/><rect class="cls-16" x="1474.12" y="748.36" width="9.75" height="21.8"/><rect class="cls-16" x="1486.74" y="748.36" width="9.75" height="21.8"/><rect class="cls-18" x="1524" y="748.36" width="9.75" height="21.8"/><rect class="cls-18" x="1536.62" y="748.36" width="9.75" height="21.8"/><rect class="cls-18" x="1549.24" y="748.36" width="9.75" height="21.8"/><rect class="cls-4" x="1609" y="748.36" width="9.75" height="21.8"/><rect class="cls-4" x="1621.62" y="748.36" width="9.75" height="21.8"/><rect class="cls-4" x="1634.24" y="748.36" width="9.75" height="21.8"/><rect class="cls-17" x="1461.5" y="790.86" width="9.75" height="21.8"/><rect class="cls-19" x="1430.12" y="790.86" width="9.75" height="21.8"/><rect class="cls-20" x="1578.37" y="790.86" width="9.75" height="21.8"/><rect class="cls-17" x="1474.12" y="790.86" width="9.75" height="21.8"/><rect class="cls-17" x="1486.74" y="790.86" width="9.75" height="21.8"/><rect class="cls-18" x="1524" y="790.86" width="9.75" height="21.8"/><rect class="cls-18" x="1536.62" y="790.86" width="9.75" height="21.8"/><rect class="cls-20" x="1549.24" y="790.86" width="9.75" height="21.8"/><rect class="cls-18" x="1609" y="790.86" width="9.75" height="21.8"/><rect class="cls-18" x="1621.62" y="790.86" width="9.75" height="21.8"/><rect class="cls-18" x="1634.24" y="790.86" width="9.75" height="21.8"/><polygon class="cls-3" points="1355.38 627.89 1344.88 628.99 1344.88 650.15 1355.38 649.53 1355.38 627.89"/><polygon class="cls-4" points="1376.88 625.66 1365.38 626.86 1365.38 648.93 1376.88 648.24 1376.88 625.66"/><polygon class="cls-3" points="1401.88 623.06 1387.88 624.52 1387.88 647.58 1401.88 646.75 1401.88 623.06"/><polygon class="cls-3" points="1326.88 630.86 1326.88 651.23 1335.38 650.72 1335.38 629.97 1326.88 630.86"/><polygon class="cls-3" points="1355.38 665.23 1344.88 665.52 1344.88 685.24 1355.38 685.38 1355.38 665.23"/><polygon class="cls-4" points="1376.88 664.64 1365.38 664.96 1365.38 685.52 1376.88 685.67 1376.88 664.64"/><polygon class="cls-3" points="1401.88 663.94 1387.88 664.33 1387.88 685.82 1401.88 686 1401.88 663.94"/><polygon class="cls-4" points="1326.88 666.03 1326.88 685.01 1335.38 685.12 1335.38 665.79 1326.88 666.03"/><polygon class="cls-4" points="1326.88 702.31 1326.88 720.74 1335.38 721.5 1335.38 702.74 1326.88 702.31"/><polygon class="cls-4" points="1401.88 706.12 1387.88 705.41 1387.88 726.26 1401.88 727.53 1401.88 706.12"/><polygon class="cls-3" points="1355.38 703.76 1344.88 703.22 1344.88 722.37 1355.38 723.32 1355.38 703.76"/><polygon class="cls-4" points="1376.88 704.85 1365.38 704.26 1365.38 724.22 1376.88 725.26 1376.88 704.85"/><polygon class="cls-4" points="1326.88 738.04 1326.88 755.35 1335.38 756.75 1335.38 739.13 1326.88 738.04"/><polygon class="cls-4" points="1355.38 741.69 1344.88 740.34 1344.88 758.33 1355.38 760.06 1355.38 741.69"/><polygon class="cls-4" points="1376.88 744.44 1365.38 742.97 1365.38 761.72 1376.88 763.62 1376.88 744.44"/><polygon class="cls-3" points="1401.88 747.64 1387.88 745.85 1387.88 765.44 1401.88 767.76 1401.88 747.64"/><polygon class="cls-4" points="1355.38 779.03 1344.88 776.88 1344.88 795.35 1355.38 797.9 1355.38 779.03"/><polygon class="cls-4" points="1376.88 783.42 1365.38 781.07 1365.38 800.33 1376.88 803.12 1376.88 783.42"/><polygon class="cls-4" points="1401.88 788.52 1387.88 785.66 1387.88 805.79 1401.88 809.18 1401.88 788.52"/><polygon class="cls-4" points="1326.88 773.21 1326.88 790.99 1335.38 793.05 1335.38 774.95 1326.88 773.21"/><polygon class="cls-21" points="1599.38 595.11 1599.38 590.86 1416.63 590.86 1416.63 595.24 1599.38 595.11"/><polygon class="cls-22" points="1416.63 590.86 1318.89 605.67 1318.89 608.37 1416.63 595.24 1416.63 590.86"/><polygon class="cls-23" points="1421 550.81 1500.5 532.18 1470.38 557.2 1399.47 571.27 1421 550.81"/><polygon class="cls-24" points="1500.5 532.18 1531.94 560.63 1531.94 563.3 1500.38 534.7 1470.38 560.11 1470.38 557.2 1500.5 532.18"/><rect class="cls-25" x="1599.37" y="680.53" width="64" height="4.74"/><polygon class="cls-26" points="1663.38 685.27 1599.38 685.27 1599.38 593.77 1416.63 595.24 1416.63 812.76 1484.94 812.76 1529.93 740.76 1589.93 740.76 1609.43 710.76 1663.38 710.76 1663.38 685.27"/><polygon class="cls-26" points="1470.38 567.7 1499.54 542.2 1530.04 567.87 1530.04 591.77 1470.21 591.8 1470.38 567.7"/><polygon class="cls-9" points="1638.04 661.36 1638.04 629.2 1631.16 616.63 1647.32 629.49 1647.32 661.36 1638.04 661.36"/><polygon class="cls-22" points="1470.38 560.11 1399.47 573.24 1399.47 571.27 1470.38 557.2 1470.38 560.11"/><rect class="cls-14" x="1487.87" y="560.36" width="11" height="12.5"/><rect class="cls-14" x="1501.37" y="560.36" width="11" height="12.5"/><path class="cls-27" d="M1445.5,564.72c.18,0,0,26.14,0,26.14h-6.38v-25Z"/><rect class="cls-8" x="423.37" y="230.2" width="18.33" height="24.5"/><rect class="cls-9" x="436.04" y="230.2" width="5.67" height="23.45"/><rect class="cls-8" x="311.37" y="211.7" width="18.33" height="24.5"/><rect class="cls-9" x="324.04" y="211.7" width="5.67" height="23.45"/><rect class="cls-8" x="335.71" y="211.7" width="18.33" height="24.5"/><rect class="cls-9" x="348.37" y="211.7" width="5.67" height="23.45"/><polygon class="cls-9" points="457 238.2 514.74 300.63 514.74 333.53 453.71 248.79 457 238.2"/><rect class="cls-28" x="285.71" y="248.79" width="171.29" height="584.07"/><polygon class="cls-29" points="457 248.79 514.74 309.64 514.74 832.86 457 832.86 457 248.79"/><polygon class="cls-30" points="473.34 267.46 473.34 832.86 482.52 832.86 482.52 278.45 473.34 267.46"/><polygon class="cls-30" points="487.2 284.12 487.2 832.86 496.38 832.86 496.38 294.85 487.2 284.12"/><polygon class="cls-31" points="473.34 671.46 473.34 695.07 478.04 694.88 478.04 671.59 473.34 671.46"/><polygon class="cls-32" points="473.34 626.55 473.34 649.93 478.04 650.34 478.04 627.27 473.34 626.55"/><polygon class="cls-20" points="473.34 716.37 473.34 740.21 478.04 739.42 478.04 715.9 473.34 716.37"/><polygon class="cls-20" points="473.34 806.2 473.34 826.6 478.04 824.65 478.04 804.53 473.34 806.2"/><polygon class="cls-32" points="473.34 581.63 473.34 605.74 478.04 606.75 478.04 582.96 473.34 581.63"/><polygon class="cls-32" points="473.34 761.29 473.34 785.35 478.04 783.95 478.04 760.21 473.34 761.29"/><polygon class="cls-33" points="473.34 357.06 473.34 381 478.04 385 478.04 361.39 473.34 357.06"/><polygon class="cls-34" points="473.34 401.83 473.34 426.14 478.04 429.54 478.04 405.51 473.34 401.83"/><polygon class="cls-35" points="473.34 312.15 473.34 335.86 478.04 340.46 478.04 317.07 473.34 312.15"/><polygon class="cls-34" points="473.34 536.72 473.34 560.6 478.04 562.21 478.04 538.64 473.34 536.72"/><polygon class="cls-36" points="473.34 491.81 473.34 515.46 478.04 517.67 478.04 494.33 473.34 491.81"/><polygon class="cls-36" points="473.34 446.89 473.34 471.28 478.04 474.08 478.04 450.02 473.34 446.89"/><polygon class="cls-32" points="487.2 628.68 487.2 651.15 492.38 651.6 492.38 629.48 487.2 628.68"/><polygon class="cls-31" points="487.2 671.83 487.2 694.51 492.38 694.3 492.38 671.97 487.2 671.83"/><polygon class="cls-34" points="487.2 585.54 487.2 608.7 492.38 609.8 492.38 587 487.2 585.54"/><polygon class="cls-31" points="487.2 758.12 487.2 781.24 492.38 779.7 492.38 756.94 487.2 758.12"/><polygon class="cls-31" points="487.2 714.98 487.2 737.87 492.38 737 492.38 714.45 487.2 714.98"/><polygon class="cls-35" points="487.2 369.81 487.2 392.8 492.38 397.21 492.38 374.57 487.2 369.81"/><polygon class="cls-34" points="487.2 542.39 487.2 565.34 492.38 567.11 492.38 544.51 487.2 542.39"/><polygon class="cls-31" points="487.2 801.27 487.2 820.86 492.38 818.72 492.38 799.42 487.2 801.27"/><polygon class="cls-34" points="487.2 326.67 487.2 349.44 492.38 354.51 492.38 332.09 487.2 326.67"/><polygon class="cls-36" points="487.2 499.25 487.2 521.97 492.38 524.4 492.38 502.03 487.2 499.25"/><polygon class="cls-36" points="487.2 412.68 487.2 436.17 492.38 439.91 492.38 416.73 487.2 412.68"/><polygon class="cls-34" points="487.2 456.1 487.2 479.53 492.38 482.61 492.38 459.54 487.2 456.1"/><polygon class="cls-26" points="457 248.79 457 576.86 514.74 632.86 514.74 309.64 457 248.79"/><rect class="cls-30" x="415.49" y="284.86" width="18" height="548"/><rect class="cls-30" x="388.49" y="284.86" width="18" height="548"/><rect class="cls-30" x="361.5" y="284.86" width="18" height="548"/><rect class="cls-30" x="334.5" y="284.86" width="18" height="548"/><rect class="cls-30" x="307.51" y="284.86" width="18" height="548"/><rect class="cls-37" x="418.87" y="295.03" width="14.45" height="25"/><rect class="cls-18" x="391.88" y="295.03" width="14.45" height="25"/><rect class="cls-32" x="364.98" y="295.03" width="14.18" height="25"/><rect class="cls-18" x="418.87" y="342.03" width="14.45" height="25"/><rect class="cls-37" x="391.88" y="342.03" width="14.45" height="25"/><rect class="cls-32" x="364.98" y="342.03" width="14.18" height="25"/><rect class="cls-18" x="418.87" y="389.03" width="14.45" height="25"/><rect class="cls-4" x="391.88" y="389.03" width="14.45" height="25"/><rect class="cls-20" x="364.98" y="389.03" width="14.18" height="25"/><rect class="cls-37" x="418.87" y="436.03" width="14.45" height="25"/><rect class="cls-32" x="391.88" y="436.03" width="14.45" height="25"/><rect class="cls-18" x="364.98" y="436.03" width="14.18" height="25"/><rect class="cls-4" x="418.87" y="483.03" width="14.45" height="25"/><rect class="cls-32" x="391.88" y="483.03" width="14.45" height="25"/><rect class="cls-18" x="364.98" y="483.03" width="14.18" height="25"/><rect class="cls-18" x="418.87" y="530.03" width="14.45" height="25"/><rect class="cls-18" x="391.88" y="530.03" width="14.45" height="25"/><rect class="cls-4" x="364.98" y="530.03" width="14.18" height="25"/><rect class="cls-18" x="418.87" y="577.03" width="14.45" height="25"/><rect class="cls-32" x="391.88" y="577.03" width="14.45" height="25"/><rect class="cls-20" x="364.98" y="577.03" width="14.18" height="25"/><rect class="cls-18" x="418.87" y="624.03" width="14.45" height="25"/><rect class="cls-20" x="391.88" y="624.03" width="14.45" height="25"/><rect class="cls-20" x="364.98" y="624.03" width="14.18" height="25"/><rect class="cls-20" x="418.87" y="671.03" width="14.45" height="25"/><rect class="cls-18" x="391.88" y="671.03" width="14.45" height="25"/><rect class="cls-32" x="364.98" y="671.03" width="14.18" height="25"/><rect class="cls-18" x="418.87" y="718.03" width="14.45" height="25"/><rect class="cls-20" x="391.88" y="718.03" width="14.45" height="25"/><rect class="cls-4" x="364.98" y="718.03" width="14.18" height="25"/><rect class="cls-18" x="418.87" y="765.03" width="14.45" height="25"/><rect class="cls-18" x="391.88" y="765.03" width="14.45" height="25"/><rect class="cls-32" x="364.98" y="765.03" width="14.18" height="25"/><rect class="cls-20" x="418.87" y="812.03" width="14.45" height="21.33"/><rect class="cls-4" x="391.88" y="812.03" width="14.45" height="21.33"/><rect class="cls-37" x="338.05" y="295.03" width="14.45" height="25"/><rect class="cls-37" x="311.06" y="295.03" width="14.45" height="25"/><rect class="cls-18" x="338.05" y="342.03" width="14.45" height="25"/><rect class="cls-32" x="311.06" y="342.03" width="14.45" height="25"/><rect class="cls-37" x="338.05" y="389.03" width="14.45" height="25"/><rect class="cls-4" x="311.06" y="389.03" width="14.45" height="25"/><rect class="cls-32" x="338.05" y="436.03" width="14.45" height="25"/><rect class="cls-32" x="311.06" y="436.03" width="14.45" height="25"/><rect class="cls-4" x="338.05" y="483.03" width="14.45" height="25"/><rect class="cls-20" x="311.06" y="483.03" width="14.45" height="25"/><rect class="cls-37" x="338.05" y="530.03" width="14.45" height="25"/><rect class="cls-18" x="311.06" y="530.03" width="14.45" height="25"/><rect class="cls-18" x="338.05" y="577.03" width="14.45" height="25"/><rect class="cls-32" x="311.06" y="577.03" width="14.45" height="25"/><rect class="cls-18" x="338.05" y="624.03" width="14.45" height="25"/><rect class="cls-20" x="311.06" y="624.03" width="14.45" height="25"/><rect class="cls-20" x="338.05" y="671.03" width="14.45" height="25"/><rect class="cls-18" x="311.06" y="671.03" width="14.45" height="25"/><rect class="cls-18" x="338.05" y="718.03" width="14.45" height="25"/><rect class="cls-20" x="311.06" y="718.03" width="14.45" height="25"/><rect class="cls-18" x="338.05" y="765.03" width="14.45" height="25"/><rect class="cls-4" x="311.06" y="765.03" width="14.45" height="25"/><rect class="cls-20" x="338.05" y="812.03" width="14.45" height="21.33"/><rect class="cls-4" x="311.06" y="812.03" width="14.45" height="21.33"/><rect class="cls-18" x="364.98" y="812.03" width="14.18" height="21.33"/><rect class="cls-38" x="285.71" y="238.2" width="171.29" height="10.59"/><rect class="cls-38" x="303.33" y="216.91" width="74.71" height="24.5"/><polygon class="cls-9" points="378.04 216.91 403.04 238.2 378.04 238.2 378.04 216.91"/><rect class="cls-8" x="303.33" y="234.2" width="74.71" height="4"/><rect class="cls-39" x="143.71" y="540.86" width="18.33" height="24.5"/><rect class="cls-26" x="156.37" y="540.86" width="5.67" height="23.45"/><polygon class="cls-40" points="210.07 507.63 197.58 517.58 197.58 542.23 222.56 542.23 222.56 517.58 210.07 507.63"/><rect class="cls-40" x="197.58" y="542.23" width="3.54" height="20.01"/><rect class="cls-40" x="219.02" y="542.23" width="3.54" height="20.01"/><rect class="cls-40" x="196.11" y="550.18" width="27.98" height="2.25" transform="translate(-328.26 309.97) rotate(-44.99)"/><rect class="cls-40" x="208.97" y="537.31" width="2.25" height="27.98" transform="translate(-328.33 310.12) rotate(-45.01)"/><polygon class="cls-26" points="210.07 507.63 214.63 518.11 214.63 542.23 222.56 542.23 222.56 517.58 210.07 507.63"/><rect class="cls-41" x="131.9" y="550.77" width="115.11" height="91.49"/><polygon class="cls-42" points="247 550.77 247 624.11 188.21 618.19 188.21 599.37 183 598.87 183 832.86 184 832.86 188.21 832.86 290.9 832.86 298.38 560.86 247 550.77"/><polygon class="cls-26" points="247 550.77 247 624.11 188.21 618.19 188.21 599.37 183 598.87 183 832.86 184 832.86 188.21 832.86 285.71 774.86 285.71 558.38 247 550.77"/><rect class="cls-43" x="68.9" y="598.86" width="115.11" height="234"/><polygon class="cls-44" points="227.28 621.82 227.28 600.86 216.38 600.86 216.38 620.73 227.28 621.82"/><rect class="cls-45" x="215.37" y="566.49" width="13" height="4.75"/><rect class="cls-46" x="192.87" y="566.49" width="13" height="4.75"/><rect class="cls-45" x="170.37" y="566.49" width="13" height="4.75"/><rect class="cls-46" x="147.87" y="566.49" width="13" height="4.75"/><rect class="cls-32" x="84.71" y="629.86" width="13.65" height="18.48"/><rect class="cls-32" x="116.72" y="629.86" width="13.65" height="18.48"/><rect class="cls-32" x="148.72" y="629.86" width="13.65" height="18.48"/><rect class="cls-18" x="84.71" y="671.87" width="13.65" height="18.48"/><rect class="cls-47" x="116.72" y="671.87" width="13.65" height="18.48"/><rect class="cls-32" x="148.72" y="671.87" width="13.65" height="18.48"/><rect class="cls-32" x="84.71" y="713.87" width="13.65" height="18.48"/><rect class="cls-47" x="116.72" y="713.87" width="13.65" height="18.48"/><rect class="cls-18" x="148.72" y="713.87" width="13.65" height="18.48"/><rect class="cls-18" x="84.71" y="755.87" width="13.65" height="18.48"/><rect class="cls-32" x="116.72" y="755.87" width="13.65" height="18.48"/><rect class="cls-47" x="148.72" y="755.87" width="13.65" height="18.48"/><rect class="cls-47" x="84.71" y="797.88" width="13.65" height="18.48"/><rect class="cls-47" x="116.72" y="797.88" width="13.65" height="18.48"/><rect class="cls-18" x="148.72" y="797.88" width="13.65" height="18.48"/><polygon class="cls-30" points="243.53 749.28 196.2 754.3 196.2 649.64 243.53 652.09 243.53 749.28"/><polygon class="cls-48" points="246.04 744.51 198.71 749.53 198.71 644.86 246.04 647.32 246.04 744.51"/><polygon class="cls-49" points="69.9 598.87 184 598.87 184 748.34 138.95 748.34 107.91 698.23 69.9 698.23 69.9 598.87"/></g></g></svg>