<svg id="layer01" xmlns="http://www.w3.org/2000/svg" viewBox="0 0 1663.37 833.73"><defs><style>.cls-1{fill:#c89c9d;}.cls-2{fill:#b37374;}.cls-3{fill:#da9f9d;}.cls-4{fill:#cf9192;}.cls-5{fill:#c8a4b1;}.cls-6{fill:#ababab;}.cls-7{fill:#ffcfa1;}.cls-8{fill:#cc9593;}.cls-9{fill:#bd7073;}.cls-10{fill:#c7898c;}.cls-11{fill:#a34a56;}.cls-12{fill:#802d39;}.cls-13{fill:#fffefa;}</style></defs><title>skyline_layer_1</title><rect class="cls-1" x="1019.96" y="481.27" width="103" height="63"/><rect class="cls-1" x="1042.71" y="466.81" width="43.33" height="26.5"/><polygon class="cls-2" points="1477.38 293.54 1532.21 293.54 1532.21 226.87 1477.38 265.99 1477.38 293.54"/><rect class="cls-3" x="1532.21" y="226.87" width="67" height="42.66"/><rect class="cls-3" x="1498.98" y="262.78" width="134.4" height="570.08"/><rect class="cls-4" x="1521.04" y="272.85" width="14" height="318.02"/><rect class="cls-4" x="1550.71" y="272.85" width="6" height="318.02"/><rect class="cls-4" x="1563.87" y="272.85" width="6" height="318.02"/><rect class="cls-4" x="1577.71" y="272.85" width="6" height="318.02"/><rect class="cls-4" x="1597.38" y="272.85" width="14" height="318.02"/><polygon class="cls-5" points="204.38 385.86 204.38 356.36 198.38 356.36 198.38 338.86 190.63 338.86 190.63 329.86 185.74 329.86 181.88 293.86 180.52 293.86 179.54 267.53 178.01 267.53 177.04 293.86 175.68 293.86 171.81 329.86 166.93 329.86 166.93 338.86 159.18 338.86 159.18 356.36 153.18 356.36 153.18 385.86 144.18 385.86 144.18 832.86 213.38 832.86 213.38 385.86 204.38 385.86"/><polygon class="cls-6" points="28.39 376.81 5.88 387.15 5.88 412.77 50.91 412.77 50.91 387.15 28.39 376.81"/><polygon class="cls-2" points="1429.44 309.11 1429.44 832.86 1498.98 832.86 1498.98 262.79 1429.44 309.11"/><rect class="cls-1" x="233.89" y="502.28" width="115.11" height="139.49"/><polygon class="cls-1" points="558.71 476.71 551 482.16 551 495.65 566.42 495.65 566.42 482.16 558.71 476.71"/><rect class="cls-1" x="553.01" y="495.65" width="1.62" height="10.95"/><rect class="cls-1" x="562.79" y="495.65" width="1.62" height="10.95"/><polygon class="cls-1" points="554.57 506.47 553.84 505.6 562.87 494.77 563.6 495.64 554.57 506.47"/><polygon class="cls-1" points="562.87 506.47 563.6 505.6 554.57 494.77 553.84 495.64 562.87 506.47"/><polygon class="cls-1" points="873.24 383.38 862.43 391.01 862.43 409.92 884.04 409.92 884.04 391.01 873.24 383.38"/><rect class="cls-1" x="865.25" y="409.92" width="2.26" height="15.35"/><rect class="cls-1" x="878.96" y="409.92" width="2.27" height="15.35"/><polygon class="cls-1" points="867.44 425.08 866.42 423.86 879.07 408.68 880.09 409.9 867.44 425.08"/><polygon class="cls-1" points="879.07 425.08 880.09 423.86 867.44 408.68 866.42 409.9 879.07 425.08"/><polygon class="cls-7" points="600.98 502.28 707.88 593.77 600.98 593.77 600.98 502.28"/><rect class="cls-8" x="768.98" y="398.78" width="169.49" height="434.08"/><rect class="cls-9" x="842.37" y="678.86" width="47" height="154"/><rect class="cls-10" x="793.63" y="401.84" width="14" height="318.02"/><rect class="cls-10" x="846.58" y="401.84" width="14" height="277.02"/><rect class="cls-10" x="897.37" y="401.84" width="14" height="318.02"/><rect class="cls-11" x="842.37" y="774.86" width="47" height="58"/><rect class="cls-12" x="842.37" y="813.82" width="47" height="19.05"/><rect class="cls-1" x="485.88" y="502.28" width="115.11" height="91.49"/><polygon class="cls-1" points="965.46 496.98 953.38 502.52 953.38 516.27 977.54 516.27 977.54 502.52 965.46 496.98"/><rect class="cls-8" x="777.21" y="362.86" width="67" height="36.92"/><polygon class="cls-13" points="844.21 362.86 848.71 398.78 844.21 398.78 844.21 362.86"/></svg>