<svg xmlns="http://www.w3.org/2000/svg" xmlns:xlink="http://www.w3.org/1999/xlink" viewBox="0 0 1663.37 833.73"><defs><style>.cls-1{fill:none;}.cls-2{isolation:isolate;}.cls-3{clip-path:url(#clip-path);}.cls-4{fill:#63363f;}.cls-5{fill:#ff9178;}.cls-6{fill:#9e4f4f;}.cls-7{fill:#915653;}.cls-8{fill:#f5d9d0;opacity:0.45;}.cls-10,.cls-15,.cls-21,.cls-22,.cls-8,.cls-9{mix-blend-mode:overlay;}.cls-9{fill:#94ffff;}.cls-10{fill:#a3ffff;}.cls-11{fill:#572d37;}.cls-12{fill:#99767c;}.cls-13{fill:#61444c;}.cls-14{fill:#d1ada1;}.cls-15,.cls-21,.cls-22{fill:#adfff5;}.cls-15{opacity:0.52;}.cls-16{fill:#755a5a;}.cls-17{fill:#ffbd94;}.cls-18{fill:#7d4954;}.cls-19{fill:#cc8a7a;}.cls-20{fill:#59353f;}.cls-22{opacity:0.63;}.cls-23{fill:#42222b;}.cls-24{fill:#a8655c;}.cls-25{fill:#9788a8;mix-blend-mode:multiply;}.cls-26{fill:#fff;}.cls-27{fill:#85433b;}.cls-28{fill:#ffdcd9;}</style><clipPath id="clip-path"><rect class="cls-1" y="9.58" width="1665" height="823"/></clipPath></defs><title>skyline_layer_4</title><g class="cls-2"><g id="layer04"><g class="cls-3"><g id="Bildmaterial_2" data-name="Bildmaterial 2"><polygon class="cls-4" points="1553.12 27.09 1539.94 37.15 1539.94 100.87 1558.3 92.15 1553.12 27.09"/><polygon class="cls-5" points="1553.12 87.49 1553.12 27.09 1579.43 35.06 1579.43 88.81 1553.12 87.49"/><polygon class="cls-4" points="1052.45 138.12 1051.71 87.33 998.33 138.86 999.07 186.69 1052.45 138.12"/><polygon class="cls-6" points="1051.71 87.33 1104.35 87.33 1052.45 138.12 1051.71 87.33"/><polygon class="cls-7" points="943.46 1185.79 939.01 209.39 1103.61 72.6 1663.6 72.6 1663.6 1185.79 943.46 1185.79"/><polygon class="cls-8" points="1270.75 121.87 1291.32 139.61 1424.65 139.61 1424.65 269.04 1501.02 340.98 1501.02 138.12 1646.34 138.12 1646.34 486.29 1663.6 503.04 1663.6 122.68 1270.75 121.87"/><polygon class="cls-4" points="1260.42 1185.79 1143.65 1185.79 1141.42 152.21 1260.42 152.21 1260.42 1185.79"/><polygon class="cls-4" points="1103.61 72.6 1104.91 1185.79 943.46 1185.79 939.01 209.39 1103.61 72.6"/><polygon class="cls-9" points="1242.63 170.75 1145.9 170.75 1146.13 257.49 1242.63 257.49 1242.63 170.75"/><polygon class="cls-10" points="1242.63 310.89 1146.2 314.04 1146.43 395.21 1242.63 391.87 1242.63 310.89"/><polygon class="cls-10" points="1242.63 449.57 1146.51 452.65 1146.73 530.27 1242.63 528.7 1242.63 449.57"/><polygon class="cls-10" points="1242.63 590.56 1146.79 590.72 1147.04 675.15 1242.63 673.54 1242.63 590.56"/><polygon class="cls-11" points="1242.63 728.61 1147.1 731.69 1147.31 809.08 1242.63 811.5 1242.63 728.61"/><polygon class="cls-4" points="1405 1185.79 1290.45 1185.79 1283.78 156.66 1402.78 156.66 1405 1185.79"/><path class="cls-12" d="M1155.27,54.63c-2.91,15.17,5.35,27.51,18.44,27.55s26.07-12.21,29-27.38-5.35-27.51-18.44-27.56S1158.18,39.45,1155.27,54.63Z"/><polygon class="cls-9" points="1385.01 170.75 1288.3 170.75 1288.99 255.75 1385.24 255.66 1385.01 170.75"/><polygon class="cls-10" points="1385.32 315.33 1289.23 315.33 1289.87 391.59 1385.53 393.87 1385.32 315.33"/><polygon class="cls-10" points="1385.61 450.57 1290.1 449.72 1290.73 525.38 1385.82 526.73 1385.61 450.57"/><polygon class="cls-10" points="1385.92 594.74 1291.01 591.82 1291.62 671.09 1386.11 670.6 1385.92 594.74"/><polygon class="cls-10" points="1386.2 729.71 1291.88 727.25 1292.58 813.01 1386.44 812.53 1386.2 729.71"/><polygon class="cls-13" points="1663.6 29.58 1596.29 72.6 1663.6 72.6 1663.6 29.58"/><rect class="cls-4" x="1180.35" y="159.63" width="4.45" height="1026.16" transform="translate(-1.45 2.56) rotate(-0.12)"/><rect class="cls-4" x="1216.93" y="159.63" width="4.45" height="1026.16"/><rect class="cls-4" x="1322.58" y="159.62" width="4.45" height="1026.17" transform="translate(-2.9 5.75) rotate(-0.25)"/><rect class="cls-4" x="1362.5" y="159.63" width="4.45" height="1026.16"/><polygon class="cls-14" points="1663.6 72.6 1103.61 72.6 1103.65 110.69 1663.6 109.57 1663.6 72.6"/><polygon class="cls-14" points="1418.07 158.89 1131.78 158.19 1133.08 142.94 1418.35 145.72 1418.07 158.89"/><polygon class="cls-4" points="1402.8 165.74 1404.98 1185.79 1391.66 1185.79 1402.8 165.74"/><polygon class="cls-4" points="1284.32 163.01 1297.1 1185.79 1283.78 1185.79 1284.32 163.01"/><polygon class="cls-4" points="1623.41 1185.79 1508.86 1185.79 1502.18 156.66 1621.18 156.66 1623.41 1185.79"/><polygon class="cls-9" points="1603.41 170.75 1506.7 170.75 1507.39 255.75 1603.65 255.66 1603.41 170.75"/><polygon class="cls-11" points="1603.72 315.33 1507.63 315.33 1508.27 391.59 1603.94 393.87 1603.72 315.33"/><polygon class="cls-10" points="1604.01 450.57 1508.5 449.72 1509.13 525.38 1604.22 526.73 1604.01 450.57"/><polygon class="cls-10" points="1604.32 594.74 1509.41 591.82 1510.02 671.09 1604.52 670.6 1604.32 594.74"/><polygon class="cls-10" points="1604.61 729.71 1510.28 727.25 1510.98 813.01 1604.85 812.53 1604.61 729.71"/><rect class="cls-4" x="1540.98" y="159.62" width="4.45" height="1026.17" transform="translate(-2.9 6.69) rotate(-0.25)"/><rect class="cls-4" x="1580.9" y="159.63" width="4.45" height="1026.16"/><polygon class="cls-14" points="1637.86 158.89 1489.89 158.19 1489.53 146 1637.44 144.61 1637.86 158.89"/><polygon class="cls-4" points="1621.2 163.33 1623.38 1185.79 1610.06 1185.79 1621.2 163.33"/><polygon class="cls-4" points="1502.72 163.01 1515.5 1185.79 1502.18 1185.79 1502.72 163.01"/><polygon class="cls-4" points="1141.6 162.69 1152.05 1185.79 1138.73 1185.79 1141.6 162.69"/><polygon class="cls-4" points="1260.05 162.69 1261.14 1185.79 1247.82 1185.79 1260.05 162.69"/><polygon class="cls-11" points="1078.4 1185.79 1075.51 95.95 1053.86 113.94 1056.35 1185.79 1078.4 1185.79"/><polygon class="cls-11" points="988.69 1185.79 981.32 174.14 963.45 189.06 967.93 1185.79 988.69 1185.79"/><polygon class="cls-11" points="1005.41 154.06 1011.67 1185.79 1032.81 1185.79 1022.98 139.05 1005.41 154.06"/><polygon class="cls-15" points="980.69 249.73 973.12 254.4 973.12 325.08 981.09 321.63 980.69 249.73"/><polygon class="cls-15" points="1023.68 223.16 1011.83 230.49 1012.38 308.12 1024.26 302.99 1023.68 223.16"/><polygon class="cls-15" points="1071.07 193.88 1060.61 200.35 1060.61 287.29 1071.42 282.61 1071.07 193.88"/><polygon class="cls-11" points="1071.6 328.39 1060.61 332.58 1060.61 412 1071.91 408.45 1071.6 328.39"/><polygon class="cls-15" points="981.32 362.84 973.12 365.97 973.12 439.51 981.74 436.8 981.32 362.84"/><polygon class="cls-15" points="1024.57 346.33 1012.69 350.87 1013.23 426.9 1025.12 423.16 1024.57 346.33"/><polygon class="cls-15" points="981.99 481.8 973.12 483.77 973.12 554.25 982.39 553.24 981.99 481.8"/><polygon class="cls-15" points="1025.48 472.15 1013.57 474.79 1014.11 549.78 1026.02 548.48 1025.48 472.15"/><polygon class="cls-15" points="1072.12 461.8 1060.61 464.35 1060.61 544.72 1072.44 543.43 1072.12 461.8"/><polygon class="cls-11" points="982.63 595.3 973.12 595.37 973.12 668.35 983.04 669.07 982.63 595.3"/><polygon class="cls-15" points="1026.36 595 1014.43 595.09 1014.98 671.39 1026.91 672.26 1026.36 595"/><polygon class="cls-15" points="1072.64 594.68 1060.61 594.77 1060.61 674.71 1072.95 675.6 1072.64 594.68"/><polygon class="cls-15" points="983.32 717.77 973.12 716.73 973.12 787.55 983.72 789.65 983.32 717.77"/><polygon class="cls-15" points="1027.27 722.27 1015.33 721.05 1015.87 796.02 1027.82 798.38 1027.27 722.27"/><polygon class="cls-15" points="1073.15 726.96 1060.61 725.68 1060.61 804.88 1073.47 807.42 1073.15 726.96"/><polygon class="cls-16" points="1103.61 72.6 1103.65 110.69 939.01 241.93 939.01 209.39 1103.61 72.6"/><path class="cls-7" d="M450,163.75c1.41,7.32-2.57,13.26-8.88,13.29s-12.57-5.89-14-13.2,2.58-13.26,8.89-13.29S448.59,156.44,450,163.75Z"/><polygon class="cls-7" points="466.52 210.6 466.81 165.49 380.46 178.65 466.52 210.6"/><polygon class="cls-17" points="466.81 165.49 490.48 174.8 490.64 219.56 466.52 210.6 466.81 165.49"/><polygon class="cls-18" points="203.31 30.77 169.41 51.62 170.4 130.34 237.75 130.34 237.75 52 203.31 30.77"/><polygon class="cls-18" points="170.4 130.34 170.86 168.67 175.44 168.67 176.05 123.77 170.4 130.34"/><polygon class="cls-18" points="237.75 130.34 237.44 168.67 232.86 168.67 231.33 124.38 237.75 130.34"/><polygon class="cls-18" points="233.47 126.82 170.86 165 175.44 165 237.75 130.34 233.47 126.82"/><polygon class="cls-18" points="171.97 133.13 232.86 165 237.44 165 176.97 128.05 171.97 133.13"/><rect class="cls-18" x="164.45" y="167.78" width="79.1" height="9.16"/><polygon class="cls-19" points="203.31 30.77 217.74 53.25 218.51 124.11 237.75 124.11 237.75 52 203.31 30.77"/><polygon class="cls-7" points="-6.16 171.44 361.13 171.44 617.85 266.77 612.19 846.43 -6.16 846.43 -6.16 171.44"/><polygon class="cls-17" points="361.13 171.44 351.36 846.43 612.19 846.43 617.85 266.77 361.13 171.44"/><polygon class="cls-20" points="75.27 171.44 78.93 846.43 28.23 846.43 23.96 171.44 75.27 171.44"/><polygon class="cls-21" points="29.09 248.39 29.55 312.56 72.77 312.72 72.57 248.08 29.09 248.39"/><polygon class="cls-22" points="30.81 557.14 31.99 621.35 73.91 621.5 73.23 556.84 30.81 557.14"/><polygon class="cls-22" points="29.73 401.38 28.94 469.25 72.39 469.4 72.11 401.08 29.73 401.38"/><polygon class="cls-21" points="31.9 707.39 31.9 775.28 74.35 775.44 74.35 707.09 31.9 707.39"/><polygon class="cls-20" points="164.45 171.44 164.45 846.43 111.92 846.43 113.14 171.44 164.45 171.44"/><polygon class="cls-21" points="117.78 247.76 119.86 312.89 159.82 313.04 160.38 247.46 117.78 247.76"/><polygon class="cls-21" points="117.96 556.52 117.39 621.66 160.86 621.82 161.06 556.22 117.96 556.52"/><polygon class="cls-21" points="116.61 400.77 117.16 469.56 159.73 469.71 159.21 400.47 116.61 400.77"/><polygon class="cls-23" points="117.82 706.78 118.55 775.6 160.48 775.75 160.48 706.48 117.82 706.78"/><polygon class="cls-20" points="281.08 171.44 276.23 846.43 201.71 846.43 204.15 171.44 281.08 171.44"/><polygon class="cls-21" points="209.73 247.1 208.82 313.21 275.27 313.45 275.06 246.64 209.73 247.1"/><polygon class="cls-21" points="209.56 555.88 208.97 621.99 273.91 622.22 274.34 555.42 209.56 555.88"/><polygon class="cls-21" points="208.02 400.12 207.5 469.88 274.3 470.12 273.73 399.66 208.02 400.12"/><polygon class="cls-22" points="209.04 706.14 209.04 775.92 270.61 776.14 271.8 705.7 209.04 706.14"/><polygon class="cls-24" points="395.67 184.27 389.76 847.55 420.39 846.43 424.87 195.11 395.67 184.27"/><polygon class="cls-24" points="453.12 205.6 448.54 847.37 478.66 846.43 482 216.33 453.12 205.6"/><polygon class="cls-24" points="563.28 246.51 558.85 846.43 588.98 846.43 592.28 257.28 563.28 246.51"/><polygon class="cls-24" points="508.97 226.34 503.88 846.43 534 846.43 537.92 237.09 508.97 226.34"/><polygon class="cls-25" points="492.72 766.7 493.49 674.2 354.19 650.96 351.36 846.43 612.19 845.21 612.59 804.28 492.72 766.7"/><polygon class="cls-26" points="585.77 316.59 564.45 309.79 564.11 362.14 585.16 367.05 585.77 316.59"/><rect class="cls-18" x="28.23" y="54.77" width="42.15" height="116.67"/><path class="cls-18" d="M315.22,146.54c2.4,12.5-4.4,22.67-15.19,22.71s-21.48-10.07-23.87-22.57,4.4-22.66,15.19-22.7S312.83,134,315.22,146.54Z"/><polygon class="cls-21" points="416.87 262.73 395.8 256.01 395.31 322.84 416.12 327.69 416.87 262.73"/><polygon class="cls-26" points="474.1 280.98 453.32 274.35 453.02 336.28 473.88 341.13 474.1 280.98"/><polygon class="cls-21" points="530.83 299.07 509.49 292.26 509.21 349.36 530.42 354.3 530.83 299.07"/><polygon class="cls-21" points="529.02 542.31 508.25 543.56 507.94 605.95 528.57 603.24 529.02 542.31"/><polygon class="cls-21" points="413.55 549.24 393.62 550.44 393.09 621.04 412.75 618.46 413.55 549.24"/><polygon class="cls-27" points="473.13 545.67 452 546.93 451.68 613.34 472.9 610.55 473.13 545.67"/><polygon class="cls-21" points="583.1 539.07 562.95 540.28 562.57 598.77 582.42 596.16 583.1 539.07"/><polygon class="cls-26" points="584.49 423.81 563.72 421.4 563.35 478.05 583.83 478.52 584.49 423.81"/><polygon class="cls-21" points="415.23 404.21 394.72 401.83 394.18 474.16 414.42 474.63 415.23 404.21"/><polygon class="cls-21" points="473.63 410.97 452.67 408.54 452.35 475.5 473.39 475.98 473.63 410.97"/><polygon class="cls-21" points="529.95 417.49 508.89 415.05 508.58 476.79 529.5 477.27 529.95 417.49"/><polygon class="cls-21" points="472.02 683.16 450.72 687.45 450.39 754.51 471.79 747.87 472.02 683.16"/><polygon class="cls-21" points="411.25 695.4 391.9 699.29 391.36 772.86 410.42 766.94 411.25 695.4"/><polygon class="cls-21" points="528.06 672 507.6 676.12 507.3 737.02 527.62 730.71 528.06 672"/><polygon class="cls-21" points="581.64 661.21 562.14 665.13 561.78 720.09 581.01 714.12 581.64 661.21"/><polygon class="cls-21" points="471.95 845.8 472.02 826.8 450.72 836.22 450.67 845.8 471.95 845.8"/><polygon class="cls-21" points="527.73 845.8 528.06 802.16 507.6 811.21 507.43 845.8 527.73 845.8"/><polygon class="cls-21" points="581.64 778.49 562.14 787.1 561.78 842.15 581.01 831.55 581.64 778.49"/><polygon class="cls-28" points="-6.16 158.62 360.52 158.62 618.3 258.49 361.75 153.42 -6.16 152.51 -6.16 158.62"/><polygon class="cls-28" points="39.84 171.44 39.38 149.19 45.34 148.78 45.34 171.44 39.84 171.44"/><polygon class="cls-28" points="149.79 171.44 149.33 149.19 155.28 148.78 155.29 171.44 149.79 171.44"/><polygon class="cls-28" points="258.03 171.44 257.57 149.19 263.53 148.78 263.53 171.44 258.03 171.44"/><polygon class="cls-28" points="353.35 171.44 352.89 149.19 358.84 148.78 358.85 171.44 353.35 171.44"/></g></g></g></g></svg>