<svg xmlns="http://www.w3.org/2000/svg" xmlns:xlink="http://www.w3.org/1999/xlink" viewBox="0 0 1663.37 833.73"><defs><style>.cls-1{isolation:isolate;}.cls-2{fill:#b44b38;}.cls-3{fill:#a88184;}.cls-30,.cls-4,.cls-49{fill:#ffe0bd;}.cls-33,.cls-37,.cls-39,.cls-4{opacity:0.63;}.cls-30,.cls-33,.cls-37,.cls-39,.cls-4,.cls-48,.cls-49{mix-blend-mode:overlay;}.cls-5{fill:#944139;}.cls-40,.cls-6{fill:#780d6b;}.cls-6{opacity:0.41;}.cls-28,.cls-29,.cls-40,.cls-42,.cls-46,.cls-6{mix-blend-mode:multiply;}.cls-7{fill:#6e2e2e;}.cls-8{fill:#cf6f64;}.cls-9{fill:#884153;}.cls-10{fill:#75465a;}.cls-11{fill:#ccc;}.cls-12{fill:#7d6e71;}.cls-13{fill:#bd8c97;}.cls-14{fill:#925966;}.cls-15{fill:#bd7384;}.cls-16{fill:url(#linear-gradient);}.cls-17{fill:url(#linear-gradient-2);}.cls-18{fill:#ababab;}.cls-19{fill:url(#linear-gradient-3);}.cls-20{fill:url(#linear-gradient-4);}.cls-21{fill:#ed8eab;}.cls-22{fill:#872c3c;}.cls-23{fill:#924556;}.cls-24{fill:#872c2c;}.cls-25{fill:#631023;}.cls-26{fill:#a97384;}.cls-27{fill:#7e5966;}.cls-28{fill:#7e3f52;opacity:0.23;}.cls-29{fill:#4a2935;opacity:0.25;}.cls-30{opacity:0.51;}.cls-31,.cls-37,.cls-48{fill:#f0f0f0;}.cls-32{fill:#b6413a;}.cls-33{fill:#ebe0bd;}.cls-34{fill:url(#linear-gradient-5);}.cls-35{fill:url(#linear-gradient-6);}.cls-36{fill:#d67d58;}.cls-38{fill:#9c4141;}.cls-39{fill:#fff;}.cls-40{opacity:0.27;}.cls-41{fill:#9f4049;}.cls-42{fill:#b8445d;}.cls-42,.cls-46{opacity:0.53;}.cls-43{fill:#a2677d;}.cls-44{fill:#5f3345;}.cls-45{fill:#662538;}.cls-47{fill:#ad3458;}.cls-48{opacity:0.44;}.cls-49{opacity:0.42;}.cls-50{fill:#a88482;}</style><linearGradient id="linear-gradient" x1="1320.42" y1="832.86" x2="1320.42" y2="353.78" gradientUnits="userSpaceOnUse"><stop offset="0.12" stop-color="#9e3749"/><stop offset="1" stop-color="#d76e41"/></linearGradient><linearGradient id="linear-gradient-2" x1="1155.21" y1="832.86" x2="1155.21" y2="353.78" gradientUnits="userSpaceOnUse"><stop offset="0.04" stop-color="#783035"/><stop offset="1" stop-color="#b04b4b"/></linearGradient><linearGradient id="linear-gradient-3" x1="1019.17" y1="832.86" x2="1019.17" y2="514.86" gradientUnits="userSpaceOnUse"><stop offset="0" stop-color="#722636"/><stop offset="1" stop-color="#a4433b"/></linearGradient><linearGradient id="linear-gradient-4" x1="898.37" y1="832.86" x2="898.37" y2="487.36" gradientUnits="userSpaceOnUse"><stop offset="0" stop-color="#481c20"/><stop offset="1" stop-color="#712c26"/></linearGradient><linearGradient id="linear-gradient-5" x1="1071.5" y1="832.86" x2="1071.5" y2="506.2" gradientUnits="userSpaceOnUse"><stop offset="0" stop-color="#8c323c"/><stop offset="1" stop-color="#ba545c"/></linearGradient><linearGradient id="linear-gradient-6" x1="1116.5" y1="832.86" x2="1116.5" y2="506.2" gradientUnits="userSpaceOnUse"><stop offset="0" stop-color="#b84949"/><stop offset="0.74" stop-color="#cf8464"/></linearGradient></defs><title>skyline_layer_2</title><g class="cls-1"><g id="layer02"><polygon class="cls-2" points="1334.04 308.2 1275.06 354.78 1334.04 354.78 1334.04 308.2"/><rect class="cls-3" x="134.21" y="408.86" width="18.33" height="24.5"/><rect class="cls-4" x="146.87" y="408.86" width="5.67" height="23.45"/><rect class="cls-3" x="110.21" y="408.86" width="18.33" height="24.5"/><rect class="cls-4" x="122.87" y="408.86" width="5.67" height="23.45"/><polygon class="cls-5" points="189.9 832.86 189.9 426.8 165 417.5 165 832.86 189.9 832.86"/><polygon class="cls-6" points="171.03 420.06 171.03 832.86 176.21 832.86 176.21 422 171.03 420.06"/><polygon class="cls-6" points="179.53 422.93 179.53 832.86 184 832.86 184 424.59 179.53 422.93"/><rect class="cls-7" x="86.37" y="417.5" width="78.63" height="415.36"/><polygon class="cls-8" points="1230.86 325.8 1214.34 334.87 1214.34 357.38 1247.38 357.38 1247.38 334.87 1230.86 325.8"/><rect class="cls-9" x="105.32" y="441" width="7.9" height="26.7"/><rect class="cls-9" x="125.76" y="441" width="7.9" height="26.7"/><rect class="cls-10" x="105.32" y="495.64" width="7.9" height="26.7"/><rect class="cls-10" x="125.76" y="495.64" width="7.9" height="26.7"/><rect class="cls-10" x="105.32" y="555.29" width="7.9" height="26.7"/><rect class="cls-10" x="125.76" y="555.29" width="7.9" height="26.7"/><rect class="cls-11" x="1275.04" y="342.24" width="36.67" height="24.5"/><polygon class="cls-5" points="94.51 832.86 0 832.86 0 393.41 23.38 393.38 94.51 417.5 94.51 832.86"/><polygon class="cls-6" points="37.2 397.96 37.2 832.86 48.71 832.86 48.71 401.99 37.2 397.96"/><polygon class="cls-6" points="72.87 409.82 72.87 832.86 84.38 832.86 84.38 413.73 72.87 409.82"/><polygon class="cls-12" points="1275.04 342.25 1257.38 354.2 1275.04 354.2 1275.04 342.25"/><polygon class="cls-6" points="54.53 403.94 54.53 832.86 66.04 832.86 66.04 407.85 54.53 403.94"/><polygon class="cls-13" points="171.03 443.17 171.03 466.01 173.71 466.83 173.71 444.1 171.03 443.17"/><polygon class="cls-14" points="171.03 538.92 171.03 567.41 173.71 567.84 173.71 539.46 171.03 538.92"/><polygon class="cls-15" points="171.03 489.47 171.03 514.61 173.71 515.25 173.71 490.21 171.03 489.47"/><polygon class="cls-15" points="179.53 491.8 179.53 516.63 181.71 517.15 181.71 492.39 179.53 491.8"/><polygon class="cls-15" points="179.53 446.14 179.53 468.62 181.71 469.29 181.71 446.9 179.53 446.14"/><polygon class="cls-10" points="179.53 540.63 179.53 568.78 181.71 569.13 181.71 541.08 179.53 540.63"/><polygon class="cls-14" points="37.2 545.86 37.2 575.86 42.71 576.55 42.71 546.75 37.2 545.86"/><polygon class="cls-14" points="37.2 482.86 37.2 511.86 42.71 512.98 42.71 484.17 37.2 482.86"/><polygon class="cls-10" points="37.2 609.86 37.2 640.86 42.71 641.12 42.71 610.32 37.2 609.86"/><polygon class="cls-13" points="37.2 424.86 37.2 452.86 42.71 454.37 42.71 426.56 37.2 424.86"/><polygon class="cls-10" points="37.2 732.86 37.2 763.86 42.71 763.3 42.71 732.5 37.2 732.86"/><polygon class="cls-6" points="37.2 794.86 37.2 825.86 42.71 824.88 42.71 794.09 37.2 794.86"/><polygon class="cls-15" points="37.2 670.86 37.2 701.86 42.71 701.71 42.71 670.92 37.2 670.86"/><polygon class="cls-15" points="54.53 430.19 54.53 457.61 60.38 459.2 60.38 431.99 54.53 430.19"/><polygon class="cls-6" points="54.53 792.43 54.53 822.78 60.38 821.74 60.38 791.61 54.53 792.43"/><polygon class="cls-6" points="54.53 611.31 54.53 641.66 60.38 641.93 60.38 611.8 54.53 611.31"/><polygon class="cls-14" points="54.53 671.03 54.53 701.38 60.38 701.22 60.38 671.09 54.53 671.03"/><polygon class="cls-10" points="54.53 548.65 54.53 578.02 60.38 578.75 60.38 549.59 54.53 548.65"/><polygon class="cls-14" points="54.53 486.98 54.53 515.37 60.38 516.55 60.38 488.36 54.53 486.98"/><polygon class="cls-6" points="54.53 731.73 54.53 762.08 60.38 761.48 60.38 731.35 54.53 731.73"/><polygon class="cls-6" points="71.87 612.76 71.87 642.46 77.88 642.74 77.88 613.26 71.87 612.76"/><polygon class="cls-6" points="71.87 730.6 71.87 760.3 77.88 759.68 77.88 730.21 71.87 730.6"/><polygon class="cls-15" points="71.87 435.52 71.87 462.35 77.88 463.99 77.88 437.37 71.87 435.52"/><polygon class="cls-13" points="71.87 491.09 71.87 518.87 77.88 520.09 77.88 492.51 71.87 491.09"/><polygon class="cls-6" points="71.87 790 71.87 819.7 77.88 818.63 77.88 789.15 71.87 790"/><polygon class="cls-6" points="71.87 671.2 71.87 700.9 77.88 700.73 77.88 671.26 71.87 671.2"/><polygon class="cls-13" points="71.87 551.45 71.87 580.19 77.88 580.93 77.88 552.41 71.87 551.45"/><rect class="cls-16" x="1187.46" y="353.78" width="265.92" height="479.08"/><polygon class="cls-17" points="1187.46 353.78 1122.96 418.28 1122.96 832.86 1187.46 832.86 1187.46 353.78"/><polygon class="cls-18" points="719.71 549.53 691.38 562.53 691.38 594.77 748.04 594.77 748.04 562.53 719.71 549.53"/><rect class="cls-7" x="497.99" y="593.77" width="331.49" height="239.09"/><polygon class="cls-5" points="829.48 554.34 850.38 627.36 850.38 832.86 829.48 832.86 829.48 554.34"/><rect class="cls-19" x="915.37" y="514.86" width="207.58" height="318"/><polygon class="cls-20" points="881.38 832.86 915.38 832.86 915.38 487.36 881.38 617.92 881.38 832.86"/><rect class="cls-3" x="553.04" y="564.2" width="18.33" height="24.5"/><rect class="cls-4" x="565.71" y="564.2" width="5.67" height="23.45"/><rect class="cls-3" x="577.21" y="564.2" width="18.33" height="24.5"/><rect class="cls-4" x="589.87" y="564.2" width="5.67" height="23.45"/><rect class="cls-6" x="1228.44" y="367.86" width="30.85" height="465"/><rect class="cls-6" x="1202.96" y="367.86" width="18" height="465"/><rect class="cls-6" x="1378.29" y="367.86" width="30.85" height="465"/><rect class="cls-6" x="1416.63" y="367.86" width="18" height="465"/><rect class="cls-6" x="1303.77" y="367.86" width="30.85" height="465"/><rect class="cls-6" x="1278.29" y="367.86" width="18" height="465"/><rect class="cls-7" x="815.71" y="553.86" width="13.77" height="46.75"/><rect class="cls-6" x="1341.62" y="367.86" width="18" height="465"/><rect class="cls-21" x="1202.96" y="384.86" width="13.25" height="23.33"/><rect class="cls-15" x="1228.44" y="384.86" width="25.44" height="23.33"/><rect class="cls-21" x="1278.29" y="384.86" width="13.25" height="23.33"/><rect class="cls-15" x="1341.62" y="384.86" width="13.25" height="23.33"/><rect class="cls-14" x="1303.77" y="384.86" width="25.44" height="23.33"/><rect class="cls-15" x="1416.63" y="384.86" width="13.25" height="23.33"/><rect class="cls-21" x="1378.29" y="384.86" width="25.44" height="23.33"/><rect class="cls-14" x="1202.96" y="428.36" width="13.25" height="23.33"/><rect class="cls-15" x="1228.44" y="428.36" width="25.44" height="23.33"/><rect class="cls-14" x="1278.29" y="428.36" width="13.25" height="23.33"/><rect class="cls-15" x="1341.62" y="428.36" width="13.25" height="23.33"/><rect class="cls-15" x="1303.77" y="428.36" width="25.44" height="23.33"/><rect class="cls-15" x="1416.63" y="428.36" width="13.25" height="23.33"/><rect class="cls-14" x="1378.29" y="428.36" width="25.44" height="23.33"/><rect class="cls-22" x="1202.96" y="471.86" width="13.25" height="23.33"/><rect class="cls-15" x="1228.44" y="471.86" width="25.44" height="23.33"/><rect class="cls-21" x="1278.29" y="471.86" width="13.25" height="23.33"/><rect class="cls-23" x="1341.62" y="471.86" width="13.25" height="23.33"/><rect class="cls-24" x="1303.77" y="471.86" width="25.44" height="23.33"/><rect class="cls-14" x="1416.63" y="471.86" width="13.25" height="23.33"/><rect class="cls-15" x="1378.29" y="471.86" width="25.44" height="23.33"/><rect class="cls-15" x="1202.96" y="515.36" width="13.25" height="23.33"/><rect class="cls-14" x="1228.44" y="515.36" width="25.44" height="23.33"/><rect class="cls-15" x="1278.29" y="515.36" width="13.25" height="23.33"/><rect class="cls-14" x="1341.62" y="515.36" width="13.25" height="23.33"/><rect class="cls-15" x="1303.77" y="515.36" width="25.44" height="23.33"/><rect class="cls-15" x="1416.63" y="515.36" width="13.25" height="23.33"/><rect class="cls-14" x="1378.29" y="515.36" width="25.44" height="23.33"/><rect class="cls-14" x="1202.96" y="558.86" width="13.25" height="23.33"/><rect class="cls-15" x="1228.44" y="558.86" width="25.44" height="23.33"/><rect class="cls-23" x="1278.29" y="558.86" width="13.25" height="23.33"/><rect class="cls-15" x="1341.62" y="558.86" width="13.25" height="23.33"/><rect class="cls-14" x="1303.77" y="558.86" width="25.44" height="23.33"/><rect class="cls-15" x="1416.63" y="558.86" width="13.25" height="23.33"/><rect class="cls-14" x="1378.29" y="558.86" width="25.44" height="23.33"/><rect class="cls-21" x="1202.96" y="602.36" width="13.25" height="23.33"/><rect class="cls-23" x="1228.44" y="602.36" width="25.44" height="23.33"/><rect class="cls-14" x="1278.29" y="602.36" width="13.25" height="23.33"/><rect class="cls-15" x="1341.62" y="602.36" width="13.25" height="23.33"/><rect class="cls-14" x="1303.77" y="602.36" width="25.44" height="23.33"/><rect class="cls-15" x="1416.63" y="602.36" width="13.25" height="23.33"/><rect class="cls-15" x="1378.29" y="602.36" width="25.44" height="23.33"/><rect class="cls-23" x="1202.96" y="645.86" width="13.25" height="23.33"/><rect class="cls-14" x="1228.44" y="645.86" width="25.44" height="23.33"/><rect class="cls-14" x="1278.29" y="645.86" width="13.25" height="23.33"/><rect class="cls-15" x="1341.62" y="645.86" width="13.25" height="23.33"/><rect class="cls-22" x="1303.77" y="645.86" width="25.44" height="23.33"/><rect class="cls-15" x="1416.63" y="645.86" width="13.25" height="23.33"/><rect class="cls-15" x="1378.29" y="645.86" width="25.44" height="23.33"/><rect class="cls-14" x="1202.96" y="689.36" width="13.25" height="23.33"/><rect class="cls-23" x="1228.44" y="689.36" width="25.44" height="23.33"/><rect class="cls-14" x="1278.29" y="689.36" width="13.25" height="23.33"/><rect class="cls-15" x="1341.62" y="689.36" width="13.25" height="23.33"/><rect class="cls-25" x="1303.77" y="689.36" width="25.44" height="23.33"/><rect class="cls-15" x="1416.63" y="689.36" width="13.25" height="23.33"/><rect class="cls-15" x="1378.29" y="689.36" width="25.44" height="23.33"/><rect class="cls-15" x="1202.96" y="732.86" width="13.25" height="23.33"/><rect class="cls-25" x="1228.44" y="732.86" width="25.44" height="23.33"/><rect class="cls-14" x="1278.29" y="732.86" width="13.25" height="23.33"/><rect class="cls-15" x="1341.62" y="732.86" width="13.25" height="23.33"/><rect class="cls-22" x="1303.77" y="732.86" width="25.44" height="23.33"/><rect class="cls-15" x="1416.63" y="732.86" width="13.25" height="23.33"/><rect class="cls-15" x="1378.29" y="732.86" width="25.44" height="23.33"/><rect class="cls-14" x="1202.96" y="776.36" width="13.25" height="23.33"/><rect class="cls-23" x="1228.44" y="776.36" width="25.44" height="23.33"/><rect class="cls-22" x="1278.29" y="776.36" width="13.25" height="23.33"/><rect class="cls-15" x="1341.62" y="776.36" width="13.25" height="23.33"/><rect class="cls-23" x="1303.77" y="776.36" width="25.44" height="23.33"/><rect class="cls-15" x="1416.63" y="776.36" width="13.25" height="23.33"/><rect class="cls-15" x="1378.29" y="776.36" width="25.44" height="23.33"/><rect class="cls-22" x="1202.96" y="819.86" width="13.25" height="13"/><rect class="cls-23" x="1228.44" y="819.86" width="25.44" height="13"/><rect class="cls-23" x="1278.29" y="819.86" width="13.25" height="13"/><rect class="cls-15" x="1341.62" y="819.86" width="13.25" height="13"/><rect class="cls-25" x="1303.77" y="819.86" width="25.44" height="13"/><rect class="cls-15" x="1416.63" y="819.86" width="13.25" height="13"/><rect class="cls-15" x="1378.29" y="819.86" width="25.44" height="13"/><rect class="cls-26" x="929.14" y="547.03" width="13.65" height="18.48"/><rect class="cls-26" x="961.15" y="547.03" width="13.65" height="18.48"/><rect class="cls-27" x="993.15" y="547.03" width="13.65" height="18.48"/><rect class="cls-27" x="929.14" y="589.03" width="13.65" height="18.48"/><rect class="cls-28" x="961.15" y="589.03" width="13.65" height="18.48"/><rect class="cls-26" x="993.15" y="589.03" width="13.65" height="18.48"/><rect class="cls-26" x="1025.15" y="547.03" width="13.65" height="18.48"/><rect class="cls-26" x="1025.15" y="589.03" width="13.65" height="18.48"/><rect class="cls-26" x="929.14" y="631.04" width="13.65" height="18.48"/><rect class="cls-28" x="961.15" y="631.04" width="13.65" height="18.48"/><rect class="cls-27" x="993.15" y="631.04" width="13.65" height="18.48"/><rect class="cls-27" x="929.14" y="673.04" width="13.65" height="18.48"/><rect class="cls-26" x="961.15" y="673.04" width="13.65" height="18.48"/><rect class="cls-28" x="993.15" y="673.04" width="13.65" height="18.48"/><rect class="cls-28" x="929.14" y="715.05" width="13.65" height="18.48"/><rect class="cls-29" x="961.15" y="715.05" width="13.65" height="18.48"/><rect class="cls-27" x="993.15" y="715.05" width="13.65" height="18.48"/><rect class="cls-27" x="929.14" y="757.71" width="13.65" height="18.48"/><rect class="cls-26" x="961.15" y="757.71" width="13.65" height="18.48"/><rect class="cls-29" x="993.15" y="757.71" width="13.65" height="18.48"/><rect class="cls-29" x="929.14" y="799.71" width="13.65" height="18.48"/><rect class="cls-29" x="961.15" y="799.71" width="13.65" height="18.48"/><rect class="cls-27" x="993.15" y="799.71" width="13.65" height="18.48"/><polygon class="cls-30" points="829.48 749.78 850.38 749.86 850.38 627.36 829.48 554.34 829.48 749.78"/><rect class="cls-7" y="393.41" width="24.01" height="439.46"/><rect class="cls-18" x="1349.37" y="300.58" width="18.33" height="24.5"/><rect class="cls-31" x="1362.04" y="300.58" width="5.67" height="23.45"/><rect class="cls-18" x="1375.04" y="295.58" width="18.33" height="24.5"/><rect class="cls-31" x="1387.71" y="295.58" width="5.67" height="23.45"/><rect class="cls-32" x="915.37" y="487.36" width="11.5" height="34.5"/><polygon class="cls-33" points="926.88 487.36 926.88 514.86 1116.71 514.86 1116.71 562.87 984.71 724.2 915.38 724.2 915.38 487.36 926.88 487.36"/><polygon class="cls-34" points="1110.04 540.17 1110.04 506.2 1051.73 546.86 1051.73 573.13 1020.04 591.05 1020.04 832.86 1122.96 832.86 1122.96 532.87 1110.04 540.17"/><rect class="cls-35" x="1110.04" y="506.2" width="12.92" height="326.67"/><rect class="cls-36" x="1334.04" y="308.2" width="74" height="45.59"/><rect class="cls-2" x="1343.12" y="314.61" width="8" height="26.5"/><rect class="cls-2" x="1358.87" y="314.61" width="8" height="26.5"/><rect class="cls-2" x="1374.62" y="314.61" width="8" height="26.5"/><rect class="cls-2" x="1390.37" y="314.61" width="8" height="26.5"/><rect class="cls-37" x="1334.04" y="308.2" width="74" height="41.59"/><polygon class="cls-38" points="652.38 593.77 652.38 581.86 636.88 581.86 636.88 572.36 544.74 572.36 544.74 593.77 652.38 593.77"/><polygon class="cls-4" points="1230.86 325.8 1238.54 334.36 1238.54 353.78 1247.38 353.78 1247.38 334.87 1230.86 325.8"/><polygon class="cls-39" points="1122.96 611.86 1110.04 628.27 1110.04 546.53 1122.96 546.53 1122.96 611.86"/><rect class="cls-39" x="1110.04" y="506.36" width="12.92" height="30.5"/><polygon class="cls-40" points="1171.38 369.99 1171.38 832.86 1162.38 832.86 1162.38 378.99 1171.38 369.99"/><polygon class="cls-40" points="1156.63 384.9 1156.63 832.86 1147.63 832.86 1147.63 393.9 1156.63 384.9"/><polygon class="cls-40" points="1142.38 398.9 1142.38 832.86 1133.88 832.86 1133.88 407.4 1142.38 398.9"/><polygon class="cls-37" points="1453.38 424.65 1433.75 424.65 1426.65 435.96 1329.46 435.96 1218.34 628.99 1200.6 593.49 1187.41 593.49 1187.41 353.78 1453.38 353.78 1453.38 424.65"/><polygon class="cls-41" points="1051.73 573.13 1110.04 540.17 1110.04 536.53 1051.73 569.86 1051.73 573.13"/><polygon class="cls-40" points="1067.92 563.98 1067.92 832.86 1060.58 832.86 1060.58 568.13 1067.92 563.98"/><polygon class="cls-40" points="1058.09 569.54 1058.09 832.86 1050.75 832.86 1050.75 573.69 1058.09 569.54"/><polygon class="cls-40" points="1097.38 547.27 1097.38 832.86 1088.96 832.86 1088.96 552 1097.38 547.27"/><polygon class="cls-40" points="1086.12 553.7 1086.12 832.86 1077.71 832.86 1077.71 558.45 1086.12 553.7"/><polygon class="cls-40" points="1043.04 578.04 1043.04 832.86 1036.61 832.86 1036.61 581.68 1043.04 578.04"/><polygon class="cls-40" points="1034.43 582.91 1034.43 832.86 1028 832.86 1028 586.55 1034.43 582.91"/><rect class="cls-42" x="779.62" y="593.77" width="36.08" height="239.09"/><rect class="cls-42" x="726.76" y="593.77" width="36.08" height="239.09"/><rect class="cls-42" x="685.25" y="593.77" width="15.6" height="239.09"/><rect class="cls-42" x="526.4" y="593.77" width="15.6" height="239.09"/><rect class="cls-42" x="621.03" y="593.77" width="36.08" height="239.09"/><rect class="cls-42" x="568.16" y="593.77" width="36.08" height="239.09"/><rect class="cls-10" x="784.13" y="621.63" width="7.9" height="25.41"/><rect class="cls-10" x="804.56" y="621.63" width="7.9" height="25.41"/><rect class="cls-43" x="784.13" y="678.38" width="7.9" height="25.41"/><rect class="cls-43" x="804.56" y="678.38" width="7.9" height="25.41"/><rect class="cls-10" x="784.13" y="735.13" width="7.9" height="25.41"/><rect class="cls-10" x="804.56" y="735.13" width="7.9" height="25.41"/><rect class="cls-44" x="784.13" y="791.87" width="7.9" height="25.41"/><rect class="cls-44" x="804.56" y="791.87" width="7.9" height="25.41"/><rect class="cls-43" x="731.26" y="621.63" width="7.9" height="25.41"/><rect class="cls-43" x="751.7" y="621.63" width="7.9" height="25.41"/><rect class="cls-10" x="731.26" y="678.38" width="7.9" height="25.41"/><rect class="cls-10" x="751.7" y="678.38" width="7.9" height="25.41"/><rect class="cls-9" x="731.26" y="735.13" width="7.9" height="25.41"/><rect class="cls-9" x="751.7" y="735.13" width="7.9" height="25.41"/><rect class="cls-45" x="731.26" y="791.87" width="7.9" height="25.41"/><rect class="cls-45" x="751.7" y="791.87" width="7.9" height="25.41"/><rect class="cls-10" x="689.33" y="621.63" width="7.9" height="25.41"/><rect class="cls-45" x="689.33" y="678.38" width="7.9" height="25.41"/><rect class="cls-10" x="689.33" y="735.13" width="7.9" height="25.41"/><g class="cls-46"><rect class="cls-47" x="689.33" y="791.87" width="7.9" height="25.41"/></g><rect class="cls-45" x="530.48" y="621.63" width="7.9" height="25.41"/><rect class="cls-10" x="530.48" y="678.38" width="7.9" height="25.41"/><rect class="cls-10" x="530.48" y="735.13" width="7.9" height="25.41"/><rect class="cls-45" x="530.48" y="791.87" width="7.9" height="25.41"/><rect class="cls-9" x="625.53" y="621.63" width="7.9" height="25.41"/><rect class="cls-9" x="645.96" y="621.63" width="7.9" height="25.41"/><rect class="cls-10" x="625.53" y="678.38" width="7.9" height="25.41"/><rect class="cls-10" x="645.96" y="678.38" width="7.9" height="25.41"/><rect class="cls-10" x="625.53" y="735.13" width="7.9" height="25.41"/><rect class="cls-10" x="645.96" y="735.13" width="7.9" height="25.41"/><rect class="cls-44" x="625.53" y="791.87" width="7.9" height="25.41"/><rect class="cls-44" x="645.96" y="791.87" width="7.9" height="25.41"/><rect class="cls-10" x="572.66" y="621.63" width="7.9" height="25.41"/><rect class="cls-10" x="593.1" y="621.63" width="7.9" height="25.41"/><rect class="cls-45" x="572.66" y="678.38" width="7.9" height="25.41"/><rect class="cls-45" x="593.1" y="678.38" width="7.9" height="25.41"/><g class="cls-46"><rect class="cls-47" x="572.66" y="735.13" width="7.9" height="25.41"/><rect class="cls-47" x="593.1" y="735.13" width="7.9" height="25.41"/></g><rect class="cls-45" x="572.66" y="791.87" width="7.9" height="25.41"/><rect class="cls-45" x="593.1" y="791.87" width="7.9" height="25.41"/><polygon class="cls-48" points="514.41 640.16 537.66 640.16 546.07 647.57 684.97 647.57 808.67 773.93 829.48 750.69 829.48 553.86 815.71 553.86 815.71 593.77 514.41 593.77 514.41 640.16"/><polygon class="cls-31" points="719.71 549.53 748.04 562.53 748 593.77 733 593.77 733.04 562.2 719.71 549.53"/><polygon class="cls-49" points="24.01 393.41 24.01 534.86 58.71 534.86 94.51 582.86 94.51 417.5 24.01 393.41"/><polygon class="cls-49" points="165 497.36 189.9 531.86 189.9 426.8 165 417.5 165 497.36"/><rect class="cls-50" x="514.41" y="589.86" width="301.3" height="3.91"/></g></g></svg>