<svg id="sky" xmlns="http://www.w3.org/2000/svg" xmlns:xlink="http://www.w3.org/1999/xlink" viewBox="0 0 1663.37 833.73"><defs><style>.cls-1{fill:none;}.cls-2{clip-path:url(#clip-path);}.cls-3{fill:#afe6f4;}.cls-4{fill:#95def4;}.cls-5{fill:#fff;}.cls-6{fill:#a69595;}</style><clipPath id="clip-path"><rect class="cls-1" x="-1" y="-2" width="1664.37" height="834.86"/></clipPath></defs><title>skyline_layer_0</title><g class="cls-2"><g id="Bildmaterial_1" data-name="Bildmaterial 1"><rect class="cls-3" x="-34" y="-4" width="1729" height="865"/><polygon class="cls-4" points="-33.99 146.2 868.32 148.9 -33.99 191.6 -33.99 146.2"/><polygon class="cls-4" points="1695 -3.83 -34 -4 -34 120.1 1695 104.78 1695 -3.83"/><path class="cls-3" d="M761.12,67.39l844.49-12.57S1444.93,81.88,1181,84.09C969.56,85.85,761.12,67.39,761.12,67.39Z"/><polygon class="cls-5" points="1417.15 201.78 1064.85 201.78 1079.11 191.07 1097.68 194.96 1103.01 176.65 1119.2 185.71 1121.51 173.35 1129.8 179.12 1141.94 153.17 1170.66 166.77 1177.59 143.28 1191.65 158.03 1212.51 96.93 1265.48 114.94 1278.39 152.76 1298.24 142.46 1304.41 164.29 1323.29 156.88 1328.69 175 1338.13 169.24 1340.92 182.65 1356.25 175.42 1366.85 189.42 1389.83 184.17 1417.15 201.78"/><polygon class="cls-5" points="723.88 479.58 843.47 479.58 838.63 476.86 832.33 477.85 830.52 473.19 825.02 475.5 824.24 472.35 821.43 473.82 817.3 467.22 807.55 470.68 805.2 464.71 800.43 468.46 793.35 452.93 775.37 457.5 770.98 467.12 764.25 464.5 762.15 470.05 755.74 468.17 753.91 472.77 750.7 471.31 749.75 474.72 744.55 472.88 740.96 476.44 733.15 475.1 723.88 479.58"/><polygon class="cls-5" points="908.55 379.39 1005 379.39 1001.09 377.2 996.01 377.99 994.55 374.24 990.12 376.1 989.49 373.57 987.22 374.75 983.89 369.43 976.03 372.21 974.13 367.4 970.28 370.42 964.57 357.9 950.08 361.59 946.54 369.34 941.1 367.23 939.42 371.71 934.25 370.19 932.77 373.9 930.18 372.72 929.42 375.47 925.22 373.99 922.32 376.86 916.03 375.78 908.55 379.39"/><polygon class="cls-5" points="319.91 405.63 604.99 405.63 593.45 396.68 578.42 399.94 574.11 384.63 561.01 392.2 559.14 381.88 552.43 386.7 542.61 365 519.37 376.37 513.76 356.74 502.38 369.07 486.57 336.45 442.64 333.04 432.19 364.65 416.13 356.05 411.14 374.3 395.86 368.1 391.49 383.25 383.85 378.43 381.59 389.65 369.19 383.6 360.61 395.3 342.02 390.91 319.91 405.63"/><polygon class="cls-6" points="986.24 184.88 999.25 197.26 1013.34 186.65 999.25 191.96 986.24 184.88"/><polygon class="cls-6" points="626.27 230.26 631.94 235.65 638.07 231.03 631.94 233.34 626.27 230.26"/><polygon class="cls-6" points="1027.46 169.3 1033.13 174.69 1039.27 170.07 1033.13 172.38 1027.46 169.3"/><polygon class="cls-6" points="1090.53 210.32 1096.19 215.71 1102.33 211.09 1096.19 213.4 1090.53 210.32"/><polygon class="cls-6" points="658.02 169.98 663.68 175.37 669.82 170.75 663.68 173.06 658.02 169.98"/><polygon class="cls-6" points="694.67 452.67 700.33 458.06 706.47 453.44 700.33 455.75 694.67 452.67"/><polygon class="cls-6" points="657.52 433.42 668.18 443.56 679.72 434.87 668.18 439.21 657.52 433.42"/><polygon class="cls-6" points="227.09 275.54 237.74 285.67 249.28 276.99 237.74 281.33 227.09 275.54"/></g></g></svg>