<svg xmlns="http://www.w3.org/2000/svg" viewBox="0 0 149 152"><defs><style>.cls-1{fill:none;}.cls-2{fill:#eb5350;}.cls-3{fill:#aa3030;}.cls-4{fill:#f4f4f4;}</style></defs><title>video-marketing-thumb</title><g id="Ebene_2" data-name="Ebene 2"><g id="Ebene_3" data-name="Ebene 3"><path class="cls-1" d="M120.79,0A87.16,87.16,0,0,1,59.37,149h-1c-1.2,0-2.39-.05-3.58-.11l-.4,0q-1.77-.11-3.51-.27l-.37,0c-1.19-.12-2.37-.27-3.54-.44l-.57-.08c-1.14-.17-2.28-.36-3.4-.58l-.63-.12c-1.12-.22-2.23-.46-3.34-.73l-.58-.14c-1.12-.27-2.24-.57-3.34-.89l-.45-.13c-1.15-.34-2.29-.7-3.42-1.09l-.17-.05c-1.2-.41-2.38-.85-3.55-1.31h0c-1.16-.46-2.31-.94-3.45-1.45l-.22-.09c-1.11-.5-2.2-1-3.29-1.56l-.26-.13c-1.08-.54-2.15-1.11-3.21-1.7l-.2-.11c-1.09-.61-2.16-1.23-3.22-1.89l0,0A88.15,88.15,0,0,1,0,125.65V152H149V0Z"/><path class="cls-2" d="M38.47,146.47c-1.12-.27-2.24-.57-3.34-.89C36.23,145.9,37.35,146.2,38.47,146.47Z"/><path class="cls-2" d="M34.68,145.45c-1.15-.34-2.29-.7-3.42-1.09C32.39,144.75,33.53,145.11,34.68,145.45Z"/><path class="cls-2" d="M46.42,148c-1.14-.17-2.28-.36-3.4-.58C44.14,147.68,45.28,147.87,46.42,148Z"/><path class="cls-2" d="M16.9,138c-1.09-.61-2.16-1.23-3.22-1.89C14.74,136.73,15.81,137.35,16.9,138Z"/><path class="cls-2" d="M42.39,147.34c-1.12-.22-2.23-.46-3.34-.73C40.16,146.88,41.27,147.12,42.39,147.34Z"/><path class="cls-2" d="M31.09,144.31c-1.2-.41-2.38-.85-3.55-1.31C28.71,143.46,29.89,143.9,31.09,144.31Z"/><path class="cls-2" d="M23.86,141.46c-1.11-.5-2.2-1-3.29-1.56C21.66,140.44,22.75,141,23.86,141.46Z"/><path class="cls-2" d="M20.31,139.77c-1.08-.54-2.15-1.11-3.21-1.7C18.16,138.66,19.23,139.23,20.31,139.77Z"/><path class="cls-2" d="M27.53,143c-1.16-.46-2.31-.94-3.45-1.45C25.22,142.06,26.37,142.54,27.53,143Z"/><path class="cls-2" d="M50.53,148.56c-1.19-.12-2.37-.27-3.54-.44C48.16,148.29,49.34,148.44,50.53,148.56Z"/><path class="cls-2" d="M54.41,148.86q-1.77-.11-3.51-.27Q52.64,148.76,54.41,148.86Z"/><path class="cls-2" d="M31,15.55l0-.08h6.46l2,7.16c1.73-2.05,6.11-7.09,6.11-7.09l.07.32.11-.39H52l-6.8,20.15,7.25-6.68a5.82,5.82,0,0,1,1.88-2.68,9.05,9.05,0,0,1,6-1.86,8.26,8.26,0,0,1,5.63,2A6.35,6.35,0,0,1,68,30.53l4.62-5.4.11.1H78.2v3.61l4.67-3.71.21,1v-.94h5.23V52.08h-.54L77.36,58.35H97.65a12.31,12.31,0,0,1,12.27,12.28V93.5a12.29,12.29,0,0,1-6,10.5c-12.78,12.75-29.44,29.37-45.13,45h.55A87.16,87.16,0,0,0,120.79,0H0V46.22C16.07,30.33,31,15.54,31,15.54Z"/><path class="cls-2" d="M58.39,149c-1.2,0-2.39-.05-3.58-.11C56,148.94,57.19,149,58.39,149Z"/><path class="cls-2" d="M0,125.61v0a88.15,88.15,0,0,0,13.65,10.4A86.69,86.69,0,0,1,0,125.61Z"/><path class="cls-3" d="M27.54,143h0Z"/><path class="cls-3" d="M58.81,149h0Z"/><path class="cls-3" d="M20.57,139.9l-.26-.13Z"/><path class="cls-3" d="M43,147.46l-.63-.12Z"/><path class="cls-3" d="M24.08,141.55l-.22-.09Z"/><path class="cls-3" d="M54.81,148.88l-.4,0Z"/><path class="cls-3" d="M17.1,138.07l-.2-.11Z"/><path class="cls-3" d="M47,148.12l-.57-.08Z"/><path class="cls-3" d="M39.05,146.61l-.58-.14Z"/><path class="cls-3" d="M50.9,148.59l-.37,0Z"/><path class="cls-3" d="M35.13,145.58l-.45-.13Z"/><path class="cls-3" d="M31.26,144.36l-.17-.05Z"/><path class="cls-3" d="M13.68,136.07l0,0Z"/><path class="cls-3" d="M93.5,86.94s0-6.24.11-6.24a7.22,7.22,0,0,0-1.81-5.33,6.85,6.85,0,0,0-5.13-1.85,7.4,7.4,0,0,0-5.35,2,6.94,6.94,0,0,0-2.08,5.19v11a7.84,7.84,0,0,0,1.88,5.55,6.57,6.57,0,0,0,5.13,2,7.27,7.27,0,0,0,5.45-1.88c1.25-1.29,1.84-3.18,1.84-5.69V90.43H88.66v1.11a5.49,5.49,0,0,1-.47,2.79,2,2,0,0,1-1.64.63,1.73,1.73,0,0,1-1.61-.73,5.25,5.25,0,0,1-.47-2.69v-4.6Zm-9-6.31a3.71,3.71,0,0,1,.47-2.19,1.87,1.87,0,0,1,1.62-.67,1.8,1.8,0,0,1,1.59.67,3.6,3.6,0,0,1,.51,2.19v2.48H84.47Z"/><path class="cls-3" d="M78.56,47.3a1.38,1.38,0,0,0,1.15.42,3.36,3.36,0,0,0,1.6-.56,7.82,7.82,0,0,0,1.77-1.46V26.17l-.21-1L78.2,28.84V45.91A2,2,0,0,0,78.56,47.3Z"/><polygon class="cls-3" points="25.9 65.33 25.9 70.21 31.48 70.21 31.48 98.45 37.06 98.45 37.06 70.21 42.98 70.21 42.63 65.33 25.9 65.33"/><path class="cls-3" d="M54.14,92.62a7,7,0,0,1-1.52,1.29,2.75,2.75,0,0,1-1.35.53,1.12,1.12,0,0,1-1-.39A1.92,1.92,0,0,1,50,92.8V74H45.08V94.45A5.3,5.3,0,0,0,46,97.72a3,3,0,0,0,2.54,1.07A6,6,0,0,0,51.32,98a10.42,10.42,0,0,0,2.82-2.26v2.68H59V74H54.14Z"/><path class="cls-3" d="M71.68,73.68a4.69,4.69,0,0,0-2.23.6A7.6,7.6,0,0,0,67.39,76V65.33H62.51V98.45h4.88V96.57a6,6,0,0,0,2.06,1.63,5.66,5.66,0,0,0,2.51.53,4.06,4.06,0,0,0,3.27-1.4,6.08,6.08,0,0,0,1.13-4s0-13.55,0-13.55a7.24,7.24,0,0,0-1.2-4.56A4.22,4.22,0,0,0,71.68,73.68ZM71.57,93a2.72,2.72,0,0,1-.43,1.71,1.64,1.64,0,0,1-1.36.54A2.83,2.83,0,0,1,68.57,95a4.87,4.87,0,0,1-1.18-.89V78.48a3.77,3.77,0,0,1,1-.75,2.3,2.3,0,0,1,1.07-.25,1.76,1.76,0,0,1,1.54.68,3,3,0,0,1,.53,1.93Z"/><path class="cls-3" d="M13.68,136.07c1.06.66,2.13,1.28,3.22,1.89l.2.11c1.06.59,2.13,1.16,3.21,1.7l.26.13c1.09.54,2.18,1.06,3.29,1.56l.22.09c1.14.51,2.29,1,3.45,1.45h0c1.17.46,2.35.9,3.55,1.31l.17.05c1.13.39,2.27.75,3.42,1.09l.45.13c1.1.32,2.22.62,3.34.89l.58.14c1.11.27,2.22.51,3.34.73l.63.12c1.12.22,2.26.41,3.4.58l.57.08c1.17.17,2.35.32,3.54.44l.37,0q1.74.16,3.51.27l.4,0c1.19.06,2.38.09,3.58.11h.43c15.69-15.62,32.35-32.24,45.13-45a12.19,12.19,0,0,1-6.3,1.77H22.47A12.3,12.3,0,0,1,10.21,93.52V70.63A12.31,12.31,0,0,1,22.48,58.35H77.36l10.41-6.27h-5V49.22a11.56,11.56,0,0,1-3.14,2.51,6.67,6.67,0,0,1-3.18.87,3.31,3.31,0,0,1-2.83-1.22,5.7,5.7,0,0,1-1-3.63V25.23h.14l-.11-.1L68,30.53a6.4,6.4,0,0,1,.06.88v14A7,7,0,0,1,66,50.84a8.49,8.49,0,0,1-5.92,2,8.31,8.31,0,0,1-5.81-2,7.22,7.22,0,0,1-2.17-5.5v-14a7.21,7.21,0,0,1,.36-2.33l-7.25,6.68-.43,1.27V52.08H38.45V37.58L31,15.55h0S16.07,30.33,0,46.22v79.39a86.69,86.69,0,0,0,13.65,10.44Z"/><path class="cls-3" d="M62.17,29.33a2.75,2.75,0,0,0-1.85-.58,2.6,2.6,0,0,0-1.69.58A1.83,1.83,0,0,0,58,30.81V46.07a2.49,2.49,0,0,0,.62,1.77,2.36,2.36,0,0,0,1.73.62,2.6,2.6,0,0,0,1.85-.66A2.26,2.26,0,0,0,62.86,46V30.81A1.77,1.77,0,0,0,62.17,29.33Z"/><path class="cls-3" d="M41.79,30.11l3.74-14.25-.07-.32s-4.38,5-6.11,7.09l2.06,7.48Z"/><path class="cls-4" d="M65.91,26.36a8.26,8.26,0,0,0-5.63-2,9.05,9.05,0,0,0-6,1.86,5.82,5.82,0,0,0-1.88,2.68l.47-.43,5.16-2,8.89,5.3L68,30.53A6.35,6.35,0,0,0,65.91,26.36Z"/><path class="cls-4" d="M45.64,15.47l-.11.39.8,3.34L45.18,27l-2.82,4.92L41,31.05s-2.23-7.6-2.37-7.56a10.8,10.8,0,0,1,.69-.86l-2-7.16H30.93l0,.08,6.2,7.87,5.27,14.71,2.73-2.51L52,15.47Z"/><path class="cls-4" d="M109.92,93.5V70.63A12.31,12.31,0,0,0,97.65,58.35H77.36l-3.94,2.37L102,71.78,101,86.94s9.1,10.91,3,17L104,104A12.29,12.29,0,0,0,109.92,93.5Z"/><polygon class="cls-4" points="78.2 28.84 78.2 25.23 72.76 25.23 77.25 29.59 78.2 28.84"/><polygon class="cls-4" points="88.31 25.23 83.08 25.23 83.08 26.17 88.24 51.8 87.77 52.08 88.31 52.08 88.31 25.23"/><path class="cls-4" d="M101,86.94,102,71.78,73.42,60.72l3.94-2.37H22.48A12.31,12.31,0,0,0,10.21,70.63V93.52a12.3,12.3,0,0,0,12.26,12.25H97.65A12.19,12.19,0,0,0,104,104l.08-.08C110.13,97.85,101,86.94,101,86.94ZM43,70.24v0H37.06V98.45H31.48V70.21H25.9V65.33H42.63L43,70.21h0ZM59,98.45H54.14V95.77A10.42,10.42,0,0,1,51.32,98a6,6,0,0,1-2.83.76A3,3,0,0,1,46,97.72a5.3,5.3,0,0,1-.87-3.27V74H50V92.8a1.92,1.92,0,0,0,.31,1.25,1.12,1.12,0,0,0,1,.39,2.75,2.75,0,0,0,1.35-.53,7,7,0,0,0,1.52-1.29V74H59Zm17.34-5.09a6.08,6.08,0,0,1-1.13,4A4.06,4.06,0,0,1,72,98.73a5.66,5.66,0,0,1-2.51-.53,6,6,0,0,1-2.06-1.63v1.88H62.51V65.33h4.88V76a7.6,7.6,0,0,1,2.06-1.7,4.69,4.69,0,0,1,2.23-.6,4.22,4.22,0,0,1,3.51,1.57,7.24,7.24,0,0,1,1.2,4.56S76.36,93.36,76.36,93.36Zm8.58.87a1.73,1.73,0,0,0,1.61.73,2,2,0,0,0,1.64-.63,5.49,5.49,0,0,0,.47-2.79V90.43h4.88v1.25c0,2.51-.59,4.4-1.84,5.69a7.27,7.27,0,0,1-5.45,1.88,6.57,6.57,0,0,1-5.13-2,7.84,7.84,0,0,1-1.88-5.55v-11a6.94,6.94,0,0,1,2.08-5.19,7.4,7.4,0,0,1,5.35-2,6.85,6.85,0,0,1,5.13,1.85,7.22,7.22,0,0,1,1.81,5.33c-.11,0-.11,6.24-.11,6.24h-9v4.6A5.25,5.25,0,0,0,84.94,94.23Z"/><path class="cls-4" d="M88.66,80.63a3.6,3.6,0,0,0-.51-2.19,1.8,1.8,0,0,0-1.59-.67,1.87,1.87,0,0,0-1.62.67,3.71,3.71,0,0,0-.47,2.19v2.48h4.19Z"/><path class="cls-4" d="M37.16,23.42,31,15.55l7.49,22v14.5h6.28V36.89l.43-1.27-2.73,2.51Z"/><path class="cls-4" d="M83.08,26.17V45.7a7.82,7.82,0,0,1-1.77,1.46,3.36,3.36,0,0,1-1.6.56,1.38,1.38,0,0,1-1.15-.42,2,2,0,0,1-.36-1.39V28.84l-1,.75-4.49-4.36h-.14V47.75a5.7,5.7,0,0,0,1,3.63,3.31,3.31,0,0,0,2.83,1.22,6.67,6.67,0,0,0,3.18-.87,11.56,11.56,0,0,0,3.14-2.51v2.86h5l.47-.28Z"/><path class="cls-4" d="M58,26.52l-5.16,2-.47.43a7.21,7.21,0,0,0-.36,2.33v14a7.22,7.22,0,0,0,2.17,5.5,8.31,8.31,0,0,0,5.81,2,8.49,8.49,0,0,0,5.92-2,7,7,0,0,0,2.14-5.46v-14a6.4,6.4,0,0,0-.06-.88l-1.1,1.29ZM62.86,46a2.26,2.26,0,0,1-.69,1.77,2.6,2.6,0,0,1-1.85.66,2.36,2.36,0,0,1-1.73-.62A2.49,2.49,0,0,1,58,46.07V30.81a1.83,1.83,0,0,1,.66-1.48,2.6,2.6,0,0,1,1.69-.58,2.75,2.75,0,0,1,1.85.58,1.77,1.77,0,0,1,.69,1.48Z"/><polygon class="cls-4" points="42.98 70.24 42.98 70.21 42.98 70.21 42.98 70.24"/><path class="cls-4" d="M69.5,77.48a2.3,2.3,0,0,0-1.07.25,3.77,3.77,0,0,0-1,.75V94.11a4.87,4.87,0,0,0,1.18.89,2.83,2.83,0,0,0,1.21.29,1.64,1.64,0,0,0,1.36-.54A2.72,2.72,0,0,0,71.57,93v-13A3,3,0,0,0,71,78.16,1.76,1.76,0,0,0,69.5,77.48Z"/><path class="cls-4" d="M41,31.05l1.33.88L45.18,27l1.15-7.81-.8-3.34L41.79,30.11h-.38l-2.06-7.48a10.8,10.8,0,0,0-.69.86C38.8,23.45,41,31.05,41,31.05Z"/></g></g></svg>