<svg xmlns="http://www.w3.org/2000/svg" viewBox="0 0 153 160"><defs><style>.cls-1{fill:none;}.cls-2{fill:#34495f;}.cls-3{fill:#e94b35;}.cls-4{fill:#f86347;}.cls-5{fill:#ebeff0;}.cls-6{fill:#d5dbdd;}.cls-7{fill:#c33925;}.cls-8{fill:#de4d35;}.cls-9{fill:#c23824;}.cls-10{fill:#af3321;}.cls-11{fill:#4a5b6e;}.cls-12{fill:#73808f;}.cls-13{fill:#b13421;}.cls-14{fill:#c13825;}.cls-15{fill:#b73826;}.cls-16{fill:#fefefd;}</style></defs><title>werbespot-thumb</title><g id="Ebene_2" data-name="Ebene 2"><g id="Ebene_3" data-name="Ebene 3"><path class="cls-1" d="M111.17,37h0v0Z"/><path class="cls-1" d="M109.65,39.34h0l0,0,0,0a.17.17,0,0,0,0-.07Z"/><path class="cls-1" d="M0,0V26.66C11.89,13.46,28.27,4.31,46.37,2.2a76.78,76.78,0,0,1,47.55,9.53h0c5.93-2.22,11.69-4.9,17.93-6.23h0C117.27,4,122.7,2.55,128.36,2.24h0c2.31-1.12,3.47-1,2.87,2.12-1.07,5.66-1.86,11.36-3.61,16.88h0c-1.34,6.24-4,12-6.24,18h0A75.51,75.51,0,0,1,11.31,137.87c-.91-.66-1.84-1.31-2.75-2h0c-1.83-1.7-4-3-5.33-5.26A19.11,19.11,0,0,1,0,127.87V160H153V0Z"/><path class="cls-2" d="M1.85,123Q24.43,102.29,46.9,81.47h0c-.22-2.43.38-4.41,3-5.23h0L51,66.45h0c-1.85-3.12-5.15-2.47-7.93-2.82a90.22,90.22,0,0,0-9.6-.29h0a14.08,14.08,0,0,1-3-.05C29,63,28.57,62,29.76,60.9c5.67-5.45,10.72-11.57,17.11-16.26,3.87-2.85,8-2.11,12.15-.83,7.26-13.33,18-23,31.3-30.05,1.22-.64,2.4-1.35,3.6-2A76.78,76.78,0,0,0,46.37,2.2C28.27,4.31,11.89,13.46,0,26.66V82.58a13.21,13.21,0,0,0,6.33,5.77c-2.77,1.5-5,3.14-6.33,6.06V124.9C.69,124.37,1.23,123.59,1.85,123ZM37,16.75c1.58,2.29,3,4.1,6,5-2.64,1.67-4.8,2.77-5.38,6-1.86-2.51-3-4.68-5.74-5.43C33.55,20.26,36.38,19.62,37,16.75Z"/><path class="cls-2" d="M92,72.55c-1.92,1.15-2.63,2.13-1.77,4.38a10.32,10.32,0,0,1-1.82,10.6c-4.89,6.08-10.8,11.17-16.22,16.73-.52.54-1.22,1-1.76-.07h0c-1.46-2.59-.45-5.39-.68-8.08-.36-4.34.68-8.76-.67-13.06-1.91-1.22-4-.51-6-.58h0c-1.7,1-3.61.42-5.4.68,0,2.52-1.76,2.92-3.75,3h0c-.11.3-.22.61-.34.91h0q-21.45,22.74-42.88,45.51c-.89.94-2.38,1.6-2.07,3.33h0c.91.65,1.84,1.3,2.75,2A75.51,75.51,0,0,0,121.38,39.19c-3.12,5.42-6,11-9.92,15.92A71.11,71.11,0,0,1,92,72.55Zm8.6,44.42c-1.22-3.17-3.08-4.56-5.47-6a10.68,10.68,0,0,0,5.35-5.52c1.49,2.43,3,4.31,5.72,5.5A11.11,11.11,0,0,0,100.55,117Z"/><path class="cls-3" d="M91.11,14.47A74,74,0,0,0,60.83,42.26a4.81,4.81,0,0,1-1.73,1.93l-.08,0c0,.37,0,.74,0,1.11a109,109,0,0,1-4.63,16c-.68,1.74-1.35,3.55-2.87,4.77a.05.05,0,0,0,0,0c.5,3.17-.52,6.21-.78,9.31a10.57,10.57,0,0,1-.64,1l2.13,1.44h0c1.66,1.78,3.07,3.81,5.15,5.18.17-.16.34-.32.52-.47a9.16,9.16,0,0,1,2.48-.48h-.08A111.43,111.43,0,0,0,79.27,70.9a142.25,142.25,0,0,0,30.12-30.48,2.47,2.47,0,0,0,.25-1l0,0c-6.82,5.37-11.13,5.86-16.41,1.87-4-3-5.29-9.19-2.86-13.92a10.69,10.69,0,0,1,13-5.56,11.3,11.3,0,0,1,8.09,11.94c-.14,1.1-.16,2.22-.23,3.33h0c4.73-4.37,7-10.4,10.44-15.64.74-1.11,1-2.6,2.37-3.22V17.4a53.68,53.68,0,0,0-12-10.25c-.7-.42-.32-1.08-.09-1.65h0c-6.24,1.33-12,4-17.93,6.23h0C93.7,13.38,92.31,13.86,91.11,14.47Z"/><path class="cls-3" d="M50.13,76.4a10.57,10.57,0,0,0,.64-1c.26-3.1,1.28-6.14.78-9.31a.05.05,0,0,1,0,0,4.56,4.56,0,0,1-.55.4l-1.09,9.79h0Z"/><path class="cls-3" d="M59,43.81h0v.41l.08,0a4.81,4.81,0,0,0,1.73-1.93A74,74,0,0,1,91.11,14.47c1.2-.61,2.59-1.09,2.81-2.74h0c-1.2.68-2.38,1.39-3.6,2C77,20.81,66.28,30.48,59,43.81Z"/><path class="cls-3" d="M57.6,83.15c1.79-.26,3.7.32,5.4-.68h0l-2.59-.4a9.16,9.16,0,0,0-2.48.48c-.18.15-.35.31-.52.47l.19.13Z"/><path class="cls-4" d="M124.25,18.36s0,.07,0,.1a176.34,176.34,0,0,1-9.63,16.15c-.81,1.19-1.5,2.84-3.43,2.42l0,0-1.5,2.28h0a.17.17,0,0,1,0,.07c1.08,1.5-.32,2.54-1.08,3.55A136.69,136.69,0,0,1,79.38,71.91,90.93,90.93,0,0,1,64,81.23a6.36,6.36,0,0,0-.71.31c2.19-.31,4.34-.41,6.13,1.28l.09.12c4.28-.88,8.17-2.89,12.24-4.36,1-.35,1.9-1.75,3-.56A3.61,3.61,0,0,1,85.21,82a22.31,22.31,0,0,1-4.59,6.36,65.3,65.3,0,0,1-6.42,6.36,10.22,10.22,0,0,0-3.49,4.73c0,1,.09,2,.2,3,1.16,1.16,1.83,0,2.46-.63,4.18-4.15,8.46-8.2,12.45-12.54,3.33-3.61,5.07-7.76,3.45-12.75-.64-2,.09-3.31,1.83-4.39a74.05,74.05,0,0,0,27.7-30.47c.55-1.1,1.08-2.32,2.58-2.47h0c2.2-5.95,4.9-11.71,6.24-17.95h0C125.37,21.62,125.39,19.3,124.25,18.36Z"/><path class="cls-4" d="M118.8,41.65A74.05,74.05,0,0,1,91.1,72.12c-1.74,1.08-2.47,2.39-1.83,4.39,1.62,5-.12,9.14-3.45,12.75-4,4.34-8.27,8.39-12.45,12.54-.63.62-1.3,1.79-2.46.63-.11-1-.17-2-.2-3a9.85,9.85,0,0,0-.33,4.79c.54,1.08,1.24.61,1.76.07,5.42-5.56,11.33-10.65,16.22-16.73a10.32,10.32,0,0,0,1.82-10.6C89.32,74.68,90,73.7,92,72.55a71.11,71.11,0,0,0,19.51-17.44c3.89-5,6.8-10.5,9.92-15.92h0C119.88,39.33,119.35,40.55,118.8,41.65Z"/><path class="cls-4" d="M63,82.47c2,.07,4.12-.64,6,.58l.48-.11-.09-.12c-1.79-1.69-3.94-1.59-6.13-1.28C63,81.7,62.84,82,63,82.47Z"/><path class="cls-4" d="M114.6,34.61a176.34,176.34,0,0,0,9.63-16.15s0-.07,0-.1a1.31,1.31,0,0,0-.27-.19h0c-1.42.62-1.63,2.11-2.37,3.22-3.44,5.24-5.71,11.27-10.44,15.64C113.1,37.45,113.79,35.8,114.6,34.61Z"/><path class="cls-4" d="M63.29,81.54a6.36,6.36,0,0,1,.71-.31,90.93,90.93,0,0,0,15.38-9.32A136.69,136.69,0,0,0,108.56,43c.76-1,2.16-2.05,1.08-3.55a2.47,2.47,0,0,1-.25,1A142.25,142.25,0,0,1,79.27,70.9,111.43,111.43,0,0,1,60.33,82.06h.08a9.76,9.76,0,0,0,2.78-.52Z"/><path class="cls-4" d="M63,82.47c-.16-.52,0-.77.29-.93h-.1a9.76,9.76,0,0,1-2.78.52l2.59.4Z"/><path class="cls-5" d="M3.23,130.65c9.8-9.67,19.5-19.45,29.43-29C38.52,96,44.74,90.78,50,84.58h0c0-.23-.08-.46-.13-.68l-2.64-2.15s0,.07,0,.1C42.59,87.31,37,91.77,31.75,96.64c-4.57,4.28-9.21,8.51-13.8,12.77C13.08,113.92,8,118.19,3.33,123c-.94,1-1.95,2.21-3.33,2.58v2.31A19.11,19.11,0,0,0,3.23,130.65Z"/><path class="cls-5" d="M3.33,123C8,118.19,13.08,113.92,18,109.41c4.59-4.26,9.23-8.49,13.8-12.77C37,91.77,42.59,87.31,47.23,81.85c0,0,0-.06,0-.1l-.35-.28h0Q24.39,102.26,1.85,123c-.62.57-1.16,1.35-1.85,1.88v.66C1.38,125.19,2.39,124,3.33,123Z"/><path class="cls-6" d="M9.43,132.69c3.27-3.13,5.92-6.8,9.1-10,11.62-11.73,22.72-24,34.14-35.87-.87-.47-1.39-1.43-2.2-2-2.83,4.86-7.16,8.41-11.24,12-9.32,8.29-17.72,17.48-26.68,26.11-2,1.92-3.88,4-5.89,5.84-1,.9-1.74,2.27-3.43,1.85,1.3,2.23,3.5,3.56,5.33,5.26h0C7.51,134.48,8.58,133.5,9.43,132.69Z"/><path class="cls-6" d="M10.63,132.58Q32,109.79,53.51,87.07a2.24,2.24,0,0,1-.84-.27c-11.42,11.91-22.52,24.14-34.14,35.87-3.18,3.22-5.83,6.89-9.1,10-.85.81-1.92,1.79-.87,3.22C8.25,134.18,9.74,133.52,10.63,132.58Z"/><path class="cls-6" d="M6.66,128.8c2-1.89,3.9-3.92,5.89-5.84,9-8.63,17.36-17.82,26.68-26.11,4.08-3.62,8.41-7.17,11.24-12a3.21,3.21,0,0,0-.45-.24h0c-5.28,6.2-11.5,11.45-17.36,17.08C22.73,111.2,13,121,3.23,130.65,4.92,131.07,5.7,129.7,6.66,128.8Z"/><path class="cls-7" d="M123.31,15.81c.27.42.59.81.82,1.26,2-4.15,3.85-8.33,5.9-12.43,1-2.07-.09-2.31-1.67-2.4h0C122.7,2.55,117.27,4,111.85,5.5h0C115.51,9.12,120.44,11.31,123.31,15.81Z"/><path class="cls-7" d="M111.94,7.15A53.68,53.68,0,0,1,124,17.4c.06-.11.11-.22.16-.33-.23-.45-.55-.84-.82-1.26-2.87-4.5-7.8-6.69-11.46-10.31C111.62,6.07,111.24,6.73,111.94,7.15Z"/><path class="cls-8" d="M130.69,4.47a51.81,51.81,0,0,1-4.12,9.94c-.59,1.11-1,2.36-2.33,2.89l0,.08a2.26,2.26,0,0,1,0,.82c1.84.16,2,2.25,3.35,3h0c1.75-5.52,2.54-11.22,3.61-16.88.6-3.16-.56-3.24-2.87-2.12C130.34,1.72,131.5,1.67,130.69,4.47Z"/><path class="cls-8" d="M124.27,18.2a2.26,2.26,0,0,0,0-.82l0-.08-.27.1v.77h0A1.36,1.36,0,0,1,124.27,18.2Z"/><path class="cls-8" d="M124.27,18.2c0,.05,0,.1,0,.16,1.14.94,1.12,3.26,3.37,2.88C126.31,20.45,126.11,18.36,124.27,18.2Z"/><path class="cls-8" d="M124.25,18.36c0-.06,0-.11,0-.16a1.36,1.36,0,0,0-.29,0h0A1.31,1.31,0,0,1,124.25,18.36Z"/><path class="cls-8" d="M130,4.64c-2,4.1-4,8.28-5.9,12.43a1.63,1.63,0,0,1,.11.23c1.28-.53,1.74-1.78,2.33-2.89a51.81,51.81,0,0,0,4.12-9.94c.81-2.8-.35-2.75-2.33-2.23h0C129.94,2.33,131.07,2.57,130,4.64Z"/><path class="cls-8" d="M124.13,17.07c0,.11-.1.22-.16.33l.27-.1A1.63,1.63,0,0,0,124.13,17.07Z"/><path class="cls-9" d="M58.22,45c-3.31-1.08-6,.82-8.42,2.6A113.89,113.89,0,0,0,34.27,62.44h.16c4.39-.07,8.78-.42,13.1.7,1.6.41,3.12.89,3.83,2.49,3.17-6.49,5.09-13.39,6.76-20.39C58.15,45.17,58.19,45.1,58.22,45Z"/><path class="cls-9" d="M51.36,65.64c-.71-1.6-2.23-2.08-3.83-2.49-4.32-1.12-8.71-.77-13.1-.7h-.16l-.82.9a90.22,90.22,0,0,1,9.6.29c2.78.35,6.08-.3,7.93,2.82h0Z"/><path class="cls-9" d="M58.12,45.25c-1.67,7-3.59,13.9-6.76,20.39.06.14.12.26.17.41,1.52-1.22,2.19-3,2.87-4.77a109,109,0,0,0,4.63-16,5.82,5.82,0,0,0-.81-.31C58.19,45.1,58.15,45.17,58.12,45.25Z"/><path class="cls-9" d="M51.36,65.64l-.38.81h0a4.56,4.56,0,0,0,.55-.4C51.48,65.9,51.42,65.78,51.36,65.64Z"/><path class="cls-10" d="M49.29,46.84c3.68-2.71,6.44-3.31,9-2a3.67,3.67,0,0,1,.34-.53.48.48,0,0,1-.24,0C50.8,41.83,45.74,46,40.9,50.85c-2.66,2.65-5.34,5.28-7.95,8-.83.86-2.45,1.61-1.93,2.93.4,1,1.4.82,2.37.71a3.44,3.44,0,0,1,1.15-1.75C39.3,55.93,43.81,50.87,49.29,46.84Z"/><path class="cls-10" d="M33.39,62.47c-1,.11-2,.3-2.37-.71-.52-1.32,1.1-2.07,1.93-2.93,2.61-2.7,5.29-5.33,7.95-8,4.84-4.81,9.9-9,17.48-6.51a.48.48,0,0,0,.24,0c.13-.19.26-.37.4-.54h0c-4.16-1.28-8.28-2-12.15.83C40.48,49.33,35.43,55.45,29.76,60.9,28.57,62,29,63,30.47,63.29a14.08,14.08,0,0,0,3,.05h0A2,2,0,0,1,33.39,62.47Z"/><path class="cls-10" d="M58.28,44.88c.25.14.5.28.75.45,0-.37,0-.74,0-1.11a3.1,3.1,0,0,1-.4.13A3.67,3.67,0,0,0,58.28,44.88Z"/><path class="cls-10" d="M58.62,44.35a3.1,3.1,0,0,0,.4-.13v-.41h0C58.88,44,58.75,44.16,58.62,44.35Z"/><path class="cls-10" d="M49.8,47.62c2.38-1.78,5.11-3.68,8.42-2.6l.06-.14c-2.55-1.35-5.31-.75-9,2-5.48,4-10,9.09-14.75,13.88a3.44,3.44,0,0,0-1.15,1.75,5.29,5.29,0,0,1,.88,0A113.89,113.89,0,0,1,49.8,47.62Z"/><path class="cls-10" d="M33.39,62.47a2,2,0,0,0,.06.87h0l.82-.9A5.29,5.29,0,0,0,33.39,62.47Z"/><path class="cls-10" d="M58.22,45a5.82,5.82,0,0,1,.81.31c-.25-.17-.5-.31-.75-.45Z"/><path class="cls-11" d="M6.33,88.35A13.21,13.21,0,0,1,0,82.58V94.41C1.29,91.49,3.56,89.85,6.33,88.35Z"/><path class="cls-12" d="M37.58,27.79c.58-3.27,2.74-4.37,5.38-6-3-.9-4.4-2.71-6-5-.6,2.87-3.43,3.51-5.14,5.61C34.6,23.11,35.72,25.28,37.58,27.79Z"/><path class="cls-13" d="M52.2,79.05a6.14,6.14,0,0,0-.47-.42,5.84,5.84,0,0,1-1.75-2c-1.08,1.5-2.34,2.91-2.67,4.84,1.54-.06,2.23,1.18,3,2.27,0,0,0,.1,0,.15h.39C50.5,82.07,51.84,80.68,52.2,79.05Z"/><path class="cls-13" d="M50,76.61a2.22,2.22,0,0,1-.09-.37c-2.61.82-3.21,2.8-3,5.23h0a2.88,2.88,0,0,1,.41,0C47.64,79.52,48.9,78.11,50,76.61Z"/><path class="cls-13" d="M51.73,78.63a6.14,6.14,0,0,1,.47.42,3.26,3.26,0,0,0,.06-1.21h0L50.13,76.4l-.15.21A5.84,5.84,0,0,0,51.73,78.63Z"/><path class="cls-13" d="M50.13,76.4l-.24-.16h0a2.22,2.22,0,0,0,.09.37Z"/><path class="cls-13" d="M50.33,83.72c-.79-1.09-1.48-2.33-3-2.27,0,.1-.05.2-.06.3l2.64,2.15.48,0C50.35,83.82,50.35,83.77,50.33,83.72Z"/><path class="cls-13" d="M46.9,81.47l.35.28c0-.1,0-.2.06-.3A2.88,2.88,0,0,0,46.9,81.47Z"/><path class="cls-3" d="M70.68,97.66a10.69,10.69,0,0,1,2.7-3.52,59.69,59.69,0,0,0,9-9.55,9.39,9.39,0,0,0,1.7-2.91c.22-.84.52-1.81-.29-2.45s-1.44,0-2.11.33c-2.67,1.1-5.32,2.25-8,3.17-1.21.42-2.48,1.12-3.8.72.94,1.55.8,3.34.87,5.1C70.86,91.58,70.68,94.63,70.68,97.66Z"/><path class="cls-3" d="M70.68,97.66c0-3,.18-6.08.06-9.11-.07-1.76.07-3.55-.87-5.1a2.9,2.9,0,0,1-.84-.4c1.35,4.3.31,8.72.67,13.06.23,2.69-.78,5.49.68,8.08h0A9.29,9.29,0,0,1,70.68,97.66Z"/><path class="cls-3" d="M73.67,82.73c2.73-.92,5.38-2.07,8-3.17.67-.28,1.41-.88,2.11-.33s.51,1.61.29,2.45a9.39,9.39,0,0,1-1.7,2.91,59.69,59.69,0,0,1-9,9.55,10.69,10.69,0,0,0-2.7,3.52q0,.87,0,1.74a10.22,10.22,0,0,1,3.49-4.73,65.3,65.3,0,0,0,6.42-6.36A22.31,22.31,0,0,0,85.21,82,3.61,3.61,0,0,0,84.72,78c-1.07-1.19-2,.21-3,.56-4.07,1.47-8,3.48-12.24,4.36a5.3,5.3,0,0,1,.36.51C71.19,83.85,72.46,83.15,73.67,82.73Z"/><path class="cls-3" d="M70.38,104.19h0a9.85,9.85,0,0,1,.33-4.79q0-.87,0-1.74A9.29,9.29,0,0,0,70.38,104.19Z"/><path class="cls-3" d="M69.87,83.45a5.3,5.3,0,0,0-.36-.51l-.48.11A2.9,2.9,0,0,0,69.87,83.45Z"/><path class="cls-12" d="M100.43,105.5A10.68,10.68,0,0,1,95.08,111c2.39,1.39,4.25,2.78,5.47,6a11.11,11.11,0,0,1,5.6-6C103.41,109.81,101.92,107.93,100.43,105.5Z"/><path class="cls-14" d="M50.91,84l2.62,2,.25-.21a9.31,9.31,0,0,0,3.52-2.58C55,83,54,81.08,52.7,79.58c0,1.58-.87,3-1.73,4.36Z"/><path class="cls-14" d="M57.3,83.13a9.31,9.31,0,0,1-3.52,2.58l-.25.21.32.24h0c2-.09,3.72-.49,3.75-3h0Z"/><path class="cls-14" d="M52.7,79.58C54,81.08,55,83,57.3,83.13l.11-.11c-2.08-1.37-3.49-3.4-5.15-5.18h0A4.38,4.38,0,0,1,52.7,79.58Z"/><path class="cls-14" d="M57.6,83.15h0L57.41,83l-.11.11Z"/><path class="cls-14" d="M50.76,83.86l.15.11.06,0c.86-1.4,1.77-2.78,1.73-4.36-.16-.18-.33-.36-.5-.53C51.84,80.68,50.5,82.07,50.76,83.86Z"/><path class="cls-14" d="M52.2,79.05c.17.17.34.35.5.53a4.38,4.38,0,0,0-.44-1.74A3.26,3.26,0,0,1,52.2,79.05Z"/><path class="cls-15" d="M51.36,84.71c-.16-.24-.33-.48-.5-.71a.8.8,0,0,1-.43.13c0,.15,0,.29,0,.44A2.28,2.28,0,0,1,51.36,84.71Z"/><path class="cls-15" d="M52.91,86.08a2.68,2.68,0,0,1,.18.28l.18-.2A2.09,2.09,0,0,1,52.91,86.08Z"/><path class="cls-15" d="M53.09,86.36l.42.71h0c.12-.3.23-.61.34-.91a1.88,1.88,0,0,1-.58,0Z"/><path class="cls-15" d="M50.43,84.13a.85.85,0,0,1-.54-.23c0,.22.09.45.13.68h0a3.42,3.42,0,0,1,.45,0C50.46,84.42,50.45,84.28,50.43,84.13Z"/><path class="cls-15" d="M53.09,86.36a2.68,2.68,0,0,0-.18-.28,3.12,3.12,0,0,1-1.55-1.37,2.28,2.28,0,0,0-.89-.14c0,.08,0,.16,0,.24h0c.81.55,1.33,1.51,2.2,2l.34-.35A.34.34,0,0,1,53.09,86.36Z"/><path class="cls-15" d="M53.09,86.36a.34.34,0,0,0-.08.09l-.34.35a2.24,2.24,0,0,0,.84.27h0Z"/><path class="cls-15" d="M50.48,84.81c0-.08,0-.16,0-.24a3.42,3.42,0,0,0-.45,0,3.21,3.21,0,0,1,.45.24Z"/><path class="cls-15" d="M50.76,83.86h-.39l.06.26a.8.8,0,0,0,.43-.13Z"/><path class="cls-15" d="M50.43,84.13l-.06-.26-.48,0A.85.85,0,0,0,50.43,84.13Z"/><path class="cls-15" d="M50.86,84c.17.23.34.47.5.71a3.21,3.21,0,0,1,1.55,1.37,2.09,2.09,0,0,0,.36.08l.26-.24-2.62-2Z"/><path class="cls-15" d="M53.53,85.92l-.26.24a1.88,1.88,0,0,0,.58,0h0Z"/><path class="cls-15" d="M51.36,84.71a3.12,3.12,0,0,0,1.55,1.37A3.21,3.21,0,0,0,51.36,84.71Z"/><path class="cls-15" d="M50.76,83.86l.1.14,0,0Z"/><path class="cls-7" d="M109.65,39.34c-.47-1.4.42-1.9,1.5-2.28v0a1.69,1.69,0,0,1-.24-.05c-1-1.49-.37-3.16-.47-4.75a10.55,10.55,0,0,0-9.52-10,10.27,10.27,0,0,0-4,19.92c3.19,1.23,6.14.59,9-1.12,1.15-.7,2-2,3.54-1.94a2.32,2.32,0,0,1,.21.25l0,0Zm-9.17,1.5a8.32,8.32,0,0,1-8.41-8.65,8.07,8.07,0,0,1,8.22-8,8.55,8.55,0,0,1,8.31,8.47A8.25,8.25,0,0,1,100.48,40.84Z"/><path class="cls-7" d="M105.86,41.06c-2.82,1.71-5.77,2.35-9,1.12a10.27,10.27,0,0,1,4-19.92,10.55,10.55,0,0,1,9.52,10c.1,1.59-.58,3.26.47,4.75a1.69,1.69,0,0,0,.24.05c.07-1.11.09-2.23.23-3.33a11.3,11.3,0,0,0-8.09-11.94,10.69,10.69,0,0,0-13,5.56c-2.43,4.73-1.17,10.88,2.86,13.92,5.28,4,9.59,3.5,16.41-1.87a2.32,2.32,0,0,0-.21-.25C107.87,39.11,107,40.36,105.86,41.06Z"/><path class="cls-7" d="M109.65,39.34l1.5-2.28C110.07,37.44,109.18,37.94,109.65,39.34Z"/><path class="cls-16" d="M100.29,24.2a8.07,8.07,0,0,0-8.22,8,8.27,8.27,0,1,0,16.53.48A8.55,8.55,0,0,0,100.29,24.2Z"/></g></g></svg>